; NON-PLATED HOLES START AT T1
; THROUGH (PLATED) HOLES START AT T100
M48
INCH
T100C0.035000
T101C0.032000
T102C0.038000
T103C0.030000
T104C0.031497
T105C0.015748
%
T100
X003047Y004397
X006047Y003397
X028606Y021397
X026047Y004397
X011047Y015397
X005047Y018397
X025047Y011397
X005047Y014397
X003047Y003397
X003047Y005397
X003047Y006397
X025047Y006397
X002047Y010397
X022047Y004397
X026047Y019625
X028047Y001397
X028606Y019625
X006047Y004397
X011047Y019397
X021047Y006397
X024047Y001397
X006047Y005397
X006047Y006397
X003047Y010397
X026047Y021397
X021047Y011397
T101
X028047Y016397
X029047Y016397
X026047Y016397
X031047Y013397
X027047Y013397
X030047Y013397
X026047Y013397
X031047Y016397
X028047Y013397
X025047Y013397
X027047Y016397
X030047Y016397
X025047Y016397
X029047Y013397
T102
X002047Y019397
X002047Y018397
T103
X017047Y018397
X017047Y017395
T104
X017047Y011413
X017047Y001413
X017047Y008397
X017047Y002397
X017047Y004413
X017047Y005397
X017047Y012397
X017047Y007413
T105
X012047Y003397
X014047Y014397
T00
M30
