G04 MADE WITH FRITZING*
G04 WWW.FRITZING.ORG*
G04 DOUBLE SIDED*
G04 HOLES PLATED*
G04 CONTOUR ON CENTER OF CONTOUR VECTOR*
%ASAXBY*%
%FSLAX23Y23*%
%MOIN*%
%OFA0B0*%
%SFA1.0B1.0*%
%ADD10C,0.075000*%
%ADD11C,0.070000*%
%ADD12C,0.062992*%
%ADD13C,0.078000*%
%ADD14C,0.052000*%
%ADD15C,0.039370*%
%ADD16R,0.075000X0.075000*%
%ADD17R,0.062992X0.062992*%
%ADD18R,0.078000X0.078000*%
%ADD19C,0.024000*%
%ADD20R,0.001000X0.001000*%
%LNCOPPER0*%
G90*
G70*
G54D10*
X505Y1840D03*
X505Y1440D03*
X205Y1040D03*
X305Y1040D03*
G54D11*
X1705Y1840D03*
X1705Y1740D03*
G54D10*
X1105Y1540D03*
X1105Y1940D03*
X305Y640D03*
X605Y640D03*
X305Y540D03*
X605Y540D03*
X305Y440D03*
X605Y440D03*
X305Y340D03*
X605Y340D03*
G54D12*
X1705Y1141D03*
X1705Y1240D03*
X1705Y141D03*
X1705Y240D03*
X1705Y741D03*
X1705Y840D03*
X1705Y441D03*
X1705Y540D03*
G54D10*
X2605Y2140D03*
X2861Y2140D03*
X2605Y1963D03*
X2861Y1963D03*
G54D13*
X205Y1940D03*
X205Y1840D03*
G54D10*
X2105Y640D03*
X2505Y640D03*
X2205Y440D03*
X2605Y440D03*
X2405Y140D03*
X2805Y140D03*
X2105Y1140D03*
X2505Y1140D03*
G54D14*
X2505Y1340D03*
X2605Y1340D03*
X2705Y1340D03*
X2805Y1340D03*
X2905Y1340D03*
X3005Y1340D03*
X3105Y1340D03*
X3105Y1640D03*
X3005Y1640D03*
X2905Y1640D03*
X2805Y1640D03*
X2705Y1640D03*
X2605Y1640D03*
X2505Y1640D03*
G54D15*
X1205Y340D03*
X1405Y1440D03*
G54D16*
X205Y1040D03*
X305Y640D03*
G54D17*
X1705Y1141D03*
X1705Y141D03*
X1705Y741D03*
X1705Y441D03*
G54D18*
X205Y1940D03*
G54D19*
X2305Y742D02*
X2479Y653D01*
D02*
X2305Y1239D02*
X2305Y742D01*
D02*
X2203Y1341D02*
X2305Y1239D01*
D02*
X1605Y1341D02*
X2203Y1341D01*
D02*
X1503Y438D02*
X1503Y1239D01*
D02*
X1503Y1239D02*
X1605Y1341D01*
D02*
X1105Y141D02*
X1503Y438D01*
D02*
X707Y141D02*
X1105Y141D01*
D02*
X104Y138D02*
X206Y40D01*
D02*
X206Y40D02*
X707Y141D01*
D02*
X105Y341D02*
X104Y138D01*
D02*
X279Y427D02*
X105Y341D01*
D02*
X707Y642D02*
X633Y640D01*
D02*
X806Y241D02*
X804Y540D01*
D02*
X804Y540D02*
X707Y642D01*
D02*
X304Y141D02*
X806Y241D01*
D02*
X206Y239D02*
X304Y141D01*
D02*
X203Y339D02*
X206Y239D01*
D02*
X276Y340D02*
X203Y339D01*
D02*
X906Y1438D02*
X1079Y1527D01*
D02*
X605Y1341D02*
X906Y1438D01*
D02*
X605Y668D02*
X605Y1341D01*
D02*
X906Y2041D02*
X1079Y1953D01*
D02*
X105Y2041D02*
X304Y2138D01*
D02*
X105Y642D02*
X105Y2041D01*
D02*
X304Y2138D02*
X906Y2041D01*
D02*
X279Y553D02*
X105Y642D01*
D02*
X1303Y1640D02*
X2478Y1640D01*
D02*
X1304Y1638D02*
X1303Y1640D01*
D02*
X1130Y1552D02*
X1304Y1638D01*
D02*
X703Y540D02*
X633Y540D01*
D02*
X703Y442D02*
X703Y540D01*
D02*
X633Y440D02*
X703Y442D01*
D02*
X406Y938D02*
X325Y1019D01*
D02*
X503Y642D02*
X406Y938D01*
D02*
X585Y560D02*
X503Y642D01*
D02*
X305Y840D02*
X305Y668D01*
D02*
X304Y841D02*
X305Y840D01*
D02*
X217Y1014D02*
X304Y841D01*
D02*
X806Y1538D02*
X1076Y1540D01*
D02*
X707Y1638D02*
X806Y1538D01*
D02*
X525Y1819D02*
X707Y1638D01*
D02*
X406Y1341D02*
X314Y1067D01*
D02*
X484Y1420D02*
X406Y1341D01*
D02*
X1406Y2041D02*
X2576Y2137D01*
D02*
X1303Y1940D02*
X1406Y2041D01*
D02*
X1133Y1940D02*
X1303Y1940D01*
D02*
X2504Y1939D02*
X2577Y1956D01*
D02*
X1731Y1843D02*
X2504Y1939D01*
D02*
X3203Y1841D02*
X3106Y1939D01*
D02*
X3106Y1939D02*
X2889Y1960D01*
D02*
X3106Y1142D02*
X3203Y1239D01*
D02*
X3203Y1239D02*
X3203Y1438D01*
D02*
X3203Y1438D02*
X3203Y1841D01*
D02*
X3105Y1313D02*
X3106Y1142D01*
D02*
X2506Y1439D02*
X2505Y1367D01*
D02*
X2606Y1438D02*
X2506Y1439D01*
D02*
X2703Y1439D02*
X2606Y1438D01*
D02*
X2704Y1367D02*
X2703Y1439D01*
D02*
X1732Y441D02*
X2176Y440D01*
D02*
X2805Y168D02*
X2805Y1313D01*
D02*
X2605Y468D02*
X2605Y1313D01*
D02*
X1732Y1141D02*
X2076Y1140D01*
D02*
X1732Y141D02*
X2376Y140D01*
D02*
X2514Y667D02*
X2514Y668D01*
D02*
X2514Y668D02*
X2505Y1111D01*
D02*
X1695Y265D02*
X1650Y380D01*
D02*
X1650Y380D02*
X1650Y500D01*
D02*
X1650Y500D02*
X1698Y500D01*
D02*
X1698Y500D02*
X1698Y524D01*
D02*
X1698Y524D02*
X1695Y515D01*
D02*
X1681Y827D02*
X1650Y812D01*
D02*
X1650Y812D02*
X1650Y668D01*
D02*
X1650Y668D02*
X1698Y572D01*
D02*
X1698Y572D02*
X1700Y566D01*
D02*
X1684Y1223D02*
X1650Y1196D01*
D02*
X1650Y1196D02*
X1650Y1076D01*
D02*
X1650Y1076D02*
X1699Y866D01*
D02*
X226Y1919D02*
X304Y1841D01*
D02*
X305Y1640D02*
X206Y1438D01*
D02*
X206Y1438D02*
X210Y1076D01*
D02*
X304Y1841D02*
X305Y1640D01*
D02*
X210Y1076D02*
X209Y1068D01*
D02*
X1404Y1438D02*
X1394Y1424D01*
D02*
X1207Y438D02*
X1404Y1438D01*
D02*
X1205Y359D02*
X1207Y438D01*
G54D20*
X2503Y1692D02*
X2505Y1692D01*
X2603Y1692D02*
X2605Y1692D01*
X2703Y1692D02*
X2705Y1692D01*
X2803Y1692D02*
X2805Y1692D01*
X2903Y1692D02*
X2905Y1692D01*
X3003Y1692D02*
X3005Y1692D01*
X3103Y1692D02*
X3105Y1692D01*
X2497Y1691D02*
X2511Y1691D01*
X2597Y1691D02*
X2611Y1691D01*
X2697Y1691D02*
X2711Y1691D01*
X2797Y1691D02*
X2811Y1691D01*
X2897Y1691D02*
X2911Y1691D01*
X2997Y1691D02*
X3011Y1691D01*
X3097Y1691D02*
X3111Y1691D01*
X2494Y1690D02*
X2514Y1690D01*
X2594Y1690D02*
X2614Y1690D01*
X2694Y1690D02*
X2714Y1690D01*
X2794Y1690D02*
X2814Y1690D01*
X2894Y1690D02*
X2914Y1690D01*
X2994Y1690D02*
X3014Y1690D01*
X3094Y1690D02*
X3114Y1690D01*
X2492Y1689D02*
X2515Y1689D01*
X2592Y1689D02*
X2615Y1689D01*
X2692Y1689D02*
X2715Y1689D01*
X2792Y1689D02*
X2815Y1689D01*
X2892Y1689D02*
X2915Y1689D01*
X2992Y1689D02*
X3015Y1689D01*
X3092Y1689D02*
X3115Y1689D01*
X2491Y1688D02*
X2517Y1688D01*
X2591Y1688D02*
X2617Y1688D01*
X2691Y1688D02*
X2717Y1688D01*
X2791Y1688D02*
X2817Y1688D01*
X2891Y1688D02*
X2917Y1688D01*
X2991Y1688D02*
X3017Y1688D01*
X3091Y1688D02*
X3117Y1688D01*
X2489Y1687D02*
X2519Y1687D01*
X2589Y1687D02*
X2619Y1687D01*
X2689Y1687D02*
X2719Y1687D01*
X2789Y1687D02*
X2819Y1687D01*
X2889Y1687D02*
X2919Y1687D01*
X2989Y1687D02*
X3019Y1687D01*
X3089Y1687D02*
X3119Y1687D01*
X2488Y1686D02*
X2520Y1686D01*
X2588Y1686D02*
X2620Y1686D01*
X2688Y1686D02*
X2720Y1686D01*
X2788Y1686D02*
X2820Y1686D01*
X2888Y1686D02*
X2920Y1686D01*
X2988Y1686D02*
X3020Y1686D01*
X3088Y1686D02*
X3120Y1686D01*
X2487Y1685D02*
X2521Y1685D01*
X2587Y1685D02*
X2621Y1685D01*
X2687Y1685D02*
X2721Y1685D01*
X2787Y1685D02*
X2821Y1685D01*
X2887Y1685D02*
X2921Y1685D01*
X2987Y1685D02*
X3021Y1685D01*
X3087Y1685D02*
X3121Y1685D01*
X2486Y1684D02*
X2522Y1684D01*
X2586Y1684D02*
X2622Y1684D01*
X2686Y1684D02*
X2722Y1684D01*
X2786Y1684D02*
X2822Y1684D01*
X2886Y1684D02*
X2922Y1684D01*
X2986Y1684D02*
X3022Y1684D01*
X3086Y1684D02*
X3122Y1684D01*
X2485Y1683D02*
X2523Y1683D01*
X2585Y1683D02*
X2623Y1683D01*
X2685Y1683D02*
X2723Y1683D01*
X2785Y1683D02*
X2823Y1683D01*
X2885Y1683D02*
X2923Y1683D01*
X2985Y1683D02*
X3023Y1683D01*
X3085Y1683D02*
X3123Y1683D01*
X2484Y1682D02*
X2524Y1682D01*
X2584Y1682D02*
X2624Y1682D01*
X2684Y1682D02*
X2724Y1682D01*
X2784Y1682D02*
X2824Y1682D01*
X2884Y1682D02*
X2924Y1682D01*
X2984Y1682D02*
X3024Y1682D01*
X3084Y1682D02*
X3124Y1682D01*
X2483Y1681D02*
X2525Y1681D01*
X2583Y1681D02*
X2625Y1681D01*
X2683Y1681D02*
X2725Y1681D01*
X2783Y1681D02*
X2825Y1681D01*
X2883Y1681D02*
X2925Y1681D01*
X2983Y1681D02*
X3025Y1681D01*
X3083Y1681D02*
X3125Y1681D01*
X2483Y1680D02*
X2525Y1680D01*
X2583Y1680D02*
X2625Y1680D01*
X2683Y1680D02*
X2725Y1680D01*
X2783Y1680D02*
X2825Y1680D01*
X2883Y1680D02*
X2925Y1680D01*
X2983Y1680D02*
X3025Y1680D01*
X3083Y1680D02*
X3125Y1680D01*
X2482Y1679D02*
X2526Y1679D01*
X2582Y1679D02*
X2626Y1679D01*
X2682Y1679D02*
X2726Y1679D01*
X2782Y1679D02*
X2826Y1679D01*
X2882Y1679D02*
X2926Y1679D01*
X2982Y1679D02*
X3026Y1679D01*
X3082Y1679D02*
X3126Y1679D01*
X2481Y1678D02*
X2526Y1678D01*
X2581Y1678D02*
X2626Y1678D01*
X2681Y1678D02*
X2726Y1678D01*
X2781Y1678D02*
X2826Y1678D01*
X2881Y1678D02*
X2926Y1678D01*
X2981Y1678D02*
X3026Y1678D01*
X3081Y1678D02*
X3126Y1678D01*
X2481Y1677D02*
X2527Y1677D01*
X2581Y1677D02*
X2627Y1677D01*
X2681Y1677D02*
X2727Y1677D01*
X2781Y1677D02*
X2827Y1677D01*
X2881Y1677D02*
X2927Y1677D01*
X2981Y1677D02*
X3027Y1677D01*
X3081Y1677D02*
X3127Y1677D01*
X2480Y1676D02*
X2527Y1676D01*
X2580Y1676D02*
X2627Y1676D01*
X2680Y1676D02*
X2727Y1676D01*
X2780Y1676D02*
X2827Y1676D01*
X2880Y1676D02*
X2927Y1676D01*
X2980Y1676D02*
X3027Y1676D01*
X3080Y1676D02*
X3127Y1676D01*
X2480Y1675D02*
X2528Y1675D01*
X2580Y1675D02*
X2628Y1675D01*
X2680Y1675D02*
X2728Y1675D01*
X2780Y1675D02*
X2828Y1675D01*
X2880Y1675D02*
X2928Y1675D01*
X2980Y1675D02*
X3028Y1675D01*
X3080Y1675D02*
X3128Y1675D01*
X2480Y1674D02*
X2528Y1674D01*
X2580Y1674D02*
X2628Y1674D01*
X2680Y1674D02*
X2728Y1674D01*
X2780Y1674D02*
X2828Y1674D01*
X2880Y1674D02*
X2928Y1674D01*
X2980Y1674D02*
X3028Y1674D01*
X3080Y1674D02*
X3128Y1674D01*
X2479Y1673D02*
X2529Y1673D01*
X2579Y1673D02*
X2628Y1673D01*
X2679Y1673D02*
X2728Y1673D01*
X2779Y1673D02*
X2828Y1673D01*
X2879Y1673D02*
X2928Y1673D01*
X2979Y1673D02*
X3028Y1673D01*
X3079Y1673D02*
X3128Y1673D01*
X2479Y1672D02*
X2529Y1672D01*
X2579Y1672D02*
X2629Y1672D01*
X2679Y1672D02*
X2729Y1672D01*
X2779Y1672D02*
X2829Y1672D01*
X2879Y1672D02*
X2929Y1672D01*
X2979Y1672D02*
X3029Y1672D01*
X3079Y1672D02*
X3129Y1672D01*
X2479Y1671D02*
X2529Y1671D01*
X2579Y1671D02*
X2629Y1671D01*
X2679Y1671D02*
X2729Y1671D01*
X2779Y1671D02*
X2829Y1671D01*
X2879Y1671D02*
X2929Y1671D01*
X2979Y1671D02*
X3029Y1671D01*
X3079Y1671D02*
X3129Y1671D01*
X2479Y1670D02*
X2529Y1670D01*
X2579Y1670D02*
X2629Y1670D01*
X2679Y1670D02*
X2729Y1670D01*
X2779Y1670D02*
X2829Y1670D01*
X2879Y1670D02*
X2929Y1670D01*
X2979Y1670D02*
X3029Y1670D01*
X3079Y1670D02*
X3129Y1670D01*
X2479Y1669D02*
X2529Y1669D01*
X2579Y1669D02*
X2629Y1669D01*
X2679Y1669D02*
X2729Y1669D01*
X2779Y1669D02*
X2829Y1669D01*
X2879Y1669D02*
X2929Y1669D01*
X2979Y1669D02*
X3029Y1669D01*
X3079Y1669D02*
X3129Y1669D01*
X2479Y1668D02*
X2529Y1668D01*
X2579Y1668D02*
X2629Y1668D01*
X2679Y1668D02*
X2729Y1668D01*
X2779Y1668D02*
X2829Y1668D01*
X2879Y1668D02*
X2929Y1668D01*
X2979Y1668D02*
X3029Y1668D01*
X3079Y1668D02*
X3129Y1668D01*
X2479Y1667D02*
X2529Y1667D01*
X2578Y1667D02*
X2629Y1667D01*
X2678Y1667D02*
X2729Y1667D01*
X2778Y1667D02*
X2829Y1667D01*
X2878Y1667D02*
X2929Y1667D01*
X2978Y1667D02*
X3029Y1667D01*
X3078Y1667D02*
X3129Y1667D01*
X2478Y1666D02*
X2529Y1666D01*
X2578Y1666D02*
X2629Y1666D01*
X2678Y1666D02*
X2729Y1666D01*
X2778Y1666D02*
X2829Y1666D01*
X2878Y1666D02*
X2929Y1666D01*
X2978Y1666D02*
X3029Y1666D01*
X3078Y1666D02*
X3129Y1666D01*
X2478Y1665D02*
X2529Y1665D01*
X2578Y1665D02*
X2629Y1665D01*
X2678Y1665D02*
X2729Y1665D01*
X2778Y1665D02*
X2829Y1665D01*
X2878Y1665D02*
X2929Y1665D01*
X2978Y1665D02*
X3029Y1665D01*
X3078Y1665D02*
X3129Y1665D01*
X2478Y1664D02*
X2529Y1664D01*
X2578Y1664D02*
X2629Y1664D01*
X2678Y1664D02*
X2729Y1664D01*
X2778Y1664D02*
X2829Y1664D01*
X2878Y1664D02*
X2929Y1664D01*
X2978Y1664D02*
X3029Y1664D01*
X3078Y1664D02*
X3129Y1664D01*
X2478Y1663D02*
X2529Y1663D01*
X2578Y1663D02*
X2629Y1663D01*
X2678Y1663D02*
X2729Y1663D01*
X2778Y1663D02*
X2829Y1663D01*
X2878Y1663D02*
X2929Y1663D01*
X2978Y1663D02*
X3029Y1663D01*
X3078Y1663D02*
X3129Y1663D01*
X2478Y1662D02*
X2529Y1662D01*
X2578Y1662D02*
X2629Y1662D01*
X2678Y1662D02*
X2729Y1662D01*
X2778Y1662D02*
X2829Y1662D01*
X2878Y1662D02*
X2929Y1662D01*
X2978Y1662D02*
X3029Y1662D01*
X3078Y1662D02*
X3129Y1662D01*
X2478Y1661D02*
X2529Y1661D01*
X2578Y1661D02*
X2629Y1661D01*
X2678Y1661D02*
X2729Y1661D01*
X2778Y1661D02*
X2829Y1661D01*
X2878Y1661D02*
X2929Y1661D01*
X2978Y1661D02*
X3029Y1661D01*
X3078Y1661D02*
X3129Y1661D01*
X2478Y1660D02*
X2529Y1660D01*
X2578Y1660D02*
X2629Y1660D01*
X2678Y1660D02*
X2729Y1660D01*
X2778Y1660D02*
X2829Y1660D01*
X2878Y1660D02*
X2929Y1660D01*
X2978Y1660D02*
X3029Y1660D01*
X3078Y1660D02*
X3129Y1660D01*
X2478Y1659D02*
X2529Y1659D01*
X2578Y1659D02*
X2629Y1659D01*
X2678Y1659D02*
X2729Y1659D01*
X2778Y1659D02*
X2829Y1659D01*
X2878Y1659D02*
X2929Y1659D01*
X2978Y1659D02*
X3029Y1659D01*
X3078Y1659D02*
X3129Y1659D01*
X2478Y1658D02*
X2529Y1658D01*
X2578Y1658D02*
X2629Y1658D01*
X2678Y1658D02*
X2729Y1658D01*
X2778Y1658D02*
X2829Y1658D01*
X2878Y1658D02*
X2929Y1658D01*
X2978Y1658D02*
X3029Y1658D01*
X3078Y1658D02*
X3129Y1658D01*
X2478Y1657D02*
X2529Y1657D01*
X2578Y1657D02*
X2629Y1657D01*
X2678Y1657D02*
X2729Y1657D01*
X2778Y1657D02*
X2829Y1657D01*
X2878Y1657D02*
X2929Y1657D01*
X2978Y1657D02*
X3029Y1657D01*
X3078Y1657D02*
X3129Y1657D01*
X2478Y1656D02*
X2503Y1656D01*
X2505Y1656D02*
X2529Y1656D01*
X2578Y1656D02*
X2603Y1656D01*
X2605Y1656D02*
X2629Y1656D01*
X2678Y1656D02*
X2703Y1656D01*
X2705Y1656D02*
X2729Y1656D01*
X2778Y1656D02*
X2803Y1656D01*
X2805Y1656D02*
X2829Y1656D01*
X2878Y1656D02*
X2903Y1656D01*
X2905Y1656D02*
X2929Y1656D01*
X2978Y1656D02*
X3003Y1656D01*
X3005Y1656D02*
X3029Y1656D01*
X3078Y1656D02*
X3103Y1656D01*
X3105Y1656D02*
X3129Y1656D01*
X2478Y1655D02*
X2498Y1655D01*
X2510Y1655D02*
X2529Y1655D01*
X2578Y1655D02*
X2598Y1655D01*
X2610Y1655D02*
X2629Y1655D01*
X2678Y1655D02*
X2698Y1655D01*
X2710Y1655D02*
X2729Y1655D01*
X2778Y1655D02*
X2798Y1655D01*
X2810Y1655D02*
X2829Y1655D01*
X2878Y1655D02*
X2898Y1655D01*
X2910Y1655D02*
X2929Y1655D01*
X2978Y1655D02*
X2998Y1655D01*
X3010Y1655D02*
X3029Y1655D01*
X3078Y1655D02*
X3098Y1655D01*
X3110Y1655D02*
X3129Y1655D01*
X2478Y1654D02*
X2496Y1654D01*
X2512Y1654D02*
X2529Y1654D01*
X2578Y1654D02*
X2596Y1654D01*
X2612Y1654D02*
X2629Y1654D01*
X2678Y1654D02*
X2696Y1654D01*
X2712Y1654D02*
X2729Y1654D01*
X2778Y1654D02*
X2796Y1654D01*
X2812Y1654D02*
X2829Y1654D01*
X2878Y1654D02*
X2896Y1654D01*
X2912Y1654D02*
X2929Y1654D01*
X2978Y1654D02*
X2996Y1654D01*
X3012Y1654D02*
X3029Y1654D01*
X3078Y1654D02*
X3096Y1654D01*
X3112Y1654D02*
X3129Y1654D01*
X2478Y1653D02*
X2494Y1653D01*
X2514Y1653D02*
X2529Y1653D01*
X2578Y1653D02*
X2594Y1653D01*
X2614Y1653D02*
X2629Y1653D01*
X2678Y1653D02*
X2694Y1653D01*
X2714Y1653D02*
X2729Y1653D01*
X2778Y1653D02*
X2794Y1653D01*
X2814Y1653D02*
X2829Y1653D01*
X2878Y1653D02*
X2894Y1653D01*
X2914Y1653D02*
X2929Y1653D01*
X2978Y1653D02*
X2994Y1653D01*
X3014Y1653D02*
X3029Y1653D01*
X3078Y1653D02*
X3094Y1653D01*
X3114Y1653D02*
X3129Y1653D01*
X2478Y1652D02*
X2493Y1652D01*
X2515Y1652D02*
X2529Y1652D01*
X2578Y1652D02*
X2593Y1652D01*
X2615Y1652D02*
X2629Y1652D01*
X2678Y1652D02*
X2693Y1652D01*
X2715Y1652D02*
X2729Y1652D01*
X2778Y1652D02*
X2793Y1652D01*
X2815Y1652D02*
X2829Y1652D01*
X2878Y1652D02*
X2893Y1652D01*
X2915Y1652D02*
X2929Y1652D01*
X2978Y1652D02*
X2993Y1652D01*
X3015Y1652D02*
X3029Y1652D01*
X3078Y1652D02*
X3093Y1652D01*
X3115Y1652D02*
X3129Y1652D01*
X2478Y1651D02*
X2492Y1651D01*
X2516Y1651D02*
X2529Y1651D01*
X2578Y1651D02*
X2592Y1651D01*
X2616Y1651D02*
X2629Y1651D01*
X2678Y1651D02*
X2692Y1651D01*
X2716Y1651D02*
X2729Y1651D01*
X2778Y1651D02*
X2792Y1651D01*
X2816Y1651D02*
X2829Y1651D01*
X2878Y1651D02*
X2892Y1651D01*
X2916Y1651D02*
X2929Y1651D01*
X2978Y1651D02*
X2992Y1651D01*
X3016Y1651D02*
X3029Y1651D01*
X3078Y1651D02*
X3092Y1651D01*
X3116Y1651D02*
X3129Y1651D01*
X2478Y1650D02*
X2491Y1650D01*
X2517Y1650D02*
X2529Y1650D01*
X2578Y1650D02*
X2591Y1650D01*
X2617Y1650D02*
X2629Y1650D01*
X2678Y1650D02*
X2691Y1650D01*
X2717Y1650D02*
X2729Y1650D01*
X2778Y1650D02*
X2791Y1650D01*
X2817Y1650D02*
X2829Y1650D01*
X2878Y1650D02*
X2891Y1650D01*
X2917Y1650D02*
X2929Y1650D01*
X2978Y1650D02*
X2991Y1650D01*
X3017Y1650D02*
X3029Y1650D01*
X3078Y1650D02*
X3091Y1650D01*
X3117Y1650D02*
X3129Y1650D01*
X2478Y1649D02*
X2490Y1649D01*
X2518Y1649D02*
X2529Y1649D01*
X2578Y1649D02*
X2590Y1649D01*
X2618Y1649D02*
X2629Y1649D01*
X2678Y1649D02*
X2690Y1649D01*
X2718Y1649D02*
X2729Y1649D01*
X2778Y1649D02*
X2790Y1649D01*
X2818Y1649D02*
X2829Y1649D01*
X2878Y1649D02*
X2890Y1649D01*
X2918Y1649D02*
X2929Y1649D01*
X2978Y1649D02*
X2990Y1649D01*
X3018Y1649D02*
X3029Y1649D01*
X3078Y1649D02*
X3090Y1649D01*
X3118Y1649D02*
X3129Y1649D01*
X2478Y1648D02*
X2490Y1648D01*
X2518Y1648D02*
X2529Y1648D01*
X2578Y1648D02*
X2590Y1648D01*
X2618Y1648D02*
X2629Y1648D01*
X2678Y1648D02*
X2690Y1648D01*
X2718Y1648D02*
X2729Y1648D01*
X2778Y1648D02*
X2790Y1648D01*
X2818Y1648D02*
X2829Y1648D01*
X2878Y1648D02*
X2890Y1648D01*
X2918Y1648D02*
X2929Y1648D01*
X2978Y1648D02*
X2990Y1648D01*
X3018Y1648D02*
X3029Y1648D01*
X3078Y1648D02*
X3090Y1648D01*
X3118Y1648D02*
X3129Y1648D01*
X2478Y1647D02*
X2489Y1647D01*
X2519Y1647D02*
X2529Y1647D01*
X2578Y1647D02*
X2589Y1647D01*
X2619Y1647D02*
X2629Y1647D01*
X2678Y1647D02*
X2689Y1647D01*
X2719Y1647D02*
X2729Y1647D01*
X2778Y1647D02*
X2789Y1647D01*
X2819Y1647D02*
X2829Y1647D01*
X2878Y1647D02*
X2889Y1647D01*
X2919Y1647D02*
X2929Y1647D01*
X2978Y1647D02*
X2989Y1647D01*
X3019Y1647D02*
X3029Y1647D01*
X3078Y1647D02*
X3089Y1647D01*
X3119Y1647D02*
X3129Y1647D01*
X2478Y1646D02*
X2489Y1646D01*
X2519Y1646D02*
X2529Y1646D01*
X2578Y1646D02*
X2589Y1646D01*
X2619Y1646D02*
X2629Y1646D01*
X2678Y1646D02*
X2689Y1646D01*
X2719Y1646D02*
X2729Y1646D01*
X2778Y1646D02*
X2789Y1646D01*
X2819Y1646D02*
X2829Y1646D01*
X2878Y1646D02*
X2889Y1646D01*
X2919Y1646D02*
X2929Y1646D01*
X2978Y1646D02*
X2989Y1646D01*
X3019Y1646D02*
X3029Y1646D01*
X3078Y1646D02*
X3089Y1646D01*
X3119Y1646D02*
X3129Y1646D01*
X2478Y1645D02*
X2488Y1645D01*
X2520Y1645D02*
X2529Y1645D01*
X2578Y1645D02*
X2588Y1645D01*
X2620Y1645D02*
X2629Y1645D01*
X2678Y1645D02*
X2688Y1645D01*
X2720Y1645D02*
X2729Y1645D01*
X2778Y1645D02*
X2788Y1645D01*
X2820Y1645D02*
X2829Y1645D01*
X2878Y1645D02*
X2888Y1645D01*
X2920Y1645D02*
X2929Y1645D01*
X2978Y1645D02*
X2988Y1645D01*
X3020Y1645D02*
X3029Y1645D01*
X3078Y1645D02*
X3088Y1645D01*
X3120Y1645D02*
X3129Y1645D01*
X2478Y1644D02*
X2488Y1644D01*
X2520Y1644D02*
X2529Y1644D01*
X2578Y1644D02*
X2588Y1644D01*
X2620Y1644D02*
X2629Y1644D01*
X2678Y1644D02*
X2688Y1644D01*
X2720Y1644D02*
X2729Y1644D01*
X2778Y1644D02*
X2788Y1644D01*
X2820Y1644D02*
X2829Y1644D01*
X2878Y1644D02*
X2888Y1644D01*
X2920Y1644D02*
X2929Y1644D01*
X2978Y1644D02*
X2988Y1644D01*
X3020Y1644D02*
X3029Y1644D01*
X3078Y1644D02*
X3088Y1644D01*
X3120Y1644D02*
X3129Y1644D01*
X2478Y1643D02*
X2488Y1643D01*
X2520Y1643D02*
X2529Y1643D01*
X2578Y1643D02*
X2588Y1643D01*
X2620Y1643D02*
X2629Y1643D01*
X2678Y1643D02*
X2688Y1643D01*
X2720Y1643D02*
X2729Y1643D01*
X2778Y1643D02*
X2788Y1643D01*
X2820Y1643D02*
X2829Y1643D01*
X2878Y1643D02*
X2888Y1643D01*
X2920Y1643D02*
X2929Y1643D01*
X2978Y1643D02*
X2988Y1643D01*
X3020Y1643D02*
X3029Y1643D01*
X3078Y1643D02*
X3088Y1643D01*
X3120Y1643D02*
X3129Y1643D01*
X2478Y1642D02*
X2488Y1642D01*
X2520Y1642D02*
X2529Y1642D01*
X2578Y1642D02*
X2588Y1642D01*
X2620Y1642D02*
X2629Y1642D01*
X2678Y1642D02*
X2688Y1642D01*
X2720Y1642D02*
X2729Y1642D01*
X2778Y1642D02*
X2788Y1642D01*
X2820Y1642D02*
X2829Y1642D01*
X2878Y1642D02*
X2888Y1642D01*
X2920Y1642D02*
X2929Y1642D01*
X2978Y1642D02*
X2988Y1642D01*
X3020Y1642D02*
X3029Y1642D01*
X3078Y1642D02*
X3088Y1642D01*
X3120Y1642D02*
X3129Y1642D01*
X2478Y1641D02*
X2488Y1641D01*
X2520Y1641D02*
X2529Y1641D01*
X2578Y1641D02*
X2588Y1641D01*
X2620Y1641D02*
X2629Y1641D01*
X2678Y1641D02*
X2688Y1641D01*
X2720Y1641D02*
X2729Y1641D01*
X2778Y1641D02*
X2788Y1641D01*
X2820Y1641D02*
X2829Y1641D01*
X2878Y1641D02*
X2888Y1641D01*
X2920Y1641D02*
X2929Y1641D01*
X2978Y1641D02*
X2988Y1641D01*
X3020Y1641D02*
X3029Y1641D01*
X3078Y1641D02*
X3088Y1641D01*
X3120Y1641D02*
X3129Y1641D01*
X2478Y1640D02*
X2487Y1640D01*
X2520Y1640D02*
X2529Y1640D01*
X2578Y1640D02*
X2587Y1640D01*
X2620Y1640D02*
X2629Y1640D01*
X2678Y1640D02*
X2687Y1640D01*
X2720Y1640D02*
X2729Y1640D01*
X2778Y1640D02*
X2787Y1640D01*
X2820Y1640D02*
X2829Y1640D01*
X2878Y1640D02*
X2887Y1640D01*
X2920Y1640D02*
X2929Y1640D01*
X2978Y1640D02*
X2987Y1640D01*
X3020Y1640D02*
X3029Y1640D01*
X3078Y1640D02*
X3087Y1640D01*
X3120Y1640D02*
X3129Y1640D01*
X2478Y1639D02*
X2488Y1639D01*
X2520Y1639D02*
X2529Y1639D01*
X2578Y1639D02*
X2588Y1639D01*
X2620Y1639D02*
X2629Y1639D01*
X2678Y1639D02*
X2688Y1639D01*
X2720Y1639D02*
X2729Y1639D01*
X2778Y1639D02*
X2788Y1639D01*
X2820Y1639D02*
X2829Y1639D01*
X2878Y1639D02*
X2888Y1639D01*
X2920Y1639D02*
X2929Y1639D01*
X2978Y1639D02*
X2988Y1639D01*
X3020Y1639D02*
X3029Y1639D01*
X3078Y1639D02*
X3088Y1639D01*
X3120Y1639D02*
X3129Y1639D01*
X2478Y1638D02*
X2488Y1638D01*
X2520Y1638D02*
X2529Y1638D01*
X2578Y1638D02*
X2588Y1638D01*
X2620Y1638D02*
X2629Y1638D01*
X2678Y1638D02*
X2688Y1638D01*
X2720Y1638D02*
X2729Y1638D01*
X2778Y1638D02*
X2788Y1638D01*
X2820Y1638D02*
X2829Y1638D01*
X2878Y1638D02*
X2888Y1638D01*
X2920Y1638D02*
X2929Y1638D01*
X2978Y1638D02*
X2988Y1638D01*
X3020Y1638D02*
X3029Y1638D01*
X3078Y1638D02*
X3088Y1638D01*
X3120Y1638D02*
X3129Y1638D01*
X2478Y1637D02*
X2488Y1637D01*
X2520Y1637D02*
X2529Y1637D01*
X2578Y1637D02*
X2588Y1637D01*
X2620Y1637D02*
X2629Y1637D01*
X2678Y1637D02*
X2688Y1637D01*
X2720Y1637D02*
X2729Y1637D01*
X2778Y1637D02*
X2788Y1637D01*
X2820Y1637D02*
X2829Y1637D01*
X2878Y1637D02*
X2888Y1637D01*
X2920Y1637D02*
X2929Y1637D01*
X2978Y1637D02*
X2988Y1637D01*
X3020Y1637D02*
X3029Y1637D01*
X3078Y1637D02*
X3088Y1637D01*
X3120Y1637D02*
X3129Y1637D01*
X2478Y1636D02*
X2488Y1636D01*
X2520Y1636D02*
X2529Y1636D01*
X2578Y1636D02*
X2588Y1636D01*
X2620Y1636D02*
X2629Y1636D01*
X2678Y1636D02*
X2688Y1636D01*
X2720Y1636D02*
X2729Y1636D01*
X2778Y1636D02*
X2788Y1636D01*
X2820Y1636D02*
X2829Y1636D01*
X2878Y1636D02*
X2888Y1636D01*
X2920Y1636D02*
X2929Y1636D01*
X2978Y1636D02*
X2988Y1636D01*
X3020Y1636D02*
X3029Y1636D01*
X3078Y1636D02*
X3088Y1636D01*
X3120Y1636D02*
X3129Y1636D01*
X2478Y1635D02*
X2488Y1635D01*
X2520Y1635D02*
X2529Y1635D01*
X2578Y1635D02*
X2588Y1635D01*
X2620Y1635D02*
X2629Y1635D01*
X2678Y1635D02*
X2688Y1635D01*
X2720Y1635D02*
X2729Y1635D01*
X2778Y1635D02*
X2788Y1635D01*
X2820Y1635D02*
X2829Y1635D01*
X2878Y1635D02*
X2888Y1635D01*
X2920Y1635D02*
X2929Y1635D01*
X2978Y1635D02*
X2988Y1635D01*
X3020Y1635D02*
X3029Y1635D01*
X3078Y1635D02*
X3088Y1635D01*
X3119Y1635D02*
X3129Y1635D01*
X2478Y1634D02*
X2489Y1634D01*
X2519Y1634D02*
X2529Y1634D01*
X2578Y1634D02*
X2589Y1634D01*
X2619Y1634D02*
X2629Y1634D01*
X2678Y1634D02*
X2689Y1634D01*
X2719Y1634D02*
X2729Y1634D01*
X2778Y1634D02*
X2789Y1634D01*
X2819Y1634D02*
X2829Y1634D01*
X2878Y1634D02*
X2889Y1634D01*
X2919Y1634D02*
X2929Y1634D01*
X2978Y1634D02*
X2989Y1634D01*
X3019Y1634D02*
X3029Y1634D01*
X3078Y1634D02*
X3089Y1634D01*
X3119Y1634D02*
X3129Y1634D01*
X2478Y1633D02*
X2489Y1633D01*
X2519Y1633D02*
X2529Y1633D01*
X2578Y1633D02*
X2589Y1633D01*
X2619Y1633D02*
X2629Y1633D01*
X2678Y1633D02*
X2689Y1633D01*
X2719Y1633D02*
X2729Y1633D01*
X2778Y1633D02*
X2789Y1633D01*
X2819Y1633D02*
X2829Y1633D01*
X2878Y1633D02*
X2889Y1633D01*
X2919Y1633D02*
X2929Y1633D01*
X2978Y1633D02*
X2989Y1633D01*
X3019Y1633D02*
X3029Y1633D01*
X3078Y1633D02*
X3089Y1633D01*
X3119Y1633D02*
X3129Y1633D01*
X2478Y1632D02*
X2490Y1632D01*
X2518Y1632D02*
X2529Y1632D01*
X2578Y1632D02*
X2590Y1632D01*
X2618Y1632D02*
X2629Y1632D01*
X2678Y1632D02*
X2690Y1632D01*
X2718Y1632D02*
X2729Y1632D01*
X2778Y1632D02*
X2790Y1632D01*
X2818Y1632D02*
X2829Y1632D01*
X2878Y1632D02*
X2890Y1632D01*
X2918Y1632D02*
X2929Y1632D01*
X2978Y1632D02*
X2990Y1632D01*
X3018Y1632D02*
X3029Y1632D01*
X3078Y1632D02*
X3090Y1632D01*
X3118Y1632D02*
X3129Y1632D01*
X2478Y1631D02*
X2490Y1631D01*
X2518Y1631D02*
X2529Y1631D01*
X2578Y1631D02*
X2590Y1631D01*
X2618Y1631D02*
X2629Y1631D01*
X2678Y1631D02*
X2690Y1631D01*
X2718Y1631D02*
X2729Y1631D01*
X2778Y1631D02*
X2790Y1631D01*
X2818Y1631D02*
X2829Y1631D01*
X2878Y1631D02*
X2890Y1631D01*
X2918Y1631D02*
X2929Y1631D01*
X2978Y1631D02*
X2990Y1631D01*
X3018Y1631D02*
X3029Y1631D01*
X3078Y1631D02*
X3090Y1631D01*
X3118Y1631D02*
X3129Y1631D01*
X2478Y1630D02*
X2491Y1630D01*
X2517Y1630D02*
X2529Y1630D01*
X2578Y1630D02*
X2591Y1630D01*
X2617Y1630D02*
X2629Y1630D01*
X2678Y1630D02*
X2691Y1630D01*
X2717Y1630D02*
X2729Y1630D01*
X2778Y1630D02*
X2791Y1630D01*
X2817Y1630D02*
X2829Y1630D01*
X2878Y1630D02*
X2891Y1630D01*
X2917Y1630D02*
X2929Y1630D01*
X2978Y1630D02*
X2991Y1630D01*
X3017Y1630D02*
X3029Y1630D01*
X3078Y1630D02*
X3091Y1630D01*
X3117Y1630D02*
X3129Y1630D01*
X2478Y1629D02*
X2492Y1629D01*
X2516Y1629D02*
X2529Y1629D01*
X2578Y1629D02*
X2592Y1629D01*
X2616Y1629D02*
X2629Y1629D01*
X2678Y1629D02*
X2692Y1629D01*
X2716Y1629D02*
X2729Y1629D01*
X2778Y1629D02*
X2792Y1629D01*
X2816Y1629D02*
X2829Y1629D01*
X2878Y1629D02*
X2892Y1629D01*
X2916Y1629D02*
X2929Y1629D01*
X2978Y1629D02*
X2992Y1629D01*
X3016Y1629D02*
X3029Y1629D01*
X3078Y1629D02*
X3092Y1629D01*
X3116Y1629D02*
X3129Y1629D01*
X2478Y1628D02*
X2493Y1628D01*
X2515Y1628D02*
X2529Y1628D01*
X2578Y1628D02*
X2593Y1628D01*
X2615Y1628D02*
X2629Y1628D01*
X2678Y1628D02*
X2693Y1628D01*
X2715Y1628D02*
X2729Y1628D01*
X2778Y1628D02*
X2793Y1628D01*
X2815Y1628D02*
X2829Y1628D01*
X2878Y1628D02*
X2893Y1628D01*
X2915Y1628D02*
X2929Y1628D01*
X2978Y1628D02*
X2993Y1628D01*
X3015Y1628D02*
X3029Y1628D01*
X3078Y1628D02*
X3093Y1628D01*
X3115Y1628D02*
X3129Y1628D01*
X2478Y1627D02*
X2494Y1627D01*
X2514Y1627D02*
X2529Y1627D01*
X2578Y1627D02*
X2594Y1627D01*
X2614Y1627D02*
X2629Y1627D01*
X2678Y1627D02*
X2694Y1627D01*
X2714Y1627D02*
X2729Y1627D01*
X2778Y1627D02*
X2794Y1627D01*
X2814Y1627D02*
X2829Y1627D01*
X2878Y1627D02*
X2894Y1627D01*
X2914Y1627D02*
X2929Y1627D01*
X2978Y1627D02*
X2994Y1627D01*
X3014Y1627D02*
X3029Y1627D01*
X3078Y1627D02*
X3094Y1627D01*
X3114Y1627D02*
X3129Y1627D01*
X2478Y1626D02*
X2496Y1626D01*
X2512Y1626D02*
X2529Y1626D01*
X2578Y1626D02*
X2596Y1626D01*
X2612Y1626D02*
X2629Y1626D01*
X2678Y1626D02*
X2696Y1626D01*
X2712Y1626D02*
X2729Y1626D01*
X2778Y1626D02*
X2796Y1626D01*
X2812Y1626D02*
X2829Y1626D01*
X2878Y1626D02*
X2896Y1626D01*
X2912Y1626D02*
X2929Y1626D01*
X2978Y1626D02*
X2996Y1626D01*
X3012Y1626D02*
X3029Y1626D01*
X3078Y1626D02*
X3096Y1626D01*
X3112Y1626D02*
X3129Y1626D01*
X2478Y1625D02*
X2498Y1625D01*
X2510Y1625D02*
X2529Y1625D01*
X2578Y1625D02*
X2598Y1625D01*
X2610Y1625D02*
X2629Y1625D01*
X2678Y1625D02*
X2698Y1625D01*
X2710Y1625D02*
X2729Y1625D01*
X2778Y1625D02*
X2798Y1625D01*
X2810Y1625D02*
X2829Y1625D01*
X2878Y1625D02*
X2898Y1625D01*
X2910Y1625D02*
X2929Y1625D01*
X2978Y1625D02*
X2998Y1625D01*
X3010Y1625D02*
X3029Y1625D01*
X3078Y1625D02*
X3098Y1625D01*
X3110Y1625D02*
X3129Y1625D01*
X2478Y1624D02*
X2529Y1624D01*
X2578Y1624D02*
X2629Y1624D01*
X2678Y1624D02*
X2729Y1624D01*
X2778Y1624D02*
X2829Y1624D01*
X2878Y1624D02*
X2929Y1624D01*
X2978Y1624D02*
X3029Y1624D01*
X3078Y1624D02*
X3129Y1624D01*
X2478Y1623D02*
X2529Y1623D01*
X2578Y1623D02*
X2629Y1623D01*
X2678Y1623D02*
X2729Y1623D01*
X2778Y1623D02*
X2829Y1623D01*
X2878Y1623D02*
X2929Y1623D01*
X2978Y1623D02*
X3029Y1623D01*
X3078Y1623D02*
X3129Y1623D01*
X2478Y1622D02*
X2529Y1622D01*
X2578Y1622D02*
X2629Y1622D01*
X2678Y1622D02*
X2729Y1622D01*
X2778Y1622D02*
X2829Y1622D01*
X2878Y1622D02*
X2929Y1622D01*
X2978Y1622D02*
X3029Y1622D01*
X3078Y1622D02*
X3129Y1622D01*
X2478Y1621D02*
X2529Y1621D01*
X2578Y1621D02*
X2629Y1621D01*
X2678Y1621D02*
X2729Y1621D01*
X2778Y1621D02*
X2829Y1621D01*
X2878Y1621D02*
X2929Y1621D01*
X2978Y1621D02*
X3029Y1621D01*
X3078Y1621D02*
X3129Y1621D01*
X2478Y1620D02*
X2529Y1620D01*
X2578Y1620D02*
X2629Y1620D01*
X2678Y1620D02*
X2729Y1620D01*
X2778Y1620D02*
X2829Y1620D01*
X2878Y1620D02*
X2929Y1620D01*
X2978Y1620D02*
X3029Y1620D01*
X3078Y1620D02*
X3129Y1620D01*
X2478Y1619D02*
X2529Y1619D01*
X2578Y1619D02*
X2629Y1619D01*
X2678Y1619D02*
X2729Y1619D01*
X2778Y1619D02*
X2829Y1619D01*
X2878Y1619D02*
X2929Y1619D01*
X2978Y1619D02*
X3029Y1619D01*
X3078Y1619D02*
X3129Y1619D01*
X2478Y1618D02*
X2529Y1618D01*
X2578Y1618D02*
X2629Y1618D01*
X2678Y1618D02*
X2729Y1618D01*
X2778Y1618D02*
X2829Y1618D01*
X2878Y1618D02*
X2929Y1618D01*
X2978Y1618D02*
X3029Y1618D01*
X3078Y1618D02*
X3129Y1618D01*
X2478Y1617D02*
X2529Y1617D01*
X2578Y1617D02*
X2629Y1617D01*
X2678Y1617D02*
X2729Y1617D01*
X2778Y1617D02*
X2829Y1617D01*
X2878Y1617D02*
X2929Y1617D01*
X2978Y1617D02*
X3029Y1617D01*
X3078Y1617D02*
X3129Y1617D01*
X2478Y1616D02*
X2529Y1616D01*
X2578Y1616D02*
X2629Y1616D01*
X2678Y1616D02*
X2729Y1616D01*
X2778Y1616D02*
X2829Y1616D01*
X2878Y1616D02*
X2929Y1616D01*
X2978Y1616D02*
X3029Y1616D01*
X3078Y1616D02*
X3129Y1616D01*
X2478Y1615D02*
X2529Y1615D01*
X2578Y1615D02*
X2629Y1615D01*
X2678Y1615D02*
X2729Y1615D01*
X2778Y1615D02*
X2829Y1615D01*
X2878Y1615D02*
X2929Y1615D01*
X2978Y1615D02*
X3029Y1615D01*
X3078Y1615D02*
X3129Y1615D01*
X2478Y1614D02*
X2529Y1614D01*
X2578Y1614D02*
X2629Y1614D01*
X2678Y1614D02*
X2729Y1614D01*
X2778Y1614D02*
X2829Y1614D01*
X2878Y1614D02*
X2929Y1614D01*
X2978Y1614D02*
X3029Y1614D01*
X3078Y1614D02*
X3129Y1614D01*
X2479Y1613D02*
X2529Y1613D01*
X2579Y1613D02*
X2629Y1613D01*
X2678Y1613D02*
X2729Y1613D01*
X2778Y1613D02*
X2829Y1613D01*
X2878Y1613D02*
X2929Y1613D01*
X2978Y1613D02*
X3029Y1613D01*
X3078Y1613D02*
X3129Y1613D01*
X2479Y1612D02*
X2529Y1612D01*
X2579Y1612D02*
X2629Y1612D01*
X2679Y1612D02*
X2729Y1612D01*
X2779Y1612D02*
X2829Y1612D01*
X2879Y1612D02*
X2929Y1612D01*
X2979Y1612D02*
X3029Y1612D01*
X3079Y1612D02*
X3129Y1612D01*
X2479Y1611D02*
X2529Y1611D01*
X2579Y1611D02*
X2629Y1611D01*
X2679Y1611D02*
X2729Y1611D01*
X2779Y1611D02*
X2829Y1611D01*
X2879Y1611D02*
X2929Y1611D01*
X2979Y1611D02*
X3029Y1611D01*
X3079Y1611D02*
X3129Y1611D01*
X2479Y1610D02*
X2529Y1610D01*
X2579Y1610D02*
X2629Y1610D01*
X2679Y1610D02*
X2729Y1610D01*
X2779Y1610D02*
X2829Y1610D01*
X2879Y1610D02*
X2929Y1610D01*
X2979Y1610D02*
X3029Y1610D01*
X3079Y1610D02*
X3129Y1610D01*
X2479Y1609D02*
X2529Y1609D01*
X2579Y1609D02*
X2629Y1609D01*
X2679Y1609D02*
X2729Y1609D01*
X2779Y1609D02*
X2829Y1609D01*
X2879Y1609D02*
X2929Y1609D01*
X2979Y1609D02*
X3029Y1609D01*
X3079Y1609D02*
X3129Y1609D01*
X2479Y1608D02*
X2529Y1608D01*
X2579Y1608D02*
X2629Y1608D01*
X2679Y1608D02*
X2729Y1608D01*
X2779Y1608D02*
X2829Y1608D01*
X2879Y1608D02*
X2929Y1608D01*
X2979Y1608D02*
X3029Y1608D01*
X3079Y1608D02*
X3129Y1608D01*
X2479Y1607D02*
X2528Y1607D01*
X2579Y1607D02*
X2628Y1607D01*
X2679Y1607D02*
X2728Y1607D01*
X2779Y1607D02*
X2828Y1607D01*
X2879Y1607D02*
X2928Y1607D01*
X2979Y1607D02*
X3028Y1607D01*
X3079Y1607D02*
X3128Y1607D01*
X2480Y1606D02*
X2528Y1606D01*
X2580Y1606D02*
X2628Y1606D01*
X2680Y1606D02*
X2728Y1606D01*
X2780Y1606D02*
X2828Y1606D01*
X2880Y1606D02*
X2928Y1606D01*
X2980Y1606D02*
X3028Y1606D01*
X3080Y1606D02*
X3128Y1606D01*
X2480Y1605D02*
X2528Y1605D01*
X2580Y1605D02*
X2628Y1605D01*
X2680Y1605D02*
X2728Y1605D01*
X2780Y1605D02*
X2828Y1605D01*
X2880Y1605D02*
X2928Y1605D01*
X2980Y1605D02*
X3028Y1605D01*
X3080Y1605D02*
X3128Y1605D01*
X2480Y1604D02*
X2527Y1604D01*
X2580Y1604D02*
X2627Y1604D01*
X2680Y1604D02*
X2727Y1604D01*
X2780Y1604D02*
X2827Y1604D01*
X2880Y1604D02*
X2927Y1604D01*
X2980Y1604D02*
X3027Y1604D01*
X3080Y1604D02*
X3127Y1604D01*
X2481Y1603D02*
X2527Y1603D01*
X2581Y1603D02*
X2627Y1603D01*
X2681Y1603D02*
X2727Y1603D01*
X2781Y1603D02*
X2827Y1603D01*
X2881Y1603D02*
X2927Y1603D01*
X2981Y1603D02*
X3027Y1603D01*
X3081Y1603D02*
X3127Y1603D01*
X2482Y1602D02*
X2526Y1602D01*
X2582Y1602D02*
X2626Y1602D01*
X2682Y1602D02*
X2726Y1602D01*
X2782Y1602D02*
X2826Y1602D01*
X2882Y1602D02*
X2926Y1602D01*
X2982Y1602D02*
X3026Y1602D01*
X3082Y1602D02*
X3126Y1602D01*
X2482Y1601D02*
X2526Y1601D01*
X2582Y1601D02*
X2626Y1601D01*
X2682Y1601D02*
X2726Y1601D01*
X2782Y1601D02*
X2826Y1601D01*
X2882Y1601D02*
X2926Y1601D01*
X2982Y1601D02*
X3026Y1601D01*
X3082Y1601D02*
X3126Y1601D01*
X2483Y1600D02*
X2525Y1600D01*
X2583Y1600D02*
X2625Y1600D01*
X2683Y1600D02*
X2725Y1600D01*
X2783Y1600D02*
X2825Y1600D01*
X2883Y1600D02*
X2925Y1600D01*
X2983Y1600D02*
X3025Y1600D01*
X3083Y1600D02*
X3125Y1600D01*
X2483Y1599D02*
X2525Y1599D01*
X2583Y1599D02*
X2625Y1599D01*
X2683Y1599D02*
X2725Y1599D01*
X2783Y1599D02*
X2825Y1599D01*
X2883Y1599D02*
X2925Y1599D01*
X2983Y1599D02*
X3025Y1599D01*
X3083Y1599D02*
X3125Y1599D01*
X2484Y1598D02*
X2524Y1598D01*
X2584Y1598D02*
X2624Y1598D01*
X2684Y1598D02*
X2724Y1598D01*
X2784Y1598D02*
X2824Y1598D01*
X2884Y1598D02*
X2924Y1598D01*
X2984Y1598D02*
X3024Y1598D01*
X3084Y1598D02*
X3124Y1598D01*
X2485Y1597D02*
X2523Y1597D01*
X2585Y1597D02*
X2623Y1597D01*
X2685Y1597D02*
X2723Y1597D01*
X2785Y1597D02*
X2823Y1597D01*
X2885Y1597D02*
X2923Y1597D01*
X2985Y1597D02*
X3023Y1597D01*
X3085Y1597D02*
X3123Y1597D01*
X2486Y1596D02*
X2522Y1596D01*
X2586Y1596D02*
X2622Y1596D01*
X2686Y1596D02*
X2722Y1596D01*
X2786Y1596D02*
X2822Y1596D01*
X2886Y1596D02*
X2922Y1596D01*
X2986Y1596D02*
X3022Y1596D01*
X3086Y1596D02*
X3122Y1596D01*
X2487Y1595D02*
X2521Y1595D01*
X2587Y1595D02*
X2621Y1595D01*
X2687Y1595D02*
X2721Y1595D01*
X2787Y1595D02*
X2821Y1595D01*
X2887Y1595D02*
X2921Y1595D01*
X2987Y1595D02*
X3021Y1595D01*
X3087Y1595D02*
X3121Y1595D01*
X2488Y1594D02*
X2520Y1594D01*
X2588Y1594D02*
X2620Y1594D01*
X2688Y1594D02*
X2720Y1594D01*
X2788Y1594D02*
X2820Y1594D01*
X2888Y1594D02*
X2920Y1594D01*
X2988Y1594D02*
X3020Y1594D01*
X3088Y1594D02*
X3120Y1594D01*
X2489Y1593D02*
X2519Y1593D01*
X2589Y1593D02*
X2619Y1593D01*
X2689Y1593D02*
X2719Y1593D01*
X2789Y1593D02*
X2819Y1593D01*
X2889Y1593D02*
X2919Y1593D01*
X2989Y1593D02*
X3019Y1593D01*
X3089Y1593D02*
X3119Y1593D01*
X2491Y1592D02*
X2517Y1592D01*
X2591Y1592D02*
X2617Y1592D01*
X2691Y1592D02*
X2717Y1592D01*
X2791Y1592D02*
X2817Y1592D01*
X2891Y1592D02*
X2917Y1592D01*
X2991Y1592D02*
X3017Y1592D01*
X3091Y1592D02*
X3117Y1592D01*
X2493Y1591D02*
X2515Y1591D01*
X2593Y1591D02*
X2615Y1591D01*
X2693Y1591D02*
X2715Y1591D01*
X2793Y1591D02*
X2815Y1591D01*
X2893Y1591D02*
X2915Y1591D01*
X2993Y1591D02*
X3015Y1591D01*
X3093Y1591D02*
X3115Y1591D01*
X2495Y1590D02*
X2513Y1590D01*
X2595Y1590D02*
X2613Y1590D01*
X2695Y1590D02*
X2713Y1590D01*
X2795Y1590D02*
X2813Y1590D01*
X2895Y1590D02*
X2913Y1590D01*
X2995Y1590D02*
X3013Y1590D01*
X3095Y1590D02*
X3113Y1590D01*
X2498Y1589D02*
X2510Y1589D01*
X2598Y1589D02*
X2610Y1589D01*
X2698Y1589D02*
X2710Y1589D01*
X2798Y1589D02*
X2810Y1589D01*
X2898Y1589D02*
X2910Y1589D01*
X2998Y1589D02*
X3010Y1589D01*
X3098Y1589D02*
X3110Y1589D01*
X2502Y1392D02*
X2506Y1392D01*
X2602Y1392D02*
X2606Y1392D01*
X2702Y1392D02*
X2706Y1392D01*
X2802Y1392D02*
X2806Y1392D01*
X2902Y1392D02*
X2905Y1392D01*
X3002Y1392D02*
X3005Y1392D01*
X3102Y1392D02*
X3105Y1392D01*
X2497Y1391D02*
X2511Y1391D01*
X2597Y1391D02*
X2611Y1391D01*
X2697Y1391D02*
X2711Y1391D01*
X2797Y1391D02*
X2811Y1391D01*
X2897Y1391D02*
X2911Y1391D01*
X2997Y1391D02*
X3011Y1391D01*
X3097Y1391D02*
X3111Y1391D01*
X2494Y1390D02*
X2514Y1390D01*
X2594Y1390D02*
X2614Y1390D01*
X2694Y1390D02*
X2714Y1390D01*
X2794Y1390D02*
X2814Y1390D01*
X2894Y1390D02*
X2914Y1390D01*
X2994Y1390D02*
X3014Y1390D01*
X3094Y1390D02*
X3114Y1390D01*
X2492Y1389D02*
X2516Y1389D01*
X2592Y1389D02*
X2616Y1389D01*
X2692Y1389D02*
X2716Y1389D01*
X2792Y1389D02*
X2815Y1389D01*
X2892Y1389D02*
X2915Y1389D01*
X2992Y1389D02*
X3015Y1389D01*
X3092Y1389D02*
X3115Y1389D01*
X2491Y1388D02*
X2517Y1388D01*
X2591Y1388D02*
X2617Y1388D01*
X2691Y1388D02*
X2717Y1388D01*
X2791Y1388D02*
X2817Y1388D01*
X2891Y1388D02*
X2917Y1388D01*
X2991Y1388D02*
X3017Y1388D01*
X3090Y1388D02*
X3117Y1388D01*
X2489Y1387D02*
X2519Y1387D01*
X2589Y1387D02*
X2619Y1387D01*
X2689Y1387D02*
X2719Y1387D01*
X2789Y1387D02*
X2819Y1387D01*
X2889Y1387D02*
X2919Y1387D01*
X2989Y1387D02*
X3019Y1387D01*
X3089Y1387D02*
X3119Y1387D01*
X2488Y1386D02*
X2520Y1386D01*
X2588Y1386D02*
X2620Y1386D01*
X2688Y1386D02*
X2720Y1386D01*
X2788Y1386D02*
X2820Y1386D01*
X2888Y1386D02*
X2920Y1386D01*
X2988Y1386D02*
X3020Y1386D01*
X3088Y1386D02*
X3120Y1386D01*
X2487Y1385D02*
X2521Y1385D01*
X2587Y1385D02*
X2621Y1385D01*
X2687Y1385D02*
X2721Y1385D01*
X2787Y1385D02*
X2821Y1385D01*
X2887Y1385D02*
X2921Y1385D01*
X2987Y1385D02*
X3021Y1385D01*
X3087Y1385D02*
X3121Y1385D01*
X2486Y1384D02*
X2522Y1384D01*
X2586Y1384D02*
X2622Y1384D01*
X2686Y1384D02*
X2722Y1384D01*
X2786Y1384D02*
X2822Y1384D01*
X2886Y1384D02*
X2922Y1384D01*
X2986Y1384D02*
X3022Y1384D01*
X3086Y1384D02*
X3122Y1384D01*
X2485Y1383D02*
X2523Y1383D01*
X2585Y1383D02*
X2623Y1383D01*
X2685Y1383D02*
X2723Y1383D01*
X2785Y1383D02*
X2823Y1383D01*
X2885Y1383D02*
X2923Y1383D01*
X2985Y1383D02*
X3023Y1383D01*
X3085Y1383D02*
X3123Y1383D01*
X2484Y1382D02*
X2524Y1382D01*
X2584Y1382D02*
X2624Y1382D01*
X2684Y1382D02*
X2724Y1382D01*
X2784Y1382D02*
X2824Y1382D01*
X2884Y1382D02*
X2924Y1382D01*
X2984Y1382D02*
X3024Y1382D01*
X3084Y1382D02*
X3124Y1382D01*
X2483Y1381D02*
X2525Y1381D01*
X2583Y1381D02*
X2625Y1381D01*
X2683Y1381D02*
X2725Y1381D01*
X2783Y1381D02*
X2825Y1381D01*
X2883Y1381D02*
X2925Y1381D01*
X2983Y1381D02*
X3025Y1381D01*
X3083Y1381D02*
X3125Y1381D01*
X2483Y1380D02*
X2525Y1380D01*
X2583Y1380D02*
X2625Y1380D01*
X2683Y1380D02*
X2725Y1380D01*
X2783Y1380D02*
X2825Y1380D01*
X2883Y1380D02*
X2925Y1380D01*
X2983Y1380D02*
X3025Y1380D01*
X3082Y1380D02*
X3125Y1380D01*
X2482Y1379D02*
X2526Y1379D01*
X2582Y1379D02*
X2626Y1379D01*
X2682Y1379D02*
X2726Y1379D01*
X2782Y1379D02*
X2826Y1379D01*
X2882Y1379D02*
X2926Y1379D01*
X2982Y1379D02*
X3026Y1379D01*
X3082Y1379D02*
X3126Y1379D01*
X2481Y1378D02*
X2526Y1378D01*
X2581Y1378D02*
X2626Y1378D01*
X2681Y1378D02*
X2726Y1378D01*
X2781Y1378D02*
X2826Y1378D01*
X2881Y1378D02*
X2926Y1378D01*
X2981Y1378D02*
X3026Y1378D01*
X3081Y1378D02*
X3126Y1378D01*
X2481Y1377D02*
X2527Y1377D01*
X2581Y1377D02*
X2627Y1377D01*
X2681Y1377D02*
X2727Y1377D01*
X2781Y1377D02*
X2827Y1377D01*
X2881Y1377D02*
X2927Y1377D01*
X2981Y1377D02*
X3027Y1377D01*
X3081Y1377D02*
X3127Y1377D01*
X2480Y1376D02*
X2527Y1376D01*
X2580Y1376D02*
X2627Y1376D01*
X2680Y1376D02*
X2727Y1376D01*
X2780Y1376D02*
X2827Y1376D01*
X2880Y1376D02*
X2927Y1376D01*
X2980Y1376D02*
X3027Y1376D01*
X3080Y1376D02*
X3127Y1376D01*
X2480Y1375D02*
X2528Y1375D01*
X2580Y1375D02*
X2628Y1375D01*
X2680Y1375D02*
X2728Y1375D01*
X2780Y1375D02*
X2828Y1375D01*
X2880Y1375D02*
X2928Y1375D01*
X2980Y1375D02*
X3028Y1375D01*
X3080Y1375D02*
X3128Y1375D01*
X2480Y1374D02*
X2528Y1374D01*
X2580Y1374D02*
X2628Y1374D01*
X2680Y1374D02*
X2728Y1374D01*
X2780Y1374D02*
X2828Y1374D01*
X2880Y1374D02*
X2928Y1374D01*
X2980Y1374D02*
X3028Y1374D01*
X3080Y1374D02*
X3128Y1374D01*
X2479Y1373D02*
X2529Y1373D01*
X2579Y1373D02*
X2628Y1373D01*
X2679Y1373D02*
X2728Y1373D01*
X2779Y1373D02*
X2828Y1373D01*
X2879Y1373D02*
X2928Y1373D01*
X2979Y1373D02*
X3028Y1373D01*
X3079Y1373D02*
X3128Y1373D01*
X2479Y1372D02*
X2529Y1372D01*
X2579Y1372D02*
X2629Y1372D01*
X2679Y1372D02*
X2729Y1372D01*
X2779Y1372D02*
X2829Y1372D01*
X2879Y1372D02*
X2929Y1372D01*
X2979Y1372D02*
X3029Y1372D01*
X3079Y1372D02*
X3129Y1372D01*
X2479Y1371D02*
X2529Y1371D01*
X2579Y1371D02*
X2629Y1371D01*
X2679Y1371D02*
X2729Y1371D01*
X2779Y1371D02*
X2829Y1371D01*
X2879Y1371D02*
X2929Y1371D01*
X2979Y1371D02*
X3029Y1371D01*
X3079Y1371D02*
X3129Y1371D01*
X2479Y1370D02*
X2529Y1370D01*
X2579Y1370D02*
X2629Y1370D01*
X2679Y1370D02*
X2729Y1370D01*
X2779Y1370D02*
X2829Y1370D01*
X2879Y1370D02*
X2929Y1370D01*
X2979Y1370D02*
X3029Y1370D01*
X3079Y1370D02*
X3129Y1370D01*
X2479Y1369D02*
X2529Y1369D01*
X2579Y1369D02*
X2629Y1369D01*
X2679Y1369D02*
X2729Y1369D01*
X2779Y1369D02*
X2829Y1369D01*
X2879Y1369D02*
X2929Y1369D01*
X2979Y1369D02*
X3029Y1369D01*
X3079Y1369D02*
X3129Y1369D01*
X2479Y1368D02*
X2529Y1368D01*
X2579Y1368D02*
X2629Y1368D01*
X2679Y1368D02*
X2729Y1368D01*
X2779Y1368D02*
X2829Y1368D01*
X2879Y1368D02*
X2929Y1368D01*
X2979Y1368D02*
X3029Y1368D01*
X3079Y1368D02*
X3129Y1368D01*
X2479Y1367D02*
X2529Y1367D01*
X2578Y1367D02*
X2629Y1367D01*
X2678Y1367D02*
X2729Y1367D01*
X2778Y1367D02*
X2829Y1367D01*
X2878Y1367D02*
X2929Y1367D01*
X2978Y1367D02*
X3029Y1367D01*
X3078Y1367D02*
X3129Y1367D01*
X2478Y1366D02*
X2529Y1366D01*
X2578Y1366D02*
X2629Y1366D01*
X2678Y1366D02*
X2729Y1366D01*
X2778Y1366D02*
X2829Y1366D01*
X2878Y1366D02*
X2929Y1366D01*
X2978Y1366D02*
X3029Y1366D01*
X3078Y1366D02*
X3129Y1366D01*
X2478Y1365D02*
X2529Y1365D01*
X2578Y1365D02*
X2629Y1365D01*
X2678Y1365D02*
X2729Y1365D01*
X2778Y1365D02*
X2829Y1365D01*
X2878Y1365D02*
X2929Y1365D01*
X2978Y1365D02*
X3029Y1365D01*
X3078Y1365D02*
X3129Y1365D01*
X2478Y1364D02*
X2529Y1364D01*
X2578Y1364D02*
X2629Y1364D01*
X2678Y1364D02*
X2729Y1364D01*
X2778Y1364D02*
X2829Y1364D01*
X2878Y1364D02*
X2929Y1364D01*
X2978Y1364D02*
X3029Y1364D01*
X3078Y1364D02*
X3129Y1364D01*
X2478Y1363D02*
X2529Y1363D01*
X2578Y1363D02*
X2629Y1363D01*
X2678Y1363D02*
X2729Y1363D01*
X2778Y1363D02*
X2829Y1363D01*
X2878Y1363D02*
X2929Y1363D01*
X2978Y1363D02*
X3029Y1363D01*
X3078Y1363D02*
X3129Y1363D01*
X2478Y1362D02*
X2529Y1362D01*
X2578Y1362D02*
X2629Y1362D01*
X2678Y1362D02*
X2729Y1362D01*
X2778Y1362D02*
X2829Y1362D01*
X2878Y1362D02*
X2929Y1362D01*
X2978Y1362D02*
X3029Y1362D01*
X3078Y1362D02*
X3129Y1362D01*
X2478Y1361D02*
X2529Y1361D01*
X2578Y1361D02*
X2629Y1361D01*
X2678Y1361D02*
X2729Y1361D01*
X2778Y1361D02*
X2829Y1361D01*
X2878Y1361D02*
X2929Y1361D01*
X2978Y1361D02*
X3029Y1361D01*
X3078Y1361D02*
X3129Y1361D01*
X2478Y1360D02*
X2529Y1360D01*
X2578Y1360D02*
X2629Y1360D01*
X2678Y1360D02*
X2729Y1360D01*
X2778Y1360D02*
X2829Y1360D01*
X2878Y1360D02*
X2929Y1360D01*
X2978Y1360D02*
X3029Y1360D01*
X3078Y1360D02*
X3129Y1360D01*
X2478Y1359D02*
X2529Y1359D01*
X2578Y1359D02*
X2629Y1359D01*
X2678Y1359D02*
X2729Y1359D01*
X2778Y1359D02*
X2829Y1359D01*
X2878Y1359D02*
X2929Y1359D01*
X2978Y1359D02*
X3029Y1359D01*
X3078Y1359D02*
X3129Y1359D01*
X2478Y1358D02*
X2529Y1358D01*
X2578Y1358D02*
X2629Y1358D01*
X2678Y1358D02*
X2729Y1358D01*
X2778Y1358D02*
X2829Y1358D01*
X2878Y1358D02*
X2929Y1358D01*
X2978Y1358D02*
X3029Y1358D01*
X3078Y1358D02*
X3129Y1358D01*
X2478Y1357D02*
X2529Y1357D01*
X2578Y1357D02*
X2629Y1357D01*
X2678Y1357D02*
X2729Y1357D01*
X2778Y1357D02*
X2829Y1357D01*
X2878Y1357D02*
X2929Y1357D01*
X2978Y1357D02*
X3029Y1357D01*
X3078Y1357D02*
X3129Y1357D01*
X2478Y1356D02*
X2503Y1356D01*
X2505Y1356D02*
X2529Y1356D01*
X2578Y1356D02*
X2603Y1356D01*
X2605Y1356D02*
X2629Y1356D01*
X2678Y1356D02*
X2702Y1356D01*
X2705Y1356D02*
X2729Y1356D01*
X2778Y1356D02*
X2802Y1356D01*
X2805Y1356D02*
X2829Y1356D01*
X2878Y1356D02*
X2902Y1356D01*
X2905Y1356D02*
X2929Y1356D01*
X2978Y1356D02*
X3002Y1356D01*
X3005Y1356D02*
X3029Y1356D01*
X3078Y1356D02*
X3102Y1356D01*
X3105Y1356D02*
X3129Y1356D01*
X2478Y1355D02*
X2498Y1355D01*
X2510Y1355D02*
X2529Y1355D01*
X2578Y1355D02*
X2598Y1355D01*
X2610Y1355D02*
X2629Y1355D01*
X2678Y1355D02*
X2698Y1355D01*
X2710Y1355D02*
X2729Y1355D01*
X2778Y1355D02*
X2798Y1355D01*
X2810Y1355D02*
X2829Y1355D01*
X2878Y1355D02*
X2898Y1355D01*
X2910Y1355D02*
X2929Y1355D01*
X2978Y1355D02*
X2998Y1355D01*
X3010Y1355D02*
X3029Y1355D01*
X3078Y1355D02*
X3098Y1355D01*
X3110Y1355D02*
X3129Y1355D01*
X2478Y1354D02*
X2496Y1354D01*
X2512Y1354D02*
X2529Y1354D01*
X2578Y1354D02*
X2596Y1354D01*
X2612Y1354D02*
X2629Y1354D01*
X2678Y1354D02*
X2696Y1354D01*
X2712Y1354D02*
X2729Y1354D01*
X2778Y1354D02*
X2796Y1354D01*
X2812Y1354D02*
X2829Y1354D01*
X2878Y1354D02*
X2896Y1354D01*
X2912Y1354D02*
X2929Y1354D01*
X2978Y1354D02*
X2996Y1354D01*
X3012Y1354D02*
X3029Y1354D01*
X3078Y1354D02*
X3096Y1354D01*
X3112Y1354D02*
X3129Y1354D01*
X2478Y1353D02*
X2494Y1353D01*
X2514Y1353D02*
X2529Y1353D01*
X2578Y1353D02*
X2594Y1353D01*
X2614Y1353D02*
X2629Y1353D01*
X2678Y1353D02*
X2694Y1353D01*
X2714Y1353D02*
X2729Y1353D01*
X2778Y1353D02*
X2794Y1353D01*
X2814Y1353D02*
X2829Y1353D01*
X2878Y1353D02*
X2894Y1353D01*
X2914Y1353D02*
X2929Y1353D01*
X2978Y1353D02*
X2994Y1353D01*
X3014Y1353D02*
X3029Y1353D01*
X3078Y1353D02*
X3094Y1353D01*
X3114Y1353D02*
X3129Y1353D01*
X2478Y1352D02*
X2493Y1352D01*
X2515Y1352D02*
X2529Y1352D01*
X2578Y1352D02*
X2593Y1352D01*
X2615Y1352D02*
X2629Y1352D01*
X2678Y1352D02*
X2693Y1352D01*
X2715Y1352D02*
X2729Y1352D01*
X2778Y1352D02*
X2793Y1352D01*
X2815Y1352D02*
X2829Y1352D01*
X2878Y1352D02*
X2893Y1352D01*
X2915Y1352D02*
X2929Y1352D01*
X2978Y1352D02*
X2993Y1352D01*
X3015Y1352D02*
X3029Y1352D01*
X3078Y1352D02*
X3093Y1352D01*
X3115Y1352D02*
X3129Y1352D01*
X2478Y1351D02*
X2492Y1351D01*
X2516Y1351D02*
X2529Y1351D01*
X2578Y1351D02*
X2592Y1351D01*
X2616Y1351D02*
X2629Y1351D01*
X2678Y1351D02*
X2692Y1351D01*
X2716Y1351D02*
X2729Y1351D01*
X2778Y1351D02*
X2792Y1351D01*
X2816Y1351D02*
X2829Y1351D01*
X2878Y1351D02*
X2892Y1351D01*
X2916Y1351D02*
X2929Y1351D01*
X2978Y1351D02*
X2992Y1351D01*
X3016Y1351D02*
X3029Y1351D01*
X3078Y1351D02*
X3092Y1351D01*
X3116Y1351D02*
X3129Y1351D01*
X2478Y1350D02*
X2491Y1350D01*
X2517Y1350D02*
X2529Y1350D01*
X2578Y1350D02*
X2591Y1350D01*
X2617Y1350D02*
X2629Y1350D01*
X2678Y1350D02*
X2691Y1350D01*
X2717Y1350D02*
X2729Y1350D01*
X2778Y1350D02*
X2791Y1350D01*
X2817Y1350D02*
X2829Y1350D01*
X2878Y1350D02*
X2891Y1350D01*
X2917Y1350D02*
X2929Y1350D01*
X2978Y1350D02*
X2991Y1350D01*
X3017Y1350D02*
X3029Y1350D01*
X3078Y1350D02*
X3091Y1350D01*
X3117Y1350D02*
X3129Y1350D01*
X2478Y1349D02*
X2490Y1349D01*
X2518Y1349D02*
X2529Y1349D01*
X2578Y1349D02*
X2590Y1349D01*
X2618Y1349D02*
X2629Y1349D01*
X2678Y1349D02*
X2690Y1349D01*
X2718Y1349D02*
X2729Y1349D01*
X2778Y1349D02*
X2790Y1349D01*
X2818Y1349D02*
X2829Y1349D01*
X2878Y1349D02*
X2890Y1349D01*
X2918Y1349D02*
X2929Y1349D01*
X2978Y1349D02*
X2990Y1349D01*
X3018Y1349D02*
X3029Y1349D01*
X3078Y1349D02*
X3090Y1349D01*
X3118Y1349D02*
X3129Y1349D01*
X2478Y1348D02*
X2490Y1348D01*
X2518Y1348D02*
X2529Y1348D01*
X2578Y1348D02*
X2590Y1348D01*
X2618Y1348D02*
X2629Y1348D01*
X2678Y1348D02*
X2690Y1348D01*
X2718Y1348D02*
X2729Y1348D01*
X2778Y1348D02*
X2790Y1348D01*
X2818Y1348D02*
X2829Y1348D01*
X2878Y1348D02*
X2890Y1348D01*
X2918Y1348D02*
X2929Y1348D01*
X2978Y1348D02*
X2990Y1348D01*
X3018Y1348D02*
X3029Y1348D01*
X3078Y1348D02*
X3090Y1348D01*
X3118Y1348D02*
X3129Y1348D01*
X2478Y1347D02*
X2489Y1347D01*
X2519Y1347D02*
X2529Y1347D01*
X2578Y1347D02*
X2589Y1347D01*
X2619Y1347D02*
X2629Y1347D01*
X2678Y1347D02*
X2689Y1347D01*
X2719Y1347D02*
X2729Y1347D01*
X2778Y1347D02*
X2789Y1347D01*
X2819Y1347D02*
X2829Y1347D01*
X2878Y1347D02*
X2889Y1347D01*
X2919Y1347D02*
X2929Y1347D01*
X2978Y1347D02*
X2989Y1347D01*
X3019Y1347D02*
X3029Y1347D01*
X3078Y1347D02*
X3089Y1347D01*
X3119Y1347D02*
X3129Y1347D01*
X2478Y1346D02*
X2489Y1346D01*
X2519Y1346D02*
X2529Y1346D01*
X2578Y1346D02*
X2589Y1346D01*
X2619Y1346D02*
X2629Y1346D01*
X2678Y1346D02*
X2689Y1346D01*
X2719Y1346D02*
X2729Y1346D01*
X2778Y1346D02*
X2789Y1346D01*
X2819Y1346D02*
X2829Y1346D01*
X2878Y1346D02*
X2889Y1346D01*
X2919Y1346D02*
X2929Y1346D01*
X2978Y1346D02*
X2989Y1346D01*
X3019Y1346D02*
X3029Y1346D01*
X3078Y1346D02*
X3089Y1346D01*
X3119Y1346D02*
X3129Y1346D01*
X2478Y1345D02*
X2488Y1345D01*
X2520Y1345D02*
X2529Y1345D01*
X2578Y1345D02*
X2588Y1345D01*
X2620Y1345D02*
X2629Y1345D01*
X2678Y1345D02*
X2688Y1345D01*
X2720Y1345D02*
X2729Y1345D01*
X2778Y1345D02*
X2788Y1345D01*
X2820Y1345D02*
X2829Y1345D01*
X2878Y1345D02*
X2888Y1345D01*
X2920Y1345D02*
X2929Y1345D01*
X2978Y1345D02*
X2988Y1345D01*
X3020Y1345D02*
X3029Y1345D01*
X3078Y1345D02*
X3088Y1345D01*
X3120Y1345D02*
X3129Y1345D01*
X2478Y1344D02*
X2488Y1344D01*
X2520Y1344D02*
X2529Y1344D01*
X2578Y1344D02*
X2588Y1344D01*
X2620Y1344D02*
X2629Y1344D01*
X2678Y1344D02*
X2688Y1344D01*
X2720Y1344D02*
X2729Y1344D01*
X2778Y1344D02*
X2788Y1344D01*
X2820Y1344D02*
X2829Y1344D01*
X2878Y1344D02*
X2888Y1344D01*
X2920Y1344D02*
X2929Y1344D01*
X2978Y1344D02*
X2988Y1344D01*
X3020Y1344D02*
X3029Y1344D01*
X3078Y1344D02*
X3088Y1344D01*
X3120Y1344D02*
X3129Y1344D01*
X2478Y1343D02*
X2488Y1343D01*
X2520Y1343D02*
X2529Y1343D01*
X2578Y1343D02*
X2588Y1343D01*
X2620Y1343D02*
X2629Y1343D01*
X2678Y1343D02*
X2688Y1343D01*
X2720Y1343D02*
X2729Y1343D01*
X2778Y1343D02*
X2788Y1343D01*
X2820Y1343D02*
X2829Y1343D01*
X2878Y1343D02*
X2888Y1343D01*
X2920Y1343D02*
X2929Y1343D01*
X2978Y1343D02*
X2988Y1343D01*
X3020Y1343D02*
X3029Y1343D01*
X3078Y1343D02*
X3088Y1343D01*
X3120Y1343D02*
X3129Y1343D01*
X2478Y1342D02*
X2488Y1342D01*
X2520Y1342D02*
X2529Y1342D01*
X2578Y1342D02*
X2588Y1342D01*
X2620Y1342D02*
X2629Y1342D01*
X2678Y1342D02*
X2688Y1342D01*
X2720Y1342D02*
X2729Y1342D01*
X2778Y1342D02*
X2788Y1342D01*
X2820Y1342D02*
X2829Y1342D01*
X2878Y1342D02*
X2888Y1342D01*
X2920Y1342D02*
X2929Y1342D01*
X2978Y1342D02*
X2988Y1342D01*
X3020Y1342D02*
X3029Y1342D01*
X3078Y1342D02*
X3088Y1342D01*
X3120Y1342D02*
X3129Y1342D01*
X2478Y1341D02*
X2488Y1341D01*
X2520Y1341D02*
X2529Y1341D01*
X2578Y1341D02*
X2588Y1341D01*
X2620Y1341D02*
X2629Y1341D01*
X2678Y1341D02*
X2688Y1341D01*
X2720Y1341D02*
X2729Y1341D01*
X2778Y1341D02*
X2788Y1341D01*
X2820Y1341D02*
X2829Y1341D01*
X2878Y1341D02*
X2888Y1341D01*
X2920Y1341D02*
X2929Y1341D01*
X2978Y1341D02*
X2988Y1341D01*
X3020Y1341D02*
X3029Y1341D01*
X3078Y1341D02*
X3087Y1341D01*
X3120Y1341D02*
X3129Y1341D01*
X2478Y1340D02*
X2487Y1340D01*
X2520Y1340D02*
X2529Y1340D01*
X2578Y1340D02*
X2587Y1340D01*
X2620Y1340D02*
X2629Y1340D01*
X2678Y1340D02*
X2687Y1340D01*
X2720Y1340D02*
X2729Y1340D01*
X2778Y1340D02*
X2787Y1340D01*
X2820Y1340D02*
X2829Y1340D01*
X2878Y1340D02*
X2887Y1340D01*
X2920Y1340D02*
X2929Y1340D01*
X2978Y1340D02*
X2987Y1340D01*
X3020Y1340D02*
X3029Y1340D01*
X3078Y1340D02*
X3087Y1340D01*
X3120Y1340D02*
X3129Y1340D01*
X2478Y1339D02*
X2488Y1339D01*
X2520Y1339D02*
X2529Y1339D01*
X2578Y1339D02*
X2588Y1339D01*
X2620Y1339D02*
X2629Y1339D01*
X2678Y1339D02*
X2688Y1339D01*
X2720Y1339D02*
X2729Y1339D01*
X2778Y1339D02*
X2788Y1339D01*
X2820Y1339D02*
X2829Y1339D01*
X2878Y1339D02*
X2888Y1339D01*
X2920Y1339D02*
X2929Y1339D01*
X2978Y1339D02*
X2988Y1339D01*
X3020Y1339D02*
X3029Y1339D01*
X3078Y1339D02*
X3088Y1339D01*
X3120Y1339D02*
X3129Y1339D01*
X2478Y1338D02*
X2488Y1338D01*
X2520Y1338D02*
X2529Y1338D01*
X2578Y1338D02*
X2588Y1338D01*
X2620Y1338D02*
X2629Y1338D01*
X2678Y1338D02*
X2688Y1338D01*
X2720Y1338D02*
X2729Y1338D01*
X2778Y1338D02*
X2788Y1338D01*
X2820Y1338D02*
X2829Y1338D01*
X2878Y1338D02*
X2888Y1338D01*
X2920Y1338D02*
X2929Y1338D01*
X2978Y1338D02*
X2988Y1338D01*
X3020Y1338D02*
X3029Y1338D01*
X3078Y1338D02*
X3088Y1338D01*
X3120Y1338D02*
X3129Y1338D01*
X2478Y1337D02*
X2488Y1337D01*
X2520Y1337D02*
X2529Y1337D01*
X2578Y1337D02*
X2588Y1337D01*
X2620Y1337D02*
X2629Y1337D01*
X2678Y1337D02*
X2688Y1337D01*
X2720Y1337D02*
X2729Y1337D01*
X2778Y1337D02*
X2788Y1337D01*
X2820Y1337D02*
X2829Y1337D01*
X2878Y1337D02*
X2888Y1337D01*
X2920Y1337D02*
X2929Y1337D01*
X2978Y1337D02*
X2988Y1337D01*
X3020Y1337D02*
X3029Y1337D01*
X3078Y1337D02*
X3088Y1337D01*
X3120Y1337D02*
X3129Y1337D01*
X2478Y1336D02*
X2488Y1336D01*
X2520Y1336D02*
X2529Y1336D01*
X2578Y1336D02*
X2588Y1336D01*
X2620Y1336D02*
X2629Y1336D01*
X2678Y1336D02*
X2688Y1336D01*
X2720Y1336D02*
X2729Y1336D01*
X2778Y1336D02*
X2788Y1336D01*
X2820Y1336D02*
X2829Y1336D01*
X2878Y1336D02*
X2888Y1336D01*
X2920Y1336D02*
X2929Y1336D01*
X2978Y1336D02*
X2988Y1336D01*
X3020Y1336D02*
X3029Y1336D01*
X3078Y1336D02*
X3088Y1336D01*
X3120Y1336D02*
X3129Y1336D01*
X2478Y1335D02*
X2488Y1335D01*
X2520Y1335D02*
X2529Y1335D01*
X2578Y1335D02*
X2588Y1335D01*
X2620Y1335D02*
X2629Y1335D01*
X2678Y1335D02*
X2688Y1335D01*
X2720Y1335D02*
X2729Y1335D01*
X2778Y1335D02*
X2788Y1335D01*
X2820Y1335D02*
X2829Y1335D01*
X2878Y1335D02*
X2888Y1335D01*
X2920Y1335D02*
X2929Y1335D01*
X2978Y1335D02*
X2988Y1335D01*
X3019Y1335D02*
X3029Y1335D01*
X3078Y1335D02*
X3088Y1335D01*
X3119Y1335D02*
X3129Y1335D01*
X2478Y1334D02*
X2489Y1334D01*
X2519Y1334D02*
X2529Y1334D01*
X2578Y1334D02*
X2589Y1334D01*
X2619Y1334D02*
X2629Y1334D01*
X2678Y1334D02*
X2689Y1334D01*
X2719Y1334D02*
X2729Y1334D01*
X2778Y1334D02*
X2789Y1334D01*
X2819Y1334D02*
X2829Y1334D01*
X2878Y1334D02*
X2889Y1334D01*
X2919Y1334D02*
X2929Y1334D01*
X2978Y1334D02*
X2989Y1334D01*
X3019Y1334D02*
X3029Y1334D01*
X3078Y1334D02*
X3089Y1334D01*
X3119Y1334D02*
X3129Y1334D01*
X2478Y1333D02*
X2489Y1333D01*
X2519Y1333D02*
X2529Y1333D01*
X2578Y1333D02*
X2589Y1333D01*
X2619Y1333D02*
X2629Y1333D01*
X2678Y1333D02*
X2689Y1333D01*
X2719Y1333D02*
X2729Y1333D01*
X2778Y1333D02*
X2789Y1333D01*
X2819Y1333D02*
X2829Y1333D01*
X2878Y1333D02*
X2889Y1333D01*
X2919Y1333D02*
X2929Y1333D01*
X2978Y1333D02*
X2989Y1333D01*
X3019Y1333D02*
X3029Y1333D01*
X3078Y1333D02*
X3089Y1333D01*
X3119Y1333D02*
X3129Y1333D01*
X2478Y1332D02*
X2490Y1332D01*
X2518Y1332D02*
X2529Y1332D01*
X2578Y1332D02*
X2590Y1332D01*
X2618Y1332D02*
X2629Y1332D01*
X2678Y1332D02*
X2690Y1332D01*
X2718Y1332D02*
X2729Y1332D01*
X2778Y1332D02*
X2790Y1332D01*
X2818Y1332D02*
X2829Y1332D01*
X2878Y1332D02*
X2890Y1332D01*
X2918Y1332D02*
X2929Y1332D01*
X2978Y1332D02*
X2990Y1332D01*
X3018Y1332D02*
X3029Y1332D01*
X3078Y1332D02*
X3090Y1332D01*
X3118Y1332D02*
X3129Y1332D01*
X2478Y1331D02*
X2490Y1331D01*
X2518Y1331D02*
X2529Y1331D01*
X2578Y1331D02*
X2590Y1331D01*
X2618Y1331D02*
X2629Y1331D01*
X2678Y1331D02*
X2690Y1331D01*
X2718Y1331D02*
X2729Y1331D01*
X2778Y1331D02*
X2790Y1331D01*
X2818Y1331D02*
X2829Y1331D01*
X2878Y1331D02*
X2890Y1331D01*
X2918Y1331D02*
X2929Y1331D01*
X2978Y1331D02*
X2990Y1331D01*
X3018Y1331D02*
X3029Y1331D01*
X3078Y1331D02*
X3090Y1331D01*
X3118Y1331D02*
X3129Y1331D01*
X2478Y1330D02*
X2491Y1330D01*
X2517Y1330D02*
X2529Y1330D01*
X2578Y1330D02*
X2591Y1330D01*
X2617Y1330D02*
X2629Y1330D01*
X2678Y1330D02*
X2691Y1330D01*
X2717Y1330D02*
X2729Y1330D01*
X2778Y1330D02*
X2791Y1330D01*
X2817Y1330D02*
X2829Y1330D01*
X2878Y1330D02*
X2891Y1330D01*
X2917Y1330D02*
X2929Y1330D01*
X2978Y1330D02*
X2991Y1330D01*
X3017Y1330D02*
X3029Y1330D01*
X3078Y1330D02*
X3091Y1330D01*
X3117Y1330D02*
X3129Y1330D01*
X2478Y1329D02*
X2492Y1329D01*
X2516Y1329D02*
X2529Y1329D01*
X2578Y1329D02*
X2592Y1329D01*
X2616Y1329D02*
X2629Y1329D01*
X2678Y1329D02*
X2692Y1329D01*
X2716Y1329D02*
X2729Y1329D01*
X2778Y1329D02*
X2792Y1329D01*
X2816Y1329D02*
X2829Y1329D01*
X2878Y1329D02*
X2892Y1329D01*
X2916Y1329D02*
X2929Y1329D01*
X2978Y1329D02*
X2992Y1329D01*
X3016Y1329D02*
X3029Y1329D01*
X3078Y1329D02*
X3092Y1329D01*
X3116Y1329D02*
X3129Y1329D01*
X2478Y1328D02*
X2493Y1328D01*
X2515Y1328D02*
X2529Y1328D01*
X2578Y1328D02*
X2593Y1328D01*
X2615Y1328D02*
X2629Y1328D01*
X2678Y1328D02*
X2693Y1328D01*
X2715Y1328D02*
X2729Y1328D01*
X2778Y1328D02*
X2793Y1328D01*
X2815Y1328D02*
X2829Y1328D01*
X2878Y1328D02*
X2893Y1328D01*
X2915Y1328D02*
X2929Y1328D01*
X2978Y1328D02*
X2993Y1328D01*
X3015Y1328D02*
X3029Y1328D01*
X3078Y1328D02*
X3093Y1328D01*
X3115Y1328D02*
X3129Y1328D01*
X2478Y1327D02*
X2494Y1327D01*
X2514Y1327D02*
X2529Y1327D01*
X2578Y1327D02*
X2594Y1327D01*
X2614Y1327D02*
X2629Y1327D01*
X2678Y1327D02*
X2694Y1327D01*
X2714Y1327D02*
X2729Y1327D01*
X2778Y1327D02*
X2794Y1327D01*
X2814Y1327D02*
X2829Y1327D01*
X2878Y1327D02*
X2894Y1327D01*
X2914Y1327D02*
X2929Y1327D01*
X2978Y1327D02*
X2994Y1327D01*
X3014Y1327D02*
X3029Y1327D01*
X3078Y1327D02*
X3094Y1327D01*
X3114Y1327D02*
X3129Y1327D01*
X2478Y1326D02*
X2496Y1326D01*
X2512Y1326D02*
X2529Y1326D01*
X2578Y1326D02*
X2596Y1326D01*
X2612Y1326D02*
X2629Y1326D01*
X2678Y1326D02*
X2696Y1326D01*
X2712Y1326D02*
X2729Y1326D01*
X2778Y1326D02*
X2796Y1326D01*
X2812Y1326D02*
X2829Y1326D01*
X2878Y1326D02*
X2896Y1326D01*
X2912Y1326D02*
X2929Y1326D01*
X2978Y1326D02*
X2996Y1326D01*
X3012Y1326D02*
X3029Y1326D01*
X3078Y1326D02*
X3096Y1326D01*
X3112Y1326D02*
X3129Y1326D01*
X2478Y1325D02*
X2498Y1325D01*
X2510Y1325D02*
X2529Y1325D01*
X2578Y1325D02*
X2598Y1325D01*
X2610Y1325D02*
X2629Y1325D01*
X2678Y1325D02*
X2698Y1325D01*
X2710Y1325D02*
X2729Y1325D01*
X2778Y1325D02*
X2798Y1325D01*
X2809Y1325D02*
X2829Y1325D01*
X2878Y1325D02*
X2898Y1325D01*
X2909Y1325D02*
X2929Y1325D01*
X2978Y1325D02*
X2998Y1325D01*
X3009Y1325D02*
X3029Y1325D01*
X3078Y1325D02*
X3098Y1325D01*
X3109Y1325D02*
X3129Y1325D01*
X2478Y1324D02*
X2529Y1324D01*
X2578Y1324D02*
X2629Y1324D01*
X2678Y1324D02*
X2729Y1324D01*
X2778Y1324D02*
X2829Y1324D01*
X2878Y1324D02*
X2929Y1324D01*
X2978Y1324D02*
X3029Y1324D01*
X3078Y1324D02*
X3129Y1324D01*
X2478Y1323D02*
X2529Y1323D01*
X2578Y1323D02*
X2629Y1323D01*
X2678Y1323D02*
X2729Y1323D01*
X2778Y1323D02*
X2829Y1323D01*
X2878Y1323D02*
X2929Y1323D01*
X2978Y1323D02*
X3029Y1323D01*
X3078Y1323D02*
X3129Y1323D01*
X2478Y1322D02*
X2529Y1322D01*
X2578Y1322D02*
X2629Y1322D01*
X2678Y1322D02*
X2729Y1322D01*
X2778Y1322D02*
X2829Y1322D01*
X2878Y1322D02*
X2929Y1322D01*
X2978Y1322D02*
X3029Y1322D01*
X3078Y1322D02*
X3129Y1322D01*
X2478Y1321D02*
X2529Y1321D01*
X2578Y1321D02*
X2629Y1321D01*
X2678Y1321D02*
X2729Y1321D01*
X2778Y1321D02*
X2829Y1321D01*
X2878Y1321D02*
X2929Y1321D01*
X2978Y1321D02*
X3029Y1321D01*
X3078Y1321D02*
X3129Y1321D01*
X2478Y1320D02*
X2529Y1320D01*
X2578Y1320D02*
X2629Y1320D01*
X2678Y1320D02*
X2729Y1320D01*
X2778Y1320D02*
X2829Y1320D01*
X2878Y1320D02*
X2929Y1320D01*
X2978Y1320D02*
X3029Y1320D01*
X3078Y1320D02*
X3129Y1320D01*
X2478Y1319D02*
X2529Y1319D01*
X2578Y1319D02*
X2629Y1319D01*
X2678Y1319D02*
X2729Y1319D01*
X2778Y1319D02*
X2829Y1319D01*
X2878Y1319D02*
X2929Y1319D01*
X2978Y1319D02*
X3029Y1319D01*
X3078Y1319D02*
X3129Y1319D01*
X2478Y1318D02*
X2529Y1318D01*
X2578Y1318D02*
X2629Y1318D01*
X2678Y1318D02*
X2729Y1318D01*
X2778Y1318D02*
X2829Y1318D01*
X2878Y1318D02*
X2929Y1318D01*
X2978Y1318D02*
X3029Y1318D01*
X3078Y1318D02*
X3129Y1318D01*
X2478Y1317D02*
X2529Y1317D01*
X2578Y1317D02*
X2629Y1317D01*
X2678Y1317D02*
X2729Y1317D01*
X2778Y1317D02*
X2829Y1317D01*
X2878Y1317D02*
X2929Y1317D01*
X2978Y1317D02*
X3029Y1317D01*
X3078Y1317D02*
X3129Y1317D01*
X2478Y1316D02*
X2529Y1316D01*
X2578Y1316D02*
X2629Y1316D01*
X2678Y1316D02*
X2729Y1316D01*
X2778Y1316D02*
X2829Y1316D01*
X2878Y1316D02*
X2929Y1316D01*
X2978Y1316D02*
X3029Y1316D01*
X3078Y1316D02*
X3129Y1316D01*
X2478Y1315D02*
X2529Y1315D01*
X2578Y1315D02*
X2629Y1315D01*
X2678Y1315D02*
X2729Y1315D01*
X2778Y1315D02*
X2829Y1315D01*
X2878Y1315D02*
X2929Y1315D01*
X2978Y1315D02*
X3029Y1315D01*
X3078Y1315D02*
X3129Y1315D01*
X2478Y1314D02*
X2529Y1314D01*
X2578Y1314D02*
X2629Y1314D01*
X2678Y1314D02*
X2729Y1314D01*
X2778Y1314D02*
X2829Y1314D01*
X2878Y1314D02*
X2929Y1314D01*
X2978Y1314D02*
X3029Y1314D01*
X3078Y1314D02*
X3129Y1314D01*
X2479Y1313D02*
X2529Y1313D01*
X2579Y1313D02*
X2629Y1313D01*
X2678Y1313D02*
X2729Y1313D01*
X2778Y1313D02*
X2829Y1313D01*
X2878Y1313D02*
X2929Y1313D01*
X2978Y1313D02*
X3029Y1313D01*
X3078Y1313D02*
X3129Y1313D01*
X2479Y1312D02*
X2529Y1312D01*
X2579Y1312D02*
X2629Y1312D01*
X2679Y1312D02*
X2729Y1312D01*
X2779Y1312D02*
X2829Y1312D01*
X2879Y1312D02*
X2929Y1312D01*
X2979Y1312D02*
X3029Y1312D01*
X3079Y1312D02*
X3129Y1312D01*
X2479Y1311D02*
X2529Y1311D01*
X2579Y1311D02*
X2629Y1311D01*
X2679Y1311D02*
X2729Y1311D01*
X2779Y1311D02*
X2829Y1311D01*
X2879Y1311D02*
X2929Y1311D01*
X2979Y1311D02*
X3029Y1311D01*
X3079Y1311D02*
X3129Y1311D01*
X2479Y1310D02*
X2529Y1310D01*
X2579Y1310D02*
X2629Y1310D01*
X2679Y1310D02*
X2729Y1310D01*
X2779Y1310D02*
X2829Y1310D01*
X2879Y1310D02*
X2929Y1310D01*
X2979Y1310D02*
X3029Y1310D01*
X3079Y1310D02*
X3129Y1310D01*
X2479Y1309D02*
X2529Y1309D01*
X2579Y1309D02*
X2629Y1309D01*
X2679Y1309D02*
X2729Y1309D01*
X2779Y1309D02*
X2829Y1309D01*
X2879Y1309D02*
X2929Y1309D01*
X2979Y1309D02*
X3029Y1309D01*
X3079Y1309D02*
X3129Y1309D01*
X2479Y1308D02*
X2529Y1308D01*
X2579Y1308D02*
X2629Y1308D01*
X2679Y1308D02*
X2729Y1308D01*
X2779Y1308D02*
X2829Y1308D01*
X2879Y1308D02*
X2929Y1308D01*
X2979Y1308D02*
X3029Y1308D01*
X3079Y1308D02*
X3129Y1308D01*
X2479Y1307D02*
X2528Y1307D01*
X2579Y1307D02*
X2628Y1307D01*
X2679Y1307D02*
X2728Y1307D01*
X2779Y1307D02*
X2828Y1307D01*
X2879Y1307D02*
X2928Y1307D01*
X2979Y1307D02*
X3028Y1307D01*
X3079Y1307D02*
X3128Y1307D01*
X2480Y1306D02*
X2528Y1306D01*
X2580Y1306D02*
X2628Y1306D01*
X2680Y1306D02*
X2728Y1306D01*
X2780Y1306D02*
X2828Y1306D01*
X2880Y1306D02*
X2928Y1306D01*
X2980Y1306D02*
X3028Y1306D01*
X3080Y1306D02*
X3128Y1306D01*
X2480Y1305D02*
X2528Y1305D01*
X2580Y1305D02*
X2628Y1305D01*
X2680Y1305D02*
X2728Y1305D01*
X2780Y1305D02*
X2828Y1305D01*
X2880Y1305D02*
X2928Y1305D01*
X2980Y1305D02*
X3028Y1305D01*
X3080Y1305D02*
X3128Y1305D01*
X2481Y1304D02*
X2527Y1304D01*
X2581Y1304D02*
X2627Y1304D01*
X2680Y1304D02*
X2727Y1304D01*
X2780Y1304D02*
X2827Y1304D01*
X2880Y1304D02*
X2927Y1304D01*
X2980Y1304D02*
X3027Y1304D01*
X3080Y1304D02*
X3127Y1304D01*
X2481Y1303D02*
X2527Y1303D01*
X2581Y1303D02*
X2627Y1303D01*
X2681Y1303D02*
X2727Y1303D01*
X2781Y1303D02*
X2827Y1303D01*
X2881Y1303D02*
X2927Y1303D01*
X2981Y1303D02*
X3027Y1303D01*
X3081Y1303D02*
X3127Y1303D01*
X2482Y1302D02*
X2526Y1302D01*
X2582Y1302D02*
X2626Y1302D01*
X2682Y1302D02*
X2726Y1302D01*
X2782Y1302D02*
X2826Y1302D01*
X2882Y1302D02*
X2926Y1302D01*
X2982Y1302D02*
X3026Y1302D01*
X3082Y1302D02*
X3126Y1302D01*
X2482Y1301D02*
X2526Y1301D01*
X2582Y1301D02*
X2626Y1301D01*
X2682Y1301D02*
X2726Y1301D01*
X2782Y1301D02*
X2826Y1301D01*
X2882Y1301D02*
X2926Y1301D01*
X2982Y1301D02*
X3026Y1301D01*
X3082Y1301D02*
X3126Y1301D01*
X2483Y1300D02*
X2525Y1300D01*
X2583Y1300D02*
X2625Y1300D01*
X2683Y1300D02*
X2725Y1300D01*
X2783Y1300D02*
X2825Y1300D01*
X2883Y1300D02*
X2925Y1300D01*
X2983Y1300D02*
X3025Y1300D01*
X3083Y1300D02*
X3125Y1300D01*
X2483Y1299D02*
X2525Y1299D01*
X2583Y1299D02*
X2625Y1299D01*
X2683Y1299D02*
X2725Y1299D01*
X2783Y1299D02*
X2825Y1299D01*
X2883Y1299D02*
X2925Y1299D01*
X2983Y1299D02*
X3025Y1299D01*
X3083Y1299D02*
X3124Y1299D01*
X2484Y1298D02*
X2524Y1298D01*
X2584Y1298D02*
X2624Y1298D01*
X2684Y1298D02*
X2724Y1298D01*
X2784Y1298D02*
X2824Y1298D01*
X2884Y1298D02*
X2924Y1298D01*
X2984Y1298D02*
X3024Y1298D01*
X3084Y1298D02*
X3124Y1298D01*
X2485Y1297D02*
X2523Y1297D01*
X2585Y1297D02*
X2623Y1297D01*
X2685Y1297D02*
X2723Y1297D01*
X2785Y1297D02*
X2823Y1297D01*
X2885Y1297D02*
X2923Y1297D01*
X2985Y1297D02*
X3023Y1297D01*
X3085Y1297D02*
X3123Y1297D01*
X2486Y1296D02*
X2522Y1296D01*
X2586Y1296D02*
X2622Y1296D01*
X2686Y1296D02*
X2722Y1296D01*
X2786Y1296D02*
X2822Y1296D01*
X2886Y1296D02*
X2922Y1296D01*
X2986Y1296D02*
X3022Y1296D01*
X3086Y1296D02*
X3122Y1296D01*
X2487Y1295D02*
X2521Y1295D01*
X2587Y1295D02*
X2621Y1295D01*
X2687Y1295D02*
X2721Y1295D01*
X2787Y1295D02*
X2821Y1295D01*
X2887Y1295D02*
X2921Y1295D01*
X2987Y1295D02*
X3021Y1295D01*
X3087Y1295D02*
X3121Y1295D01*
X2488Y1294D02*
X2520Y1294D01*
X2588Y1294D02*
X2620Y1294D01*
X2688Y1294D02*
X2720Y1294D01*
X2788Y1294D02*
X2820Y1294D01*
X2888Y1294D02*
X2920Y1294D01*
X2988Y1294D02*
X3020Y1294D01*
X3088Y1294D02*
X3120Y1294D01*
X2489Y1293D02*
X2519Y1293D01*
X2589Y1293D02*
X2619Y1293D01*
X2689Y1293D02*
X2719Y1293D01*
X2789Y1293D02*
X2819Y1293D01*
X2889Y1293D02*
X2919Y1293D01*
X2989Y1293D02*
X3019Y1293D01*
X3089Y1293D02*
X3118Y1293D01*
X2491Y1292D02*
X2517Y1292D01*
X2591Y1292D02*
X2617Y1292D01*
X2691Y1292D02*
X2717Y1292D01*
X2791Y1292D02*
X2817Y1292D01*
X2891Y1292D02*
X2917Y1292D01*
X2991Y1292D02*
X3017Y1292D01*
X3091Y1292D02*
X3117Y1292D01*
X2493Y1291D02*
X2515Y1291D01*
X2593Y1291D02*
X2615Y1291D01*
X2693Y1291D02*
X2715Y1291D01*
X2793Y1291D02*
X2815Y1291D01*
X2893Y1291D02*
X2915Y1291D01*
X2993Y1291D02*
X3015Y1291D01*
X3093Y1291D02*
X3115Y1291D01*
X2495Y1290D02*
X2513Y1290D01*
X2595Y1290D02*
X2613Y1290D01*
X2695Y1290D02*
X2713Y1290D01*
X2795Y1290D02*
X2813Y1290D01*
X2895Y1290D02*
X2913Y1290D01*
X2995Y1290D02*
X3013Y1290D01*
X3095Y1290D02*
X3113Y1290D01*
X2498Y1289D02*
X2510Y1289D01*
X2598Y1289D02*
X2610Y1289D01*
X2698Y1289D02*
X2710Y1289D01*
X2798Y1289D02*
X2810Y1289D01*
X2898Y1289D02*
X2910Y1289D01*
X2998Y1289D02*
X3010Y1289D01*
X3098Y1289D02*
X3110Y1289D01*
D02*
G04 End of Copper0*
M02*