G04 MADE WITH FRITZING*
G04 WWW.FRITZING.ORG*
G04 DOUBLE SIDED*
G04 HOLES PLATED*
G04 CONTOUR ON CENTER OF CONTOUR VECTOR*
%ASAXBY*%
%FSLAX23Y23*%
%MOIN*%
%OFA0B0*%
%SFA1.0B1.0*%
%ADD10C,0.085000*%
%ADD11C,0.080000*%
%ADD12C,0.072992*%
%ADD13C,0.088000*%
%ADD14C,0.062000*%
%ADD15C,0.049370*%
%ADD16R,0.085000X0.085000*%
%ADD17R,0.072992X0.072992*%
%ADD18R,0.088000X0.088000*%
%ADD19R,0.001000X0.001000*%
%LNMASK1*%
G90*
G70*
G54D10*
X505Y1840D03*
X505Y1440D03*
X205Y1040D03*
X305Y1040D03*
G54D11*
X1705Y1840D03*
X1705Y1740D03*
G54D10*
X1105Y1540D03*
X1105Y1940D03*
X305Y640D03*
X605Y640D03*
X305Y540D03*
X605Y540D03*
X305Y440D03*
X605Y440D03*
X305Y340D03*
X605Y340D03*
G54D12*
X1705Y1141D03*
X1705Y1240D03*
X1705Y141D03*
X1705Y240D03*
X1705Y741D03*
X1705Y840D03*
X1705Y441D03*
X1705Y540D03*
G54D10*
X2605Y2140D03*
X2861Y2140D03*
X2605Y1963D03*
X2861Y1963D03*
G54D13*
X205Y1940D03*
X205Y1840D03*
G54D10*
X2105Y640D03*
X2505Y640D03*
X2205Y440D03*
X2605Y440D03*
X2405Y140D03*
X2805Y140D03*
X2105Y1140D03*
X2505Y1140D03*
G54D14*
X2505Y1340D03*
X2605Y1340D03*
X2705Y1340D03*
X2805Y1340D03*
X2905Y1340D03*
X3005Y1340D03*
X3105Y1340D03*
X3105Y1640D03*
X3005Y1640D03*
X2905Y1640D03*
X2805Y1640D03*
X2705Y1640D03*
X2605Y1640D03*
X2505Y1640D03*
X2505Y1340D03*
X2605Y1340D03*
X2705Y1340D03*
X2805Y1340D03*
X2905Y1340D03*
X3005Y1340D03*
X3105Y1340D03*
X3105Y1640D03*
X3005Y1640D03*
X2905Y1640D03*
X2805Y1640D03*
X2705Y1640D03*
X2605Y1640D03*
X2505Y1640D03*
G54D15*
X1205Y340D03*
X1405Y1440D03*
G54D16*
X205Y1040D03*
X305Y640D03*
G54D17*
X1705Y1141D03*
X1705Y141D03*
X1705Y741D03*
X1705Y441D03*
G54D18*
X205Y1940D03*
G54D19*
X2503Y1697D02*
X2505Y1697D01*
X2603Y1697D02*
X2605Y1697D01*
X2703Y1697D02*
X2705Y1697D01*
X2803Y1697D02*
X2805Y1697D01*
X2903Y1697D02*
X2905Y1697D01*
X3003Y1697D02*
X3005Y1697D01*
X3103Y1697D02*
X3105Y1697D01*
X2497Y1696D02*
X2511Y1696D01*
X2597Y1696D02*
X2611Y1696D01*
X2697Y1696D02*
X2711Y1696D01*
X2797Y1696D02*
X2811Y1696D01*
X2897Y1696D02*
X2911Y1696D01*
X2997Y1696D02*
X3011Y1696D01*
X3097Y1696D02*
X3111Y1696D01*
X2494Y1695D02*
X2514Y1695D01*
X2594Y1695D02*
X2614Y1695D01*
X2694Y1695D02*
X2714Y1695D01*
X2794Y1695D02*
X2814Y1695D01*
X2894Y1695D02*
X2914Y1695D01*
X2994Y1695D02*
X3014Y1695D01*
X3094Y1695D02*
X3114Y1695D01*
X2491Y1694D02*
X2517Y1694D01*
X2591Y1694D02*
X2617Y1694D01*
X2691Y1694D02*
X2717Y1694D01*
X2791Y1694D02*
X2817Y1694D01*
X2891Y1694D02*
X2917Y1694D01*
X2991Y1694D02*
X3017Y1694D01*
X3091Y1694D02*
X3117Y1694D01*
X2489Y1693D02*
X2519Y1693D01*
X2589Y1693D02*
X2619Y1693D01*
X2689Y1693D02*
X2719Y1693D01*
X2789Y1693D02*
X2819Y1693D01*
X2889Y1693D02*
X2919Y1693D01*
X2989Y1693D02*
X3019Y1693D01*
X3089Y1693D02*
X3119Y1693D01*
X2488Y1692D02*
X2520Y1692D01*
X2588Y1692D02*
X2620Y1692D01*
X2688Y1692D02*
X2720Y1692D01*
X2788Y1692D02*
X2820Y1692D01*
X2888Y1692D02*
X2920Y1692D01*
X2988Y1692D02*
X3020Y1692D01*
X3088Y1692D02*
X3120Y1692D01*
X2486Y1691D02*
X2522Y1691D01*
X2586Y1691D02*
X2622Y1691D01*
X2686Y1691D02*
X2722Y1691D01*
X2786Y1691D02*
X2822Y1691D01*
X2886Y1691D02*
X2922Y1691D01*
X2986Y1691D02*
X3022Y1691D01*
X3086Y1691D02*
X3122Y1691D01*
X2485Y1690D02*
X2523Y1690D01*
X2585Y1690D02*
X2623Y1690D01*
X2685Y1690D02*
X2723Y1690D01*
X2785Y1690D02*
X2823Y1690D01*
X2885Y1690D02*
X2923Y1690D01*
X2985Y1690D02*
X3023Y1690D01*
X3085Y1690D02*
X3123Y1690D01*
X2484Y1689D02*
X2524Y1689D01*
X2584Y1689D02*
X2624Y1689D01*
X2684Y1689D02*
X2724Y1689D01*
X2784Y1689D02*
X2824Y1689D01*
X2884Y1689D02*
X2924Y1689D01*
X2984Y1689D02*
X3024Y1689D01*
X3084Y1689D02*
X3124Y1689D01*
X2483Y1688D02*
X2525Y1688D01*
X2583Y1688D02*
X2625Y1688D01*
X2683Y1688D02*
X2725Y1688D01*
X2783Y1688D02*
X2825Y1688D01*
X2883Y1688D02*
X2925Y1688D01*
X2983Y1688D02*
X3025Y1688D01*
X3083Y1688D02*
X3125Y1688D01*
X2482Y1687D02*
X2526Y1687D01*
X2582Y1687D02*
X2626Y1687D01*
X2682Y1687D02*
X2726Y1687D01*
X2782Y1687D02*
X2826Y1687D01*
X2882Y1687D02*
X2926Y1687D01*
X2982Y1687D02*
X3026Y1687D01*
X3082Y1687D02*
X3126Y1687D01*
X2481Y1686D02*
X2527Y1686D01*
X2581Y1686D02*
X2627Y1686D01*
X2681Y1686D02*
X2727Y1686D01*
X2781Y1686D02*
X2827Y1686D01*
X2881Y1686D02*
X2927Y1686D01*
X2981Y1686D02*
X3027Y1686D01*
X3081Y1686D02*
X3127Y1686D01*
X2480Y1685D02*
X2528Y1685D01*
X2580Y1685D02*
X2628Y1685D01*
X2680Y1685D02*
X2728Y1685D01*
X2780Y1685D02*
X2828Y1685D01*
X2880Y1685D02*
X2928Y1685D01*
X2980Y1685D02*
X3028Y1685D01*
X3080Y1685D02*
X3128Y1685D01*
X2479Y1684D02*
X2529Y1684D01*
X2579Y1684D02*
X2629Y1684D01*
X2679Y1684D02*
X2729Y1684D01*
X2779Y1684D02*
X2829Y1684D01*
X2879Y1684D02*
X2929Y1684D01*
X2979Y1684D02*
X3029Y1684D01*
X3079Y1684D02*
X3129Y1684D01*
X2479Y1683D02*
X2529Y1683D01*
X2579Y1683D02*
X2629Y1683D01*
X2679Y1683D02*
X2729Y1683D01*
X2779Y1683D02*
X2829Y1683D01*
X2879Y1683D02*
X2929Y1683D01*
X2979Y1683D02*
X3029Y1683D01*
X3079Y1683D02*
X3129Y1683D01*
X2478Y1682D02*
X2530Y1682D01*
X2578Y1682D02*
X2630Y1682D01*
X2678Y1682D02*
X2730Y1682D01*
X2778Y1682D02*
X2830Y1682D01*
X2878Y1682D02*
X2930Y1682D01*
X2978Y1682D02*
X3030Y1682D01*
X3078Y1682D02*
X3130Y1682D01*
X2477Y1681D02*
X2531Y1681D01*
X2577Y1681D02*
X2631Y1681D01*
X2677Y1681D02*
X2731Y1681D01*
X2777Y1681D02*
X2830Y1681D01*
X2877Y1681D02*
X2930Y1681D01*
X2977Y1681D02*
X3030Y1681D01*
X3077Y1681D02*
X3130Y1681D01*
X2477Y1680D02*
X2531Y1680D01*
X2577Y1680D02*
X2631Y1680D01*
X2677Y1680D02*
X2731Y1680D01*
X2777Y1680D02*
X2831Y1680D01*
X2877Y1680D02*
X2931Y1680D01*
X2977Y1680D02*
X3031Y1680D01*
X3077Y1680D02*
X3131Y1680D01*
X2476Y1679D02*
X2532Y1679D01*
X2576Y1679D02*
X2631Y1679D01*
X2676Y1679D02*
X2731Y1679D01*
X2776Y1679D02*
X2831Y1679D01*
X2876Y1679D02*
X2931Y1679D01*
X2976Y1679D02*
X3031Y1679D01*
X3076Y1679D02*
X3131Y1679D01*
X2476Y1678D02*
X2532Y1678D01*
X2576Y1678D02*
X2632Y1678D01*
X2676Y1678D02*
X2732Y1678D01*
X2776Y1678D02*
X2832Y1678D01*
X2876Y1678D02*
X2932Y1678D01*
X2976Y1678D02*
X3032Y1678D01*
X3076Y1678D02*
X3132Y1678D01*
X2476Y1677D02*
X2532Y1677D01*
X2576Y1677D02*
X2632Y1677D01*
X2676Y1677D02*
X2732Y1677D01*
X2776Y1677D02*
X2832Y1677D01*
X2876Y1677D02*
X2932Y1677D01*
X2976Y1677D02*
X3032Y1677D01*
X3076Y1677D02*
X3132Y1677D01*
X2475Y1676D02*
X2533Y1676D01*
X2575Y1676D02*
X2633Y1676D01*
X2675Y1676D02*
X2733Y1676D01*
X2775Y1676D02*
X2833Y1676D01*
X2875Y1676D02*
X2933Y1676D01*
X2975Y1676D02*
X3033Y1676D01*
X3075Y1676D02*
X3133Y1676D01*
X2475Y1675D02*
X2533Y1675D01*
X2575Y1675D02*
X2633Y1675D01*
X2675Y1675D02*
X2733Y1675D01*
X2775Y1675D02*
X2833Y1675D01*
X2875Y1675D02*
X2933Y1675D01*
X2975Y1675D02*
X3033Y1675D01*
X3075Y1675D02*
X3133Y1675D01*
X2475Y1674D02*
X2533Y1674D01*
X2575Y1674D02*
X2633Y1674D01*
X2675Y1674D02*
X2733Y1674D01*
X2775Y1674D02*
X2833Y1674D01*
X2875Y1674D02*
X2933Y1674D01*
X2975Y1674D02*
X3033Y1674D01*
X3075Y1674D02*
X3133Y1674D01*
X2474Y1673D02*
X2534Y1673D01*
X2574Y1673D02*
X2634Y1673D01*
X2674Y1673D02*
X2734Y1673D01*
X2774Y1673D02*
X2834Y1673D01*
X2874Y1673D02*
X2934Y1673D01*
X2974Y1673D02*
X3034Y1673D01*
X3074Y1673D02*
X3134Y1673D01*
X2474Y1672D02*
X2534Y1672D01*
X2574Y1672D02*
X2634Y1672D01*
X2674Y1672D02*
X2734Y1672D01*
X2774Y1672D02*
X2834Y1672D01*
X2874Y1672D02*
X2934Y1672D01*
X2974Y1672D02*
X3034Y1672D01*
X3074Y1672D02*
X3134Y1672D01*
X2474Y1671D02*
X2534Y1671D01*
X2574Y1671D02*
X2634Y1671D01*
X2674Y1671D02*
X2734Y1671D01*
X2774Y1671D02*
X2834Y1671D01*
X2874Y1671D02*
X2934Y1671D01*
X2974Y1671D02*
X3034Y1671D01*
X3074Y1671D02*
X3134Y1671D01*
X2474Y1670D02*
X2534Y1670D01*
X2574Y1670D02*
X2634Y1670D01*
X2674Y1670D02*
X2734Y1670D01*
X2774Y1670D02*
X2834Y1670D01*
X2874Y1670D02*
X2934Y1670D01*
X2974Y1670D02*
X3034Y1670D01*
X3074Y1670D02*
X3134Y1670D01*
X2474Y1669D02*
X2534Y1669D01*
X2574Y1669D02*
X2634Y1669D01*
X2674Y1669D02*
X2734Y1669D01*
X2774Y1669D02*
X2834Y1669D01*
X2874Y1669D02*
X2934Y1669D01*
X2974Y1669D02*
X3034Y1669D01*
X3074Y1669D02*
X3134Y1669D01*
X2474Y1668D02*
X2534Y1668D01*
X2574Y1668D02*
X2634Y1668D01*
X2674Y1668D02*
X2734Y1668D01*
X2774Y1668D02*
X2834Y1668D01*
X2874Y1668D02*
X2934Y1668D01*
X2974Y1668D02*
X3034Y1668D01*
X3074Y1668D02*
X3134Y1668D01*
X2474Y1667D02*
X2534Y1667D01*
X2574Y1667D02*
X2634Y1667D01*
X2673Y1667D02*
X2734Y1667D01*
X2773Y1667D02*
X2834Y1667D01*
X2873Y1667D02*
X2934Y1667D01*
X2973Y1667D02*
X3034Y1667D01*
X3073Y1667D02*
X3134Y1667D01*
X2473Y1666D02*
X2534Y1666D01*
X2573Y1666D02*
X2634Y1666D01*
X2673Y1666D02*
X2734Y1666D01*
X2773Y1666D02*
X2834Y1666D01*
X2873Y1666D02*
X2934Y1666D01*
X2973Y1666D02*
X3034Y1666D01*
X3073Y1666D02*
X3134Y1666D01*
X2473Y1665D02*
X2534Y1665D01*
X2573Y1665D02*
X2634Y1665D01*
X2673Y1665D02*
X2734Y1665D01*
X2773Y1665D02*
X2834Y1665D01*
X2873Y1665D02*
X2934Y1665D01*
X2973Y1665D02*
X3034Y1665D01*
X3073Y1665D02*
X3134Y1665D01*
X2473Y1664D02*
X2534Y1664D01*
X2573Y1664D02*
X2634Y1664D01*
X2673Y1664D02*
X2734Y1664D01*
X2773Y1664D02*
X2834Y1664D01*
X2873Y1664D02*
X2934Y1664D01*
X2973Y1664D02*
X3034Y1664D01*
X3073Y1664D02*
X3134Y1664D01*
X2473Y1663D02*
X2534Y1663D01*
X2573Y1663D02*
X2634Y1663D01*
X2673Y1663D02*
X2734Y1663D01*
X2773Y1663D02*
X2834Y1663D01*
X2873Y1663D02*
X2934Y1663D01*
X2973Y1663D02*
X3034Y1663D01*
X3073Y1663D02*
X3134Y1663D01*
X2473Y1662D02*
X2534Y1662D01*
X2573Y1662D02*
X2634Y1662D01*
X2673Y1662D02*
X2734Y1662D01*
X2773Y1662D02*
X2834Y1662D01*
X2873Y1662D02*
X2934Y1662D01*
X2973Y1662D02*
X3034Y1662D01*
X3073Y1662D02*
X3134Y1662D01*
X2473Y1661D02*
X2534Y1661D01*
X2573Y1661D02*
X2634Y1661D01*
X2673Y1661D02*
X2734Y1661D01*
X2773Y1661D02*
X2834Y1661D01*
X2873Y1661D02*
X2934Y1661D01*
X2973Y1661D02*
X3034Y1661D01*
X3073Y1661D02*
X3134Y1661D01*
X2473Y1660D02*
X2534Y1660D01*
X2573Y1660D02*
X2634Y1660D01*
X2673Y1660D02*
X2734Y1660D01*
X2773Y1660D02*
X2834Y1660D01*
X2873Y1660D02*
X2934Y1660D01*
X2973Y1660D02*
X3034Y1660D01*
X3073Y1660D02*
X3134Y1660D01*
X2473Y1659D02*
X2534Y1659D01*
X2573Y1659D02*
X2634Y1659D01*
X2673Y1659D02*
X2734Y1659D01*
X2773Y1659D02*
X2834Y1659D01*
X2873Y1659D02*
X2934Y1659D01*
X2973Y1659D02*
X3034Y1659D01*
X3073Y1659D02*
X3134Y1659D01*
X2473Y1658D02*
X2534Y1658D01*
X2573Y1658D02*
X2634Y1658D01*
X2673Y1658D02*
X2734Y1658D01*
X2773Y1658D02*
X2834Y1658D01*
X2873Y1658D02*
X2934Y1658D01*
X2973Y1658D02*
X3034Y1658D01*
X3073Y1658D02*
X3134Y1658D01*
X2473Y1657D02*
X2534Y1657D01*
X2573Y1657D02*
X2634Y1657D01*
X2673Y1657D02*
X2734Y1657D01*
X2773Y1657D02*
X2834Y1657D01*
X2873Y1657D02*
X2934Y1657D01*
X2973Y1657D02*
X3034Y1657D01*
X3073Y1657D02*
X3134Y1657D01*
X2473Y1656D02*
X2534Y1656D01*
X2573Y1656D02*
X2634Y1656D01*
X2673Y1656D02*
X2734Y1656D01*
X2773Y1656D02*
X2834Y1656D01*
X2873Y1656D02*
X2934Y1656D01*
X2973Y1656D02*
X3034Y1656D01*
X3073Y1656D02*
X3134Y1656D01*
X2473Y1655D02*
X2534Y1655D01*
X2573Y1655D02*
X2634Y1655D01*
X2673Y1655D02*
X2734Y1655D01*
X2773Y1655D02*
X2834Y1655D01*
X2873Y1655D02*
X2934Y1655D01*
X2973Y1655D02*
X3034Y1655D01*
X3073Y1655D02*
X3134Y1655D01*
X2473Y1654D02*
X2534Y1654D01*
X2573Y1654D02*
X2634Y1654D01*
X2673Y1654D02*
X2734Y1654D01*
X2773Y1654D02*
X2834Y1654D01*
X2873Y1654D02*
X2934Y1654D01*
X2973Y1654D02*
X3034Y1654D01*
X3073Y1654D02*
X3134Y1654D01*
X2473Y1653D02*
X2534Y1653D01*
X2573Y1653D02*
X2634Y1653D01*
X2673Y1653D02*
X2734Y1653D01*
X2773Y1653D02*
X2834Y1653D01*
X2873Y1653D02*
X2934Y1653D01*
X2973Y1653D02*
X3034Y1653D01*
X3073Y1653D02*
X3134Y1653D01*
X2473Y1652D02*
X2534Y1652D01*
X2573Y1652D02*
X2634Y1652D01*
X2673Y1652D02*
X2734Y1652D01*
X2773Y1652D02*
X2834Y1652D01*
X2873Y1652D02*
X2934Y1652D01*
X2973Y1652D02*
X3034Y1652D01*
X3073Y1652D02*
X3134Y1652D01*
X2473Y1651D02*
X2503Y1651D01*
X2505Y1651D02*
X2534Y1651D01*
X2573Y1651D02*
X2603Y1651D01*
X2605Y1651D02*
X2634Y1651D01*
X2673Y1651D02*
X2703Y1651D01*
X2705Y1651D02*
X2734Y1651D01*
X2773Y1651D02*
X2803Y1651D01*
X2805Y1651D02*
X2834Y1651D01*
X2873Y1651D02*
X2903Y1651D01*
X2905Y1651D02*
X2934Y1651D01*
X2973Y1651D02*
X3003Y1651D01*
X3005Y1651D02*
X3034Y1651D01*
X3073Y1651D02*
X3103Y1651D01*
X3105Y1651D02*
X3134Y1651D01*
X2473Y1650D02*
X2499Y1650D01*
X2509Y1650D02*
X2534Y1650D01*
X2573Y1650D02*
X2599Y1650D01*
X2609Y1650D02*
X2634Y1650D01*
X2673Y1650D02*
X2699Y1650D01*
X2709Y1650D02*
X2734Y1650D01*
X2773Y1650D02*
X2799Y1650D01*
X2809Y1650D02*
X2834Y1650D01*
X2873Y1650D02*
X2899Y1650D01*
X2909Y1650D02*
X2934Y1650D01*
X2973Y1650D02*
X2999Y1650D01*
X3009Y1650D02*
X3034Y1650D01*
X3073Y1650D02*
X3099Y1650D01*
X3109Y1650D02*
X3134Y1650D01*
X2473Y1649D02*
X2497Y1649D01*
X2511Y1649D02*
X2534Y1649D01*
X2573Y1649D02*
X2597Y1649D01*
X2611Y1649D02*
X2634Y1649D01*
X2673Y1649D02*
X2697Y1649D01*
X2711Y1649D02*
X2734Y1649D01*
X2773Y1649D02*
X2797Y1649D01*
X2811Y1649D02*
X2834Y1649D01*
X2873Y1649D02*
X2897Y1649D01*
X2911Y1649D02*
X2934Y1649D01*
X2973Y1649D02*
X2997Y1649D01*
X3011Y1649D02*
X3034Y1649D01*
X3073Y1649D02*
X3097Y1649D01*
X3111Y1649D02*
X3134Y1649D01*
X2473Y1648D02*
X2496Y1648D01*
X2512Y1648D02*
X2534Y1648D01*
X2573Y1648D02*
X2596Y1648D01*
X2612Y1648D02*
X2634Y1648D01*
X2673Y1648D02*
X2696Y1648D01*
X2712Y1648D02*
X2734Y1648D01*
X2773Y1648D02*
X2796Y1648D01*
X2812Y1648D02*
X2834Y1648D01*
X2873Y1648D02*
X2896Y1648D01*
X2912Y1648D02*
X2934Y1648D01*
X2973Y1648D02*
X2996Y1648D01*
X3012Y1648D02*
X3034Y1648D01*
X3073Y1648D02*
X3096Y1648D01*
X3112Y1648D02*
X3134Y1648D01*
X2473Y1647D02*
X2495Y1647D01*
X2513Y1647D02*
X2534Y1647D01*
X2573Y1647D02*
X2595Y1647D01*
X2613Y1647D02*
X2634Y1647D01*
X2673Y1647D02*
X2695Y1647D01*
X2713Y1647D02*
X2734Y1647D01*
X2773Y1647D02*
X2795Y1647D01*
X2813Y1647D02*
X2834Y1647D01*
X2873Y1647D02*
X2895Y1647D01*
X2913Y1647D02*
X2934Y1647D01*
X2973Y1647D02*
X2995Y1647D01*
X3013Y1647D02*
X3034Y1647D01*
X3073Y1647D02*
X3095Y1647D01*
X3113Y1647D02*
X3134Y1647D01*
X2473Y1646D02*
X2494Y1646D01*
X2514Y1646D02*
X2534Y1646D01*
X2573Y1646D02*
X2594Y1646D01*
X2614Y1646D02*
X2634Y1646D01*
X2673Y1646D02*
X2694Y1646D01*
X2714Y1646D02*
X2734Y1646D01*
X2773Y1646D02*
X2794Y1646D01*
X2814Y1646D02*
X2834Y1646D01*
X2873Y1646D02*
X2894Y1646D01*
X2914Y1646D02*
X2934Y1646D01*
X2973Y1646D02*
X2994Y1646D01*
X3014Y1646D02*
X3034Y1646D01*
X3073Y1646D02*
X3094Y1646D01*
X3114Y1646D02*
X3134Y1646D01*
X2473Y1645D02*
X2494Y1645D01*
X2514Y1645D02*
X2534Y1645D01*
X2573Y1645D02*
X2594Y1645D01*
X2614Y1645D02*
X2634Y1645D01*
X2673Y1645D02*
X2694Y1645D01*
X2714Y1645D02*
X2734Y1645D01*
X2773Y1645D02*
X2794Y1645D01*
X2814Y1645D02*
X2834Y1645D01*
X2873Y1645D02*
X2894Y1645D01*
X2914Y1645D02*
X2934Y1645D01*
X2973Y1645D02*
X2994Y1645D01*
X3014Y1645D02*
X3034Y1645D01*
X3073Y1645D02*
X3094Y1645D01*
X3114Y1645D02*
X3134Y1645D01*
X2473Y1644D02*
X2493Y1644D01*
X2515Y1644D02*
X2534Y1644D01*
X2573Y1644D02*
X2593Y1644D01*
X2615Y1644D02*
X2634Y1644D01*
X2673Y1644D02*
X2693Y1644D01*
X2715Y1644D02*
X2734Y1644D01*
X2773Y1644D02*
X2793Y1644D01*
X2815Y1644D02*
X2834Y1644D01*
X2873Y1644D02*
X2893Y1644D01*
X2915Y1644D02*
X2934Y1644D01*
X2973Y1644D02*
X2993Y1644D01*
X3015Y1644D02*
X3034Y1644D01*
X3073Y1644D02*
X3093Y1644D01*
X3115Y1644D02*
X3134Y1644D01*
X2473Y1643D02*
X2493Y1643D01*
X2515Y1643D02*
X2534Y1643D01*
X2573Y1643D02*
X2593Y1643D01*
X2615Y1643D02*
X2634Y1643D01*
X2673Y1643D02*
X2693Y1643D01*
X2715Y1643D02*
X2734Y1643D01*
X2773Y1643D02*
X2793Y1643D01*
X2815Y1643D02*
X2834Y1643D01*
X2873Y1643D02*
X2893Y1643D01*
X2915Y1643D02*
X2934Y1643D01*
X2973Y1643D02*
X2993Y1643D01*
X3015Y1643D02*
X3034Y1643D01*
X3073Y1643D02*
X3093Y1643D01*
X3115Y1643D02*
X3134Y1643D01*
X2473Y1642D02*
X2493Y1642D01*
X2515Y1642D02*
X2534Y1642D01*
X2573Y1642D02*
X2593Y1642D01*
X2615Y1642D02*
X2634Y1642D01*
X2673Y1642D02*
X2693Y1642D01*
X2715Y1642D02*
X2734Y1642D01*
X2773Y1642D02*
X2793Y1642D01*
X2815Y1642D02*
X2834Y1642D01*
X2873Y1642D02*
X2893Y1642D01*
X2915Y1642D02*
X2934Y1642D01*
X2973Y1642D02*
X2993Y1642D01*
X3015Y1642D02*
X3034Y1642D01*
X3073Y1642D02*
X3093Y1642D01*
X3115Y1642D02*
X3134Y1642D01*
X2473Y1641D02*
X2493Y1641D01*
X2515Y1641D02*
X2534Y1641D01*
X2573Y1641D02*
X2593Y1641D01*
X2615Y1641D02*
X2634Y1641D01*
X2673Y1641D02*
X2693Y1641D01*
X2715Y1641D02*
X2734Y1641D01*
X2773Y1641D02*
X2793Y1641D01*
X2815Y1641D02*
X2834Y1641D01*
X2873Y1641D02*
X2892Y1641D01*
X2915Y1641D02*
X2934Y1641D01*
X2973Y1641D02*
X2992Y1641D01*
X3015Y1641D02*
X3034Y1641D01*
X3073Y1641D02*
X3092Y1641D01*
X3115Y1641D02*
X3134Y1641D01*
X2473Y1640D02*
X2492Y1640D01*
X2515Y1640D02*
X2534Y1640D01*
X2573Y1640D02*
X2592Y1640D01*
X2615Y1640D02*
X2634Y1640D01*
X2673Y1640D02*
X2692Y1640D01*
X2715Y1640D02*
X2734Y1640D01*
X2773Y1640D02*
X2792Y1640D01*
X2815Y1640D02*
X2834Y1640D01*
X2873Y1640D02*
X2892Y1640D01*
X2915Y1640D02*
X2934Y1640D01*
X2973Y1640D02*
X2992Y1640D01*
X3015Y1640D02*
X3034Y1640D01*
X3073Y1640D02*
X3092Y1640D01*
X3115Y1640D02*
X3134Y1640D01*
X2473Y1639D02*
X2493Y1639D01*
X2515Y1639D02*
X2534Y1639D01*
X2573Y1639D02*
X2593Y1639D01*
X2615Y1639D02*
X2634Y1639D01*
X2673Y1639D02*
X2693Y1639D01*
X2715Y1639D02*
X2734Y1639D01*
X2773Y1639D02*
X2793Y1639D01*
X2815Y1639D02*
X2834Y1639D01*
X2873Y1639D02*
X2893Y1639D01*
X2915Y1639D02*
X2934Y1639D01*
X2973Y1639D02*
X2992Y1639D01*
X3015Y1639D02*
X3034Y1639D01*
X3073Y1639D02*
X3092Y1639D01*
X3115Y1639D02*
X3134Y1639D01*
X2473Y1638D02*
X2493Y1638D01*
X2515Y1638D02*
X2534Y1638D01*
X2573Y1638D02*
X2593Y1638D01*
X2615Y1638D02*
X2634Y1638D01*
X2673Y1638D02*
X2693Y1638D01*
X2715Y1638D02*
X2734Y1638D01*
X2773Y1638D02*
X2793Y1638D01*
X2815Y1638D02*
X2834Y1638D01*
X2873Y1638D02*
X2893Y1638D01*
X2915Y1638D02*
X2934Y1638D01*
X2973Y1638D02*
X2993Y1638D01*
X3015Y1638D02*
X3034Y1638D01*
X3073Y1638D02*
X3093Y1638D01*
X3115Y1638D02*
X3134Y1638D01*
X2473Y1637D02*
X2493Y1637D01*
X2515Y1637D02*
X2534Y1637D01*
X2573Y1637D02*
X2593Y1637D01*
X2615Y1637D02*
X2634Y1637D01*
X2673Y1637D02*
X2693Y1637D01*
X2715Y1637D02*
X2734Y1637D01*
X2773Y1637D02*
X2793Y1637D01*
X2815Y1637D02*
X2834Y1637D01*
X2873Y1637D02*
X2893Y1637D01*
X2915Y1637D02*
X2934Y1637D01*
X2973Y1637D02*
X2993Y1637D01*
X3015Y1637D02*
X3034Y1637D01*
X3073Y1637D02*
X3093Y1637D01*
X3115Y1637D02*
X3134Y1637D01*
X2473Y1636D02*
X2493Y1636D01*
X2515Y1636D02*
X2534Y1636D01*
X2573Y1636D02*
X2593Y1636D01*
X2615Y1636D02*
X2634Y1636D01*
X2673Y1636D02*
X2693Y1636D01*
X2715Y1636D02*
X2734Y1636D01*
X2773Y1636D02*
X2793Y1636D01*
X2815Y1636D02*
X2834Y1636D01*
X2873Y1636D02*
X2893Y1636D01*
X2915Y1636D02*
X2934Y1636D01*
X2973Y1636D02*
X2993Y1636D01*
X3015Y1636D02*
X3034Y1636D01*
X3073Y1636D02*
X3093Y1636D01*
X3115Y1636D02*
X3134Y1636D01*
X2473Y1635D02*
X2494Y1635D01*
X2514Y1635D02*
X2534Y1635D01*
X2573Y1635D02*
X2594Y1635D01*
X2614Y1635D02*
X2634Y1635D01*
X2673Y1635D02*
X2694Y1635D01*
X2714Y1635D02*
X2734Y1635D01*
X2773Y1635D02*
X2794Y1635D01*
X2814Y1635D02*
X2834Y1635D01*
X2873Y1635D02*
X2894Y1635D01*
X2914Y1635D02*
X2934Y1635D01*
X2973Y1635D02*
X2994Y1635D01*
X3014Y1635D02*
X3034Y1635D01*
X3073Y1635D02*
X3094Y1635D01*
X3114Y1635D02*
X3134Y1635D01*
X2473Y1634D02*
X2494Y1634D01*
X2514Y1634D02*
X2534Y1634D01*
X2573Y1634D02*
X2594Y1634D01*
X2614Y1634D02*
X2634Y1634D01*
X2673Y1634D02*
X2694Y1634D01*
X2714Y1634D02*
X2734Y1634D01*
X2773Y1634D02*
X2794Y1634D01*
X2814Y1634D02*
X2834Y1634D01*
X2873Y1634D02*
X2894Y1634D01*
X2914Y1634D02*
X2934Y1634D01*
X2973Y1634D02*
X2994Y1634D01*
X3014Y1634D02*
X3034Y1634D01*
X3073Y1634D02*
X3094Y1634D01*
X3114Y1634D02*
X3134Y1634D01*
X2473Y1633D02*
X2495Y1633D01*
X2513Y1633D02*
X2534Y1633D01*
X2573Y1633D02*
X2595Y1633D01*
X2613Y1633D02*
X2634Y1633D01*
X2673Y1633D02*
X2695Y1633D01*
X2713Y1633D02*
X2734Y1633D01*
X2773Y1633D02*
X2795Y1633D01*
X2813Y1633D02*
X2834Y1633D01*
X2873Y1633D02*
X2895Y1633D01*
X2913Y1633D02*
X2934Y1633D01*
X2973Y1633D02*
X2995Y1633D01*
X3013Y1633D02*
X3034Y1633D01*
X3073Y1633D02*
X3095Y1633D01*
X3113Y1633D02*
X3134Y1633D01*
X2473Y1632D02*
X2496Y1632D01*
X2512Y1632D02*
X2534Y1632D01*
X2573Y1632D02*
X2596Y1632D01*
X2612Y1632D02*
X2634Y1632D01*
X2673Y1632D02*
X2696Y1632D01*
X2712Y1632D02*
X2734Y1632D01*
X2773Y1632D02*
X2796Y1632D01*
X2812Y1632D02*
X2834Y1632D01*
X2873Y1632D02*
X2896Y1632D01*
X2912Y1632D02*
X2934Y1632D01*
X2973Y1632D02*
X2996Y1632D01*
X3012Y1632D02*
X3034Y1632D01*
X3073Y1632D02*
X3096Y1632D01*
X3112Y1632D02*
X3134Y1632D01*
X2473Y1631D02*
X2497Y1631D01*
X2511Y1631D02*
X2534Y1631D01*
X2573Y1631D02*
X2597Y1631D01*
X2611Y1631D02*
X2634Y1631D01*
X2673Y1631D02*
X2697Y1631D01*
X2711Y1631D02*
X2734Y1631D01*
X2773Y1631D02*
X2797Y1631D01*
X2811Y1631D02*
X2834Y1631D01*
X2873Y1631D02*
X2897Y1631D01*
X2911Y1631D02*
X2934Y1631D01*
X2973Y1631D02*
X2997Y1631D01*
X3011Y1631D02*
X3034Y1631D01*
X3073Y1631D02*
X3097Y1631D01*
X3111Y1631D02*
X3134Y1631D01*
X2473Y1630D02*
X2499Y1630D01*
X2509Y1630D02*
X2534Y1630D01*
X2573Y1630D02*
X2599Y1630D01*
X2609Y1630D02*
X2634Y1630D01*
X2673Y1630D02*
X2699Y1630D01*
X2709Y1630D02*
X2734Y1630D01*
X2773Y1630D02*
X2799Y1630D01*
X2809Y1630D02*
X2834Y1630D01*
X2873Y1630D02*
X2899Y1630D01*
X2909Y1630D02*
X2934Y1630D01*
X2973Y1630D02*
X2999Y1630D01*
X3009Y1630D02*
X3034Y1630D01*
X3073Y1630D02*
X3099Y1630D01*
X3109Y1630D02*
X3134Y1630D01*
X2473Y1629D02*
X2534Y1629D01*
X2573Y1629D02*
X2634Y1629D01*
X2673Y1629D02*
X2734Y1629D01*
X2773Y1629D02*
X2834Y1629D01*
X2873Y1629D02*
X2934Y1629D01*
X2973Y1629D02*
X3034Y1629D01*
X3073Y1629D02*
X3134Y1629D01*
X2473Y1628D02*
X2534Y1628D01*
X2573Y1628D02*
X2634Y1628D01*
X2673Y1628D02*
X2734Y1628D01*
X2773Y1628D02*
X2834Y1628D01*
X2873Y1628D02*
X2934Y1628D01*
X2973Y1628D02*
X3034Y1628D01*
X3073Y1628D02*
X3134Y1628D01*
X2473Y1627D02*
X2534Y1627D01*
X2573Y1627D02*
X2634Y1627D01*
X2673Y1627D02*
X2734Y1627D01*
X2773Y1627D02*
X2834Y1627D01*
X2873Y1627D02*
X2934Y1627D01*
X2973Y1627D02*
X3034Y1627D01*
X3073Y1627D02*
X3134Y1627D01*
X2473Y1626D02*
X2534Y1626D01*
X2573Y1626D02*
X2634Y1626D01*
X2673Y1626D02*
X2734Y1626D01*
X2773Y1626D02*
X2834Y1626D01*
X2873Y1626D02*
X2934Y1626D01*
X2973Y1626D02*
X3034Y1626D01*
X3073Y1626D02*
X3134Y1626D01*
X2473Y1625D02*
X2534Y1625D01*
X2573Y1625D02*
X2634Y1625D01*
X2673Y1625D02*
X2734Y1625D01*
X2773Y1625D02*
X2834Y1625D01*
X2873Y1625D02*
X2934Y1625D01*
X2973Y1625D02*
X3034Y1625D01*
X3073Y1625D02*
X3134Y1625D01*
X2473Y1624D02*
X2534Y1624D01*
X2573Y1624D02*
X2634Y1624D01*
X2673Y1624D02*
X2734Y1624D01*
X2773Y1624D02*
X2834Y1624D01*
X2873Y1624D02*
X2934Y1624D01*
X2973Y1624D02*
X3034Y1624D01*
X3073Y1624D02*
X3134Y1624D01*
X2473Y1623D02*
X2534Y1623D01*
X2573Y1623D02*
X2634Y1623D01*
X2673Y1623D02*
X2734Y1623D01*
X2773Y1623D02*
X2834Y1623D01*
X2873Y1623D02*
X2934Y1623D01*
X2973Y1623D02*
X3034Y1623D01*
X3073Y1623D02*
X3134Y1623D01*
X2473Y1622D02*
X2534Y1622D01*
X2573Y1622D02*
X2634Y1622D01*
X2673Y1622D02*
X2734Y1622D01*
X2773Y1622D02*
X2834Y1622D01*
X2873Y1622D02*
X2934Y1622D01*
X2973Y1622D02*
X3034Y1622D01*
X3073Y1622D02*
X3134Y1622D01*
X2473Y1621D02*
X2534Y1621D01*
X2573Y1621D02*
X2634Y1621D01*
X2673Y1621D02*
X2734Y1621D01*
X2773Y1621D02*
X2834Y1621D01*
X2873Y1621D02*
X2934Y1621D01*
X2973Y1621D02*
X3034Y1621D01*
X3073Y1621D02*
X3134Y1621D01*
X2473Y1620D02*
X2534Y1620D01*
X2573Y1620D02*
X2634Y1620D01*
X2673Y1620D02*
X2734Y1620D01*
X2773Y1620D02*
X2834Y1620D01*
X2873Y1620D02*
X2934Y1620D01*
X2973Y1620D02*
X3034Y1620D01*
X3073Y1620D02*
X3134Y1620D01*
X2473Y1619D02*
X2534Y1619D01*
X2573Y1619D02*
X2634Y1619D01*
X2673Y1619D02*
X2734Y1619D01*
X2773Y1619D02*
X2834Y1619D01*
X2873Y1619D02*
X2934Y1619D01*
X2973Y1619D02*
X3034Y1619D01*
X3073Y1619D02*
X3134Y1619D01*
X2473Y1618D02*
X2534Y1618D01*
X2573Y1618D02*
X2634Y1618D01*
X2673Y1618D02*
X2734Y1618D01*
X2773Y1618D02*
X2834Y1618D01*
X2873Y1618D02*
X2934Y1618D01*
X2973Y1618D02*
X3034Y1618D01*
X3073Y1618D02*
X3134Y1618D01*
X2473Y1617D02*
X2534Y1617D01*
X2573Y1617D02*
X2634Y1617D01*
X2673Y1617D02*
X2734Y1617D01*
X2773Y1617D02*
X2834Y1617D01*
X2873Y1617D02*
X2934Y1617D01*
X2973Y1617D02*
X3034Y1617D01*
X3073Y1617D02*
X3134Y1617D01*
X2473Y1616D02*
X2534Y1616D01*
X2573Y1616D02*
X2634Y1616D01*
X2673Y1616D02*
X2734Y1616D01*
X2773Y1616D02*
X2834Y1616D01*
X2873Y1616D02*
X2934Y1616D01*
X2973Y1616D02*
X3034Y1616D01*
X3073Y1616D02*
X3134Y1616D01*
X2473Y1615D02*
X2534Y1615D01*
X2573Y1615D02*
X2634Y1615D01*
X2673Y1615D02*
X2734Y1615D01*
X2773Y1615D02*
X2834Y1615D01*
X2873Y1615D02*
X2934Y1615D01*
X2973Y1615D02*
X3034Y1615D01*
X3073Y1615D02*
X3134Y1615D01*
X2473Y1614D02*
X2534Y1614D01*
X2573Y1614D02*
X2634Y1614D01*
X2673Y1614D02*
X2734Y1614D01*
X2773Y1614D02*
X2834Y1614D01*
X2873Y1614D02*
X2934Y1614D01*
X2973Y1614D02*
X3034Y1614D01*
X3073Y1614D02*
X3134Y1614D01*
X2474Y1613D02*
X2534Y1613D01*
X2574Y1613D02*
X2634Y1613D01*
X2673Y1613D02*
X2734Y1613D01*
X2773Y1613D02*
X2834Y1613D01*
X2873Y1613D02*
X2934Y1613D01*
X2973Y1613D02*
X3034Y1613D01*
X3073Y1613D02*
X3134Y1613D01*
X2474Y1612D02*
X2534Y1612D01*
X2574Y1612D02*
X2634Y1612D01*
X2674Y1612D02*
X2734Y1612D01*
X2774Y1612D02*
X2834Y1612D01*
X2874Y1612D02*
X2934Y1612D01*
X2974Y1612D02*
X3034Y1612D01*
X3074Y1612D02*
X3134Y1612D01*
X2474Y1611D02*
X2534Y1611D01*
X2574Y1611D02*
X2634Y1611D01*
X2674Y1611D02*
X2734Y1611D01*
X2774Y1611D02*
X2834Y1611D01*
X2874Y1611D02*
X2934Y1611D01*
X2974Y1611D02*
X3034Y1611D01*
X3074Y1611D02*
X3134Y1611D01*
X2474Y1610D02*
X2534Y1610D01*
X2574Y1610D02*
X2634Y1610D01*
X2674Y1610D02*
X2734Y1610D01*
X2774Y1610D02*
X2834Y1610D01*
X2874Y1610D02*
X2934Y1610D01*
X2974Y1610D02*
X3034Y1610D01*
X3074Y1610D02*
X3134Y1610D01*
X2474Y1609D02*
X2534Y1609D01*
X2574Y1609D02*
X2634Y1609D01*
X2674Y1609D02*
X2734Y1609D01*
X2774Y1609D02*
X2834Y1609D01*
X2874Y1609D02*
X2934Y1609D01*
X2974Y1609D02*
X3034Y1609D01*
X3074Y1609D02*
X3134Y1609D01*
X2474Y1608D02*
X2534Y1608D01*
X2574Y1608D02*
X2634Y1608D01*
X2674Y1608D02*
X2734Y1608D01*
X2774Y1608D02*
X2834Y1608D01*
X2874Y1608D02*
X2934Y1608D01*
X2974Y1608D02*
X3034Y1608D01*
X3074Y1608D02*
X3134Y1608D01*
X2474Y1607D02*
X2534Y1607D01*
X2574Y1607D02*
X2634Y1607D01*
X2674Y1607D02*
X2734Y1607D01*
X2774Y1607D02*
X2834Y1607D01*
X2874Y1607D02*
X2934Y1607D01*
X2974Y1607D02*
X3034Y1607D01*
X3074Y1607D02*
X3133Y1607D01*
X2475Y1606D02*
X2533Y1606D01*
X2575Y1606D02*
X2633Y1606D01*
X2675Y1606D02*
X2733Y1606D01*
X2775Y1606D02*
X2833Y1606D01*
X2875Y1606D02*
X2933Y1606D01*
X2975Y1606D02*
X3033Y1606D01*
X3075Y1606D02*
X3133Y1606D01*
X2475Y1605D02*
X2533Y1605D01*
X2575Y1605D02*
X2633Y1605D01*
X2675Y1605D02*
X2733Y1605D01*
X2775Y1605D02*
X2833Y1605D01*
X2875Y1605D02*
X2933Y1605D01*
X2975Y1605D02*
X3033Y1605D01*
X3075Y1605D02*
X3133Y1605D01*
X2475Y1604D02*
X2533Y1604D01*
X2575Y1604D02*
X2633Y1604D01*
X2675Y1604D02*
X2733Y1604D01*
X2775Y1604D02*
X2833Y1604D01*
X2875Y1604D02*
X2933Y1604D01*
X2975Y1604D02*
X3033Y1604D01*
X3075Y1604D02*
X3133Y1604D01*
X2476Y1603D02*
X2532Y1603D01*
X2576Y1603D02*
X2632Y1603D01*
X2676Y1603D02*
X2732Y1603D01*
X2776Y1603D02*
X2832Y1603D01*
X2876Y1603D02*
X2932Y1603D01*
X2976Y1603D02*
X3032Y1603D01*
X3076Y1603D02*
X3132Y1603D01*
X2476Y1602D02*
X2532Y1602D01*
X2576Y1602D02*
X2632Y1602D01*
X2676Y1602D02*
X2732Y1602D01*
X2776Y1602D02*
X2832Y1602D01*
X2876Y1602D02*
X2932Y1602D01*
X2976Y1602D02*
X3032Y1602D01*
X3076Y1602D02*
X3132Y1602D01*
X2476Y1601D02*
X2531Y1601D01*
X2576Y1601D02*
X2631Y1601D01*
X2676Y1601D02*
X2731Y1601D01*
X2776Y1601D02*
X2831Y1601D01*
X2876Y1601D02*
X2931Y1601D01*
X2976Y1601D02*
X3031Y1601D01*
X3076Y1601D02*
X3131Y1601D01*
X2477Y1600D02*
X2531Y1600D01*
X2577Y1600D02*
X2631Y1600D01*
X2677Y1600D02*
X2731Y1600D01*
X2777Y1600D02*
X2831Y1600D01*
X2877Y1600D02*
X2931Y1600D01*
X2977Y1600D02*
X3031Y1600D01*
X3077Y1600D02*
X3131Y1600D01*
X2477Y1599D02*
X2530Y1599D01*
X2577Y1599D02*
X2630Y1599D01*
X2677Y1599D02*
X2730Y1599D01*
X2777Y1599D02*
X2830Y1599D01*
X2877Y1599D02*
X2930Y1599D01*
X2977Y1599D02*
X3030Y1599D01*
X3077Y1599D02*
X3130Y1599D01*
X2478Y1598D02*
X2530Y1598D01*
X2578Y1598D02*
X2630Y1598D01*
X2678Y1598D02*
X2730Y1598D01*
X2778Y1598D02*
X2830Y1598D01*
X2878Y1598D02*
X2930Y1598D01*
X2978Y1598D02*
X3030Y1598D01*
X3078Y1598D02*
X3130Y1598D01*
X2479Y1597D02*
X2529Y1597D01*
X2579Y1597D02*
X2629Y1597D01*
X2679Y1597D02*
X2729Y1597D01*
X2779Y1597D02*
X2829Y1597D01*
X2879Y1597D02*
X2929Y1597D01*
X2979Y1597D02*
X3029Y1597D01*
X3079Y1597D02*
X3129Y1597D01*
X2479Y1596D02*
X2529Y1596D01*
X2579Y1596D02*
X2629Y1596D01*
X2679Y1596D02*
X2729Y1596D01*
X2779Y1596D02*
X2829Y1596D01*
X2879Y1596D02*
X2929Y1596D01*
X2979Y1596D02*
X3029Y1596D01*
X3079Y1596D02*
X3129Y1596D01*
X2480Y1595D02*
X2528Y1595D01*
X2580Y1595D02*
X2628Y1595D01*
X2680Y1595D02*
X2728Y1595D01*
X2780Y1595D02*
X2828Y1595D01*
X2880Y1595D02*
X2928Y1595D01*
X2980Y1595D02*
X3028Y1595D01*
X3080Y1595D02*
X3128Y1595D01*
X2481Y1594D02*
X2527Y1594D01*
X2581Y1594D02*
X2627Y1594D01*
X2681Y1594D02*
X2727Y1594D01*
X2781Y1594D02*
X2827Y1594D01*
X2881Y1594D02*
X2927Y1594D01*
X2981Y1594D02*
X3027Y1594D01*
X3081Y1594D02*
X3127Y1594D01*
X2482Y1593D02*
X2526Y1593D01*
X2582Y1593D02*
X2626Y1593D01*
X2682Y1593D02*
X2726Y1593D01*
X2782Y1593D02*
X2826Y1593D01*
X2882Y1593D02*
X2926Y1593D01*
X2982Y1593D02*
X3026Y1593D01*
X3082Y1593D02*
X3126Y1593D01*
X2483Y1592D02*
X2525Y1592D01*
X2583Y1592D02*
X2625Y1592D01*
X2683Y1592D02*
X2725Y1592D01*
X2783Y1592D02*
X2825Y1592D01*
X2883Y1592D02*
X2925Y1592D01*
X2983Y1592D02*
X3025Y1592D01*
X3083Y1592D02*
X3125Y1592D01*
X2484Y1591D02*
X2524Y1591D01*
X2584Y1591D02*
X2624Y1591D01*
X2684Y1591D02*
X2724Y1591D01*
X2784Y1591D02*
X2824Y1591D01*
X2884Y1591D02*
X2924Y1591D01*
X2984Y1591D02*
X3024Y1591D01*
X3084Y1591D02*
X3124Y1591D01*
X2485Y1590D02*
X2523Y1590D01*
X2585Y1590D02*
X2623Y1590D01*
X2685Y1590D02*
X2723Y1590D01*
X2785Y1590D02*
X2823Y1590D01*
X2885Y1590D02*
X2923Y1590D01*
X2985Y1590D02*
X3023Y1590D01*
X3085Y1590D02*
X3123Y1590D01*
X2486Y1589D02*
X2522Y1589D01*
X2586Y1589D02*
X2622Y1589D01*
X2686Y1589D02*
X2722Y1589D01*
X2786Y1589D02*
X2822Y1589D01*
X2886Y1589D02*
X2922Y1589D01*
X2986Y1589D02*
X3022Y1589D01*
X3086Y1589D02*
X3121Y1589D01*
X2488Y1588D02*
X2520Y1588D01*
X2588Y1588D02*
X2620Y1588D01*
X2688Y1588D02*
X2720Y1588D01*
X2788Y1588D02*
X2820Y1588D01*
X2888Y1588D02*
X2920Y1588D01*
X2988Y1588D02*
X3020Y1588D01*
X3088Y1588D02*
X3120Y1588D01*
X2490Y1587D02*
X2518Y1587D01*
X2590Y1587D02*
X2618Y1587D01*
X2690Y1587D02*
X2718Y1587D01*
X2790Y1587D02*
X2818Y1587D01*
X2890Y1587D02*
X2918Y1587D01*
X2989Y1587D02*
X3018Y1587D01*
X3089Y1587D02*
X3118Y1587D01*
X2492Y1586D02*
X2516Y1586D01*
X2592Y1586D02*
X2616Y1586D01*
X2692Y1586D02*
X2716Y1586D01*
X2792Y1586D02*
X2816Y1586D01*
X2892Y1586D02*
X2916Y1586D01*
X2992Y1586D02*
X3016Y1586D01*
X3092Y1586D02*
X3116Y1586D01*
X2494Y1585D02*
X2514Y1585D01*
X2594Y1585D02*
X2614Y1585D01*
X2694Y1585D02*
X2714Y1585D01*
X2794Y1585D02*
X2814Y1585D01*
X2894Y1585D02*
X2914Y1585D01*
X2994Y1585D02*
X3014Y1585D01*
X3094Y1585D02*
X3114Y1585D01*
X2497Y1584D02*
X2511Y1584D01*
X2597Y1584D02*
X2611Y1584D01*
X2697Y1584D02*
X2711Y1584D01*
X2797Y1584D02*
X2811Y1584D01*
X2897Y1584D02*
X2911Y1584D01*
X2997Y1584D02*
X3011Y1584D01*
X3097Y1584D02*
X3111Y1584D01*
X2503Y1397D02*
X2505Y1397D01*
X2603Y1397D02*
X2605Y1397D01*
X2703Y1397D02*
X2705Y1397D01*
X2803Y1397D02*
X2805Y1397D01*
X2903Y1397D02*
X2905Y1397D01*
X3003Y1397D02*
X3005Y1397D01*
X3103Y1397D02*
X3105Y1397D01*
X2497Y1396D02*
X2511Y1396D01*
X2597Y1396D02*
X2611Y1396D01*
X2697Y1396D02*
X2711Y1396D01*
X2797Y1396D02*
X2811Y1396D01*
X2897Y1396D02*
X2911Y1396D01*
X2997Y1396D02*
X3011Y1396D01*
X3097Y1396D02*
X3111Y1396D01*
X2494Y1395D02*
X2514Y1395D01*
X2594Y1395D02*
X2614Y1395D01*
X2694Y1395D02*
X2714Y1395D01*
X2794Y1395D02*
X2814Y1395D01*
X2894Y1395D02*
X2914Y1395D01*
X2994Y1395D02*
X3014Y1395D01*
X3094Y1395D02*
X3114Y1395D01*
X2491Y1394D02*
X2517Y1394D01*
X2591Y1394D02*
X2617Y1394D01*
X2691Y1394D02*
X2717Y1394D01*
X2791Y1394D02*
X2817Y1394D01*
X2891Y1394D02*
X2917Y1394D01*
X2991Y1394D02*
X3017Y1394D01*
X3091Y1394D02*
X3117Y1394D01*
X2489Y1393D02*
X2519Y1393D01*
X2589Y1393D02*
X2619Y1393D01*
X2689Y1393D02*
X2719Y1393D01*
X2789Y1393D02*
X2819Y1393D01*
X2889Y1393D02*
X2919Y1393D01*
X2989Y1393D02*
X3019Y1393D01*
X3089Y1393D02*
X3119Y1393D01*
X2488Y1392D02*
X2520Y1392D01*
X2588Y1392D02*
X2620Y1392D01*
X2688Y1392D02*
X2720Y1392D01*
X2788Y1392D02*
X2820Y1392D01*
X2888Y1392D02*
X2920Y1392D01*
X2988Y1392D02*
X3020Y1392D01*
X3088Y1392D02*
X3120Y1392D01*
X2486Y1391D02*
X2522Y1391D01*
X2586Y1391D02*
X2622Y1391D01*
X2686Y1391D02*
X2722Y1391D01*
X2786Y1391D02*
X2822Y1391D01*
X2886Y1391D02*
X2922Y1391D01*
X2986Y1391D02*
X3022Y1391D01*
X3086Y1391D02*
X3122Y1391D01*
X2485Y1390D02*
X2523Y1390D01*
X2585Y1390D02*
X2623Y1390D01*
X2685Y1390D02*
X2723Y1390D01*
X2785Y1390D02*
X2823Y1390D01*
X2885Y1390D02*
X2923Y1390D01*
X2985Y1390D02*
X3023Y1390D01*
X3085Y1390D02*
X3123Y1390D01*
X2484Y1389D02*
X2524Y1389D01*
X2584Y1389D02*
X2624Y1389D01*
X2684Y1389D02*
X2724Y1389D01*
X2784Y1389D02*
X2824Y1389D01*
X2884Y1389D02*
X2924Y1389D01*
X2984Y1389D02*
X3024Y1389D01*
X3084Y1389D02*
X3124Y1389D01*
X2483Y1388D02*
X2525Y1388D01*
X2583Y1388D02*
X2625Y1388D01*
X2683Y1388D02*
X2725Y1388D01*
X2783Y1388D02*
X2825Y1388D01*
X2883Y1388D02*
X2925Y1388D01*
X2983Y1388D02*
X3025Y1388D01*
X3082Y1388D02*
X3125Y1388D01*
X2482Y1387D02*
X2526Y1387D01*
X2582Y1387D02*
X2626Y1387D01*
X2682Y1387D02*
X2726Y1387D01*
X2782Y1387D02*
X2826Y1387D01*
X2882Y1387D02*
X2926Y1387D01*
X2982Y1387D02*
X3026Y1387D01*
X3082Y1387D02*
X3126Y1387D01*
X2481Y1386D02*
X2527Y1386D01*
X2581Y1386D02*
X2627Y1386D01*
X2681Y1386D02*
X2727Y1386D01*
X2781Y1386D02*
X2827Y1386D01*
X2881Y1386D02*
X2927Y1386D01*
X2981Y1386D02*
X3027Y1386D01*
X3081Y1386D02*
X3127Y1386D01*
X2480Y1385D02*
X2528Y1385D01*
X2580Y1385D02*
X2628Y1385D01*
X2680Y1385D02*
X2728Y1385D01*
X2780Y1385D02*
X2828Y1385D01*
X2880Y1385D02*
X2928Y1385D01*
X2980Y1385D02*
X3028Y1385D01*
X3080Y1385D02*
X3128Y1385D01*
X2479Y1384D02*
X2529Y1384D01*
X2579Y1384D02*
X2629Y1384D01*
X2679Y1384D02*
X2729Y1384D01*
X2779Y1384D02*
X2829Y1384D01*
X2879Y1384D02*
X2929Y1384D01*
X2979Y1384D02*
X3029Y1384D01*
X3079Y1384D02*
X3129Y1384D01*
X2479Y1383D02*
X2529Y1383D01*
X2579Y1383D02*
X2629Y1383D01*
X2679Y1383D02*
X2729Y1383D01*
X2779Y1383D02*
X2829Y1383D01*
X2879Y1383D02*
X2929Y1383D01*
X2979Y1383D02*
X3029Y1383D01*
X3079Y1383D02*
X3129Y1383D01*
X2478Y1382D02*
X2530Y1382D01*
X2578Y1382D02*
X2630Y1382D01*
X2678Y1382D02*
X2730Y1382D01*
X2778Y1382D02*
X2830Y1382D01*
X2878Y1382D02*
X2930Y1382D01*
X2978Y1382D02*
X3030Y1382D01*
X3078Y1382D02*
X3130Y1382D01*
X2477Y1381D02*
X2531Y1381D01*
X2577Y1381D02*
X2631Y1381D01*
X2677Y1381D02*
X2731Y1381D01*
X2777Y1381D02*
X2831Y1381D01*
X2877Y1381D02*
X2930Y1381D01*
X2977Y1381D02*
X3030Y1381D01*
X3077Y1381D02*
X3130Y1381D01*
X2477Y1380D02*
X2531Y1380D01*
X2577Y1380D02*
X2631Y1380D01*
X2677Y1380D02*
X2731Y1380D01*
X2777Y1380D02*
X2831Y1380D01*
X2877Y1380D02*
X2931Y1380D01*
X2977Y1380D02*
X3031Y1380D01*
X3077Y1380D02*
X3131Y1380D01*
X2476Y1379D02*
X2532Y1379D01*
X2576Y1379D02*
X2632Y1379D01*
X2676Y1379D02*
X2731Y1379D01*
X2776Y1379D02*
X2831Y1379D01*
X2876Y1379D02*
X2931Y1379D01*
X2976Y1379D02*
X3031Y1379D01*
X3076Y1379D02*
X3131Y1379D01*
X2476Y1378D02*
X2532Y1378D01*
X2576Y1378D02*
X2632Y1378D01*
X2676Y1378D02*
X2732Y1378D01*
X2776Y1378D02*
X2832Y1378D01*
X2876Y1378D02*
X2932Y1378D01*
X2976Y1378D02*
X3032Y1378D01*
X3076Y1378D02*
X3132Y1378D01*
X2476Y1377D02*
X2532Y1377D01*
X2576Y1377D02*
X2632Y1377D01*
X2676Y1377D02*
X2732Y1377D01*
X2776Y1377D02*
X2832Y1377D01*
X2876Y1377D02*
X2932Y1377D01*
X2976Y1377D02*
X3032Y1377D01*
X3076Y1377D02*
X3132Y1377D01*
X2475Y1376D02*
X2533Y1376D01*
X2575Y1376D02*
X2633Y1376D01*
X2675Y1376D02*
X2733Y1376D01*
X2775Y1376D02*
X2833Y1376D01*
X2875Y1376D02*
X2933Y1376D01*
X2975Y1376D02*
X3033Y1376D01*
X3075Y1376D02*
X3133Y1376D01*
X2475Y1375D02*
X2533Y1375D01*
X2575Y1375D02*
X2633Y1375D01*
X2675Y1375D02*
X2733Y1375D01*
X2775Y1375D02*
X2833Y1375D01*
X2875Y1375D02*
X2933Y1375D01*
X2975Y1375D02*
X3033Y1375D01*
X3075Y1375D02*
X3133Y1375D01*
X2475Y1374D02*
X2533Y1374D01*
X2575Y1374D02*
X2633Y1374D01*
X2675Y1374D02*
X2733Y1374D01*
X2775Y1374D02*
X2833Y1374D01*
X2875Y1374D02*
X2933Y1374D01*
X2975Y1374D02*
X3033Y1374D01*
X3075Y1374D02*
X3133Y1374D01*
X2474Y1373D02*
X2534Y1373D01*
X2574Y1373D02*
X2634Y1373D01*
X2674Y1373D02*
X2734Y1373D01*
X2774Y1373D02*
X2834Y1373D01*
X2874Y1373D02*
X2934Y1373D01*
X2974Y1373D02*
X3034Y1373D01*
X3074Y1373D02*
X3134Y1373D01*
X2474Y1372D02*
X2534Y1372D01*
X2574Y1372D02*
X2634Y1372D01*
X2674Y1372D02*
X2734Y1372D01*
X2774Y1372D02*
X2834Y1372D01*
X2874Y1372D02*
X2934Y1372D01*
X2974Y1372D02*
X3034Y1372D01*
X3074Y1372D02*
X3134Y1372D01*
X2474Y1371D02*
X2534Y1371D01*
X2574Y1371D02*
X2634Y1371D01*
X2674Y1371D02*
X2734Y1371D01*
X2774Y1371D02*
X2834Y1371D01*
X2874Y1371D02*
X2934Y1371D01*
X2974Y1371D02*
X3034Y1371D01*
X3074Y1371D02*
X3134Y1371D01*
X2474Y1370D02*
X2534Y1370D01*
X2574Y1370D02*
X2634Y1370D01*
X2674Y1370D02*
X2734Y1370D01*
X2774Y1370D02*
X2834Y1370D01*
X2874Y1370D02*
X2934Y1370D01*
X2974Y1370D02*
X3034Y1370D01*
X3074Y1370D02*
X3134Y1370D01*
X2474Y1369D02*
X2534Y1369D01*
X2574Y1369D02*
X2634Y1369D01*
X2674Y1369D02*
X2734Y1369D01*
X2774Y1369D02*
X2834Y1369D01*
X2874Y1369D02*
X2934Y1369D01*
X2974Y1369D02*
X3034Y1369D01*
X3074Y1369D02*
X3134Y1369D01*
X2474Y1368D02*
X2534Y1368D01*
X2574Y1368D02*
X2634Y1368D01*
X2674Y1368D02*
X2734Y1368D01*
X2774Y1368D02*
X2834Y1368D01*
X2874Y1368D02*
X2934Y1368D01*
X2974Y1368D02*
X3034Y1368D01*
X3074Y1368D02*
X3134Y1368D01*
X2474Y1367D02*
X2534Y1367D01*
X2573Y1367D02*
X2634Y1367D01*
X2673Y1367D02*
X2734Y1367D01*
X2773Y1367D02*
X2834Y1367D01*
X2873Y1367D02*
X2934Y1367D01*
X2973Y1367D02*
X3034Y1367D01*
X3073Y1367D02*
X3134Y1367D01*
X2473Y1366D02*
X2534Y1366D01*
X2573Y1366D02*
X2634Y1366D01*
X2673Y1366D02*
X2734Y1366D01*
X2773Y1366D02*
X2834Y1366D01*
X2873Y1366D02*
X2934Y1366D01*
X2973Y1366D02*
X3034Y1366D01*
X3073Y1366D02*
X3134Y1366D01*
X2473Y1365D02*
X2534Y1365D01*
X2573Y1365D02*
X2634Y1365D01*
X2673Y1365D02*
X2734Y1365D01*
X2773Y1365D02*
X2834Y1365D01*
X2873Y1365D02*
X2934Y1365D01*
X2973Y1365D02*
X3034Y1365D01*
X3073Y1365D02*
X3134Y1365D01*
X2473Y1364D02*
X2534Y1364D01*
X2573Y1364D02*
X2634Y1364D01*
X2673Y1364D02*
X2734Y1364D01*
X2773Y1364D02*
X2834Y1364D01*
X2873Y1364D02*
X2934Y1364D01*
X2973Y1364D02*
X3034Y1364D01*
X3073Y1364D02*
X3134Y1364D01*
X2473Y1363D02*
X2534Y1363D01*
X2573Y1363D02*
X2634Y1363D01*
X2673Y1363D02*
X2734Y1363D01*
X2773Y1363D02*
X2834Y1363D01*
X2873Y1363D02*
X2934Y1363D01*
X2973Y1363D02*
X3034Y1363D01*
X3073Y1363D02*
X3134Y1363D01*
X2473Y1362D02*
X2534Y1362D01*
X2573Y1362D02*
X2634Y1362D01*
X2673Y1362D02*
X2734Y1362D01*
X2773Y1362D02*
X2834Y1362D01*
X2873Y1362D02*
X2934Y1362D01*
X2973Y1362D02*
X3034Y1362D01*
X3073Y1362D02*
X3134Y1362D01*
X2473Y1361D02*
X2534Y1361D01*
X2573Y1361D02*
X2634Y1361D01*
X2673Y1361D02*
X2734Y1361D01*
X2773Y1361D02*
X2834Y1361D01*
X2873Y1361D02*
X2934Y1361D01*
X2973Y1361D02*
X3034Y1361D01*
X3073Y1361D02*
X3134Y1361D01*
X2473Y1360D02*
X2534Y1360D01*
X2573Y1360D02*
X2634Y1360D01*
X2673Y1360D02*
X2734Y1360D01*
X2773Y1360D02*
X2834Y1360D01*
X2873Y1360D02*
X2934Y1360D01*
X2973Y1360D02*
X3034Y1360D01*
X3073Y1360D02*
X3134Y1360D01*
X2473Y1359D02*
X2534Y1359D01*
X2573Y1359D02*
X2634Y1359D01*
X2673Y1359D02*
X2734Y1359D01*
X2773Y1359D02*
X2834Y1359D01*
X2873Y1359D02*
X2934Y1359D01*
X2973Y1359D02*
X3034Y1359D01*
X3073Y1359D02*
X3134Y1359D01*
X2473Y1358D02*
X2534Y1358D01*
X2573Y1358D02*
X2634Y1358D01*
X2673Y1358D02*
X2734Y1358D01*
X2773Y1358D02*
X2834Y1358D01*
X2873Y1358D02*
X2934Y1358D01*
X2973Y1358D02*
X3034Y1358D01*
X3073Y1358D02*
X3134Y1358D01*
X2473Y1357D02*
X2534Y1357D01*
X2573Y1357D02*
X2634Y1357D01*
X2673Y1357D02*
X2734Y1357D01*
X2773Y1357D02*
X2834Y1357D01*
X2873Y1357D02*
X2934Y1357D01*
X2973Y1357D02*
X3034Y1357D01*
X3073Y1357D02*
X3134Y1357D01*
X2473Y1356D02*
X2534Y1356D01*
X2573Y1356D02*
X2634Y1356D01*
X2673Y1356D02*
X2734Y1356D01*
X2773Y1356D02*
X2834Y1356D01*
X2873Y1356D02*
X2934Y1356D01*
X2973Y1356D02*
X3034Y1356D01*
X3073Y1356D02*
X3134Y1356D01*
X2473Y1355D02*
X2534Y1355D01*
X2573Y1355D02*
X2634Y1355D01*
X2673Y1355D02*
X2734Y1355D01*
X2773Y1355D02*
X2834Y1355D01*
X2873Y1355D02*
X2934Y1355D01*
X2973Y1355D02*
X3034Y1355D01*
X3073Y1355D02*
X3134Y1355D01*
X2473Y1354D02*
X2534Y1354D01*
X2573Y1354D02*
X2634Y1354D01*
X2673Y1354D02*
X2734Y1354D01*
X2773Y1354D02*
X2834Y1354D01*
X2873Y1354D02*
X2934Y1354D01*
X2973Y1354D02*
X3034Y1354D01*
X3073Y1354D02*
X3134Y1354D01*
X2473Y1353D02*
X2534Y1353D01*
X2573Y1353D02*
X2634Y1353D01*
X2673Y1353D02*
X2734Y1353D01*
X2773Y1353D02*
X2834Y1353D01*
X2873Y1353D02*
X2934Y1353D01*
X2973Y1353D02*
X3034Y1353D01*
X3073Y1353D02*
X3134Y1353D01*
X2473Y1352D02*
X2534Y1352D01*
X2573Y1352D02*
X2634Y1352D01*
X2673Y1352D02*
X2734Y1352D01*
X2773Y1352D02*
X2834Y1352D01*
X2873Y1352D02*
X2934Y1352D01*
X2973Y1352D02*
X3034Y1352D01*
X3073Y1352D02*
X3134Y1352D01*
X2473Y1351D02*
X2502Y1351D01*
X2506Y1351D02*
X2534Y1351D01*
X2573Y1351D02*
X2602Y1351D01*
X2606Y1351D02*
X2634Y1351D01*
X2673Y1351D02*
X2702Y1351D01*
X2706Y1351D02*
X2734Y1351D01*
X2773Y1351D02*
X2802Y1351D01*
X2806Y1351D02*
X2834Y1351D01*
X2873Y1351D02*
X2902Y1351D01*
X2906Y1351D02*
X2934Y1351D01*
X2973Y1351D02*
X3002Y1351D01*
X3006Y1351D02*
X3034Y1351D01*
X3073Y1351D02*
X3102Y1351D01*
X3106Y1351D02*
X3134Y1351D01*
X2473Y1350D02*
X2499Y1350D01*
X2509Y1350D02*
X2534Y1350D01*
X2573Y1350D02*
X2599Y1350D01*
X2609Y1350D02*
X2634Y1350D01*
X2673Y1350D02*
X2699Y1350D01*
X2709Y1350D02*
X2734Y1350D01*
X2773Y1350D02*
X2799Y1350D01*
X2809Y1350D02*
X2834Y1350D01*
X2873Y1350D02*
X2899Y1350D01*
X2909Y1350D02*
X2934Y1350D01*
X2973Y1350D02*
X2999Y1350D01*
X3009Y1350D02*
X3034Y1350D01*
X3073Y1350D02*
X3099Y1350D01*
X3109Y1350D02*
X3134Y1350D01*
X2473Y1349D02*
X2497Y1349D01*
X2511Y1349D02*
X2534Y1349D01*
X2573Y1349D02*
X2597Y1349D01*
X2611Y1349D02*
X2634Y1349D01*
X2673Y1349D02*
X2697Y1349D01*
X2711Y1349D02*
X2734Y1349D01*
X2773Y1349D02*
X2797Y1349D01*
X2811Y1349D02*
X2834Y1349D01*
X2873Y1349D02*
X2897Y1349D01*
X2911Y1349D02*
X2934Y1349D01*
X2973Y1349D02*
X2997Y1349D01*
X3011Y1349D02*
X3034Y1349D01*
X3073Y1349D02*
X3097Y1349D01*
X3111Y1349D02*
X3134Y1349D01*
X2473Y1348D02*
X2496Y1348D01*
X2512Y1348D02*
X2534Y1348D01*
X2573Y1348D02*
X2596Y1348D01*
X2612Y1348D02*
X2634Y1348D01*
X2673Y1348D02*
X2696Y1348D01*
X2712Y1348D02*
X2734Y1348D01*
X2773Y1348D02*
X2796Y1348D01*
X2812Y1348D02*
X2834Y1348D01*
X2873Y1348D02*
X2896Y1348D01*
X2912Y1348D02*
X2934Y1348D01*
X2973Y1348D02*
X2996Y1348D01*
X3012Y1348D02*
X3034Y1348D01*
X3073Y1348D02*
X3096Y1348D01*
X3112Y1348D02*
X3134Y1348D01*
X2473Y1347D02*
X2495Y1347D01*
X2513Y1347D02*
X2534Y1347D01*
X2573Y1347D02*
X2595Y1347D01*
X2613Y1347D02*
X2634Y1347D01*
X2673Y1347D02*
X2695Y1347D01*
X2713Y1347D02*
X2734Y1347D01*
X2773Y1347D02*
X2795Y1347D01*
X2813Y1347D02*
X2834Y1347D01*
X2873Y1347D02*
X2895Y1347D01*
X2913Y1347D02*
X2934Y1347D01*
X2973Y1347D02*
X2995Y1347D01*
X3013Y1347D02*
X3034Y1347D01*
X3073Y1347D02*
X3095Y1347D01*
X3113Y1347D02*
X3134Y1347D01*
X2473Y1346D02*
X2494Y1346D01*
X2514Y1346D02*
X2534Y1346D01*
X2573Y1346D02*
X2594Y1346D01*
X2614Y1346D02*
X2634Y1346D01*
X2673Y1346D02*
X2694Y1346D01*
X2714Y1346D02*
X2734Y1346D01*
X2773Y1346D02*
X2794Y1346D01*
X2814Y1346D02*
X2834Y1346D01*
X2873Y1346D02*
X2894Y1346D01*
X2914Y1346D02*
X2934Y1346D01*
X2973Y1346D02*
X2994Y1346D01*
X3014Y1346D02*
X3034Y1346D01*
X3073Y1346D02*
X3094Y1346D01*
X3114Y1346D02*
X3134Y1346D01*
X2473Y1345D02*
X2494Y1345D01*
X2514Y1345D02*
X2534Y1345D01*
X2573Y1345D02*
X2594Y1345D01*
X2614Y1345D02*
X2634Y1345D01*
X2673Y1345D02*
X2694Y1345D01*
X2714Y1345D02*
X2734Y1345D01*
X2773Y1345D02*
X2794Y1345D01*
X2814Y1345D02*
X2834Y1345D01*
X2873Y1345D02*
X2894Y1345D01*
X2914Y1345D02*
X2934Y1345D01*
X2973Y1345D02*
X2994Y1345D01*
X3014Y1345D02*
X3034Y1345D01*
X3073Y1345D02*
X3094Y1345D01*
X3114Y1345D02*
X3134Y1345D01*
X2473Y1344D02*
X2493Y1344D01*
X2515Y1344D02*
X2534Y1344D01*
X2573Y1344D02*
X2593Y1344D01*
X2615Y1344D02*
X2634Y1344D01*
X2673Y1344D02*
X2693Y1344D01*
X2715Y1344D02*
X2734Y1344D01*
X2773Y1344D02*
X2793Y1344D01*
X2815Y1344D02*
X2834Y1344D01*
X2873Y1344D02*
X2893Y1344D01*
X2915Y1344D02*
X2934Y1344D01*
X2973Y1344D02*
X2993Y1344D01*
X3015Y1344D02*
X3034Y1344D01*
X3073Y1344D02*
X3093Y1344D01*
X3115Y1344D02*
X3134Y1344D01*
X2473Y1343D02*
X2493Y1343D01*
X2515Y1343D02*
X2534Y1343D01*
X2573Y1343D02*
X2593Y1343D01*
X2615Y1343D02*
X2634Y1343D01*
X2673Y1343D02*
X2693Y1343D01*
X2715Y1343D02*
X2734Y1343D01*
X2773Y1343D02*
X2793Y1343D01*
X2815Y1343D02*
X2834Y1343D01*
X2873Y1343D02*
X2893Y1343D01*
X2915Y1343D02*
X2934Y1343D01*
X2973Y1343D02*
X2993Y1343D01*
X3015Y1343D02*
X3034Y1343D01*
X3073Y1343D02*
X3093Y1343D01*
X3115Y1343D02*
X3134Y1343D01*
X2473Y1342D02*
X2493Y1342D01*
X2515Y1342D02*
X2534Y1342D01*
X2573Y1342D02*
X2593Y1342D01*
X2615Y1342D02*
X2634Y1342D01*
X2673Y1342D02*
X2693Y1342D01*
X2715Y1342D02*
X2734Y1342D01*
X2773Y1342D02*
X2793Y1342D01*
X2815Y1342D02*
X2834Y1342D01*
X2873Y1342D02*
X2893Y1342D01*
X2915Y1342D02*
X2934Y1342D01*
X2973Y1342D02*
X2993Y1342D01*
X3015Y1342D02*
X3034Y1342D01*
X3073Y1342D02*
X3093Y1342D01*
X3115Y1342D02*
X3134Y1342D01*
X2473Y1341D02*
X2493Y1341D01*
X2515Y1341D02*
X2534Y1341D01*
X2573Y1341D02*
X2593Y1341D01*
X2615Y1341D02*
X2634Y1341D01*
X2673Y1341D02*
X2693Y1341D01*
X2715Y1341D02*
X2734Y1341D01*
X2773Y1341D02*
X2793Y1341D01*
X2815Y1341D02*
X2834Y1341D01*
X2873Y1341D02*
X2892Y1341D01*
X2915Y1341D02*
X2934Y1341D01*
X2973Y1341D02*
X2992Y1341D01*
X3015Y1341D02*
X3034Y1341D01*
X3073Y1341D02*
X3092Y1341D01*
X3115Y1341D02*
X3134Y1341D01*
X2473Y1340D02*
X2492Y1340D01*
X2515Y1340D02*
X2534Y1340D01*
X2573Y1340D02*
X2592Y1340D01*
X2615Y1340D02*
X2634Y1340D01*
X2673Y1340D02*
X2692Y1340D01*
X2715Y1340D02*
X2734Y1340D01*
X2773Y1340D02*
X2792Y1340D01*
X2815Y1340D02*
X2834Y1340D01*
X2873Y1340D02*
X2892Y1340D01*
X2915Y1340D02*
X2934Y1340D01*
X2973Y1340D02*
X2992Y1340D01*
X3015Y1340D02*
X3034Y1340D01*
X3073Y1340D02*
X3092Y1340D01*
X3115Y1340D02*
X3134Y1340D01*
X2473Y1339D02*
X2493Y1339D01*
X2515Y1339D02*
X2534Y1339D01*
X2573Y1339D02*
X2593Y1339D01*
X2615Y1339D02*
X2634Y1339D01*
X2673Y1339D02*
X2693Y1339D01*
X2715Y1339D02*
X2734Y1339D01*
X2773Y1339D02*
X2793Y1339D01*
X2815Y1339D02*
X2834Y1339D01*
X2873Y1339D02*
X2893Y1339D01*
X2915Y1339D02*
X2934Y1339D01*
X2973Y1339D02*
X2992Y1339D01*
X3015Y1339D02*
X3034Y1339D01*
X3073Y1339D02*
X3092Y1339D01*
X3115Y1339D02*
X3134Y1339D01*
X2473Y1338D02*
X2493Y1338D01*
X2515Y1338D02*
X2534Y1338D01*
X2573Y1338D02*
X2593Y1338D01*
X2615Y1338D02*
X2634Y1338D01*
X2673Y1338D02*
X2693Y1338D01*
X2715Y1338D02*
X2734Y1338D01*
X2773Y1338D02*
X2793Y1338D01*
X2815Y1338D02*
X2834Y1338D01*
X2873Y1338D02*
X2893Y1338D01*
X2915Y1338D02*
X2934Y1338D01*
X2973Y1338D02*
X2993Y1338D01*
X3015Y1338D02*
X3034Y1338D01*
X3073Y1338D02*
X3093Y1338D01*
X3115Y1338D02*
X3134Y1338D01*
X2473Y1337D02*
X2493Y1337D01*
X2515Y1337D02*
X2534Y1337D01*
X2573Y1337D02*
X2593Y1337D01*
X2615Y1337D02*
X2634Y1337D01*
X2673Y1337D02*
X2693Y1337D01*
X2715Y1337D02*
X2734Y1337D01*
X2773Y1337D02*
X2793Y1337D01*
X2815Y1337D02*
X2834Y1337D01*
X2873Y1337D02*
X2893Y1337D01*
X2915Y1337D02*
X2934Y1337D01*
X2973Y1337D02*
X2993Y1337D01*
X3015Y1337D02*
X3034Y1337D01*
X3073Y1337D02*
X3093Y1337D01*
X3115Y1337D02*
X3134Y1337D01*
X2473Y1336D02*
X2493Y1336D01*
X2515Y1336D02*
X2534Y1336D01*
X2573Y1336D02*
X2593Y1336D01*
X2615Y1336D02*
X2634Y1336D01*
X2673Y1336D02*
X2693Y1336D01*
X2715Y1336D02*
X2734Y1336D01*
X2773Y1336D02*
X2793Y1336D01*
X2815Y1336D02*
X2834Y1336D01*
X2873Y1336D02*
X2893Y1336D01*
X2915Y1336D02*
X2934Y1336D01*
X2973Y1336D02*
X2993Y1336D01*
X3015Y1336D02*
X3034Y1336D01*
X3073Y1336D02*
X3093Y1336D01*
X3115Y1336D02*
X3134Y1336D01*
X2473Y1335D02*
X2494Y1335D01*
X2514Y1335D02*
X2534Y1335D01*
X2573Y1335D02*
X2594Y1335D01*
X2614Y1335D02*
X2634Y1335D01*
X2673Y1335D02*
X2694Y1335D01*
X2714Y1335D02*
X2734Y1335D01*
X2773Y1335D02*
X2794Y1335D01*
X2814Y1335D02*
X2834Y1335D01*
X2873Y1335D02*
X2894Y1335D01*
X2914Y1335D02*
X2934Y1335D01*
X2973Y1335D02*
X2994Y1335D01*
X3014Y1335D02*
X3034Y1335D01*
X3073Y1335D02*
X3094Y1335D01*
X3114Y1335D02*
X3134Y1335D01*
X2473Y1334D02*
X2494Y1334D01*
X2514Y1334D02*
X2534Y1334D01*
X2573Y1334D02*
X2594Y1334D01*
X2614Y1334D02*
X2634Y1334D01*
X2673Y1334D02*
X2694Y1334D01*
X2714Y1334D02*
X2734Y1334D01*
X2773Y1334D02*
X2794Y1334D01*
X2814Y1334D02*
X2834Y1334D01*
X2873Y1334D02*
X2894Y1334D01*
X2914Y1334D02*
X2934Y1334D01*
X2973Y1334D02*
X2994Y1334D01*
X3014Y1334D02*
X3034Y1334D01*
X3073Y1334D02*
X3094Y1334D01*
X3114Y1334D02*
X3134Y1334D01*
X2473Y1333D02*
X2495Y1333D01*
X2513Y1333D02*
X2534Y1333D01*
X2573Y1333D02*
X2595Y1333D01*
X2613Y1333D02*
X2634Y1333D01*
X2673Y1333D02*
X2695Y1333D01*
X2713Y1333D02*
X2734Y1333D01*
X2773Y1333D02*
X2795Y1333D01*
X2813Y1333D02*
X2834Y1333D01*
X2873Y1333D02*
X2895Y1333D01*
X2913Y1333D02*
X2934Y1333D01*
X2973Y1333D02*
X2995Y1333D01*
X3013Y1333D02*
X3034Y1333D01*
X3073Y1333D02*
X3095Y1333D01*
X3113Y1333D02*
X3134Y1333D01*
X2473Y1332D02*
X2496Y1332D01*
X2512Y1332D02*
X2534Y1332D01*
X2573Y1332D02*
X2596Y1332D01*
X2612Y1332D02*
X2634Y1332D01*
X2673Y1332D02*
X2696Y1332D01*
X2712Y1332D02*
X2734Y1332D01*
X2773Y1332D02*
X2796Y1332D01*
X2812Y1332D02*
X2834Y1332D01*
X2873Y1332D02*
X2896Y1332D01*
X2912Y1332D02*
X2934Y1332D01*
X2973Y1332D02*
X2996Y1332D01*
X3012Y1332D02*
X3034Y1332D01*
X3073Y1332D02*
X3096Y1332D01*
X3112Y1332D02*
X3134Y1332D01*
X2473Y1331D02*
X2497Y1331D01*
X2511Y1331D02*
X2534Y1331D01*
X2573Y1331D02*
X2597Y1331D01*
X2611Y1331D02*
X2634Y1331D01*
X2673Y1331D02*
X2697Y1331D01*
X2711Y1331D02*
X2734Y1331D01*
X2773Y1331D02*
X2797Y1331D01*
X2811Y1331D02*
X2834Y1331D01*
X2873Y1331D02*
X2897Y1331D01*
X2911Y1331D02*
X2934Y1331D01*
X2973Y1331D02*
X2997Y1331D01*
X3011Y1331D02*
X3034Y1331D01*
X3073Y1331D02*
X3097Y1331D01*
X3111Y1331D02*
X3134Y1331D01*
X2473Y1330D02*
X2499Y1330D01*
X2509Y1330D02*
X2534Y1330D01*
X2573Y1330D02*
X2599Y1330D01*
X2609Y1330D02*
X2634Y1330D01*
X2673Y1330D02*
X2699Y1330D01*
X2709Y1330D02*
X2734Y1330D01*
X2773Y1330D02*
X2799Y1330D01*
X2809Y1330D02*
X2834Y1330D01*
X2873Y1330D02*
X2899Y1330D01*
X2909Y1330D02*
X2934Y1330D01*
X2973Y1330D02*
X2999Y1330D01*
X3009Y1330D02*
X3034Y1330D01*
X3073Y1330D02*
X3099Y1330D01*
X3109Y1330D02*
X3134Y1330D01*
X2473Y1329D02*
X2534Y1329D01*
X2573Y1329D02*
X2634Y1329D01*
X2673Y1329D02*
X2734Y1329D01*
X2773Y1329D02*
X2834Y1329D01*
X2873Y1329D02*
X2934Y1329D01*
X2973Y1329D02*
X3034Y1329D01*
X3073Y1329D02*
X3134Y1329D01*
X2473Y1328D02*
X2534Y1328D01*
X2573Y1328D02*
X2634Y1328D01*
X2673Y1328D02*
X2734Y1328D01*
X2773Y1328D02*
X2834Y1328D01*
X2873Y1328D02*
X2934Y1328D01*
X2973Y1328D02*
X3034Y1328D01*
X3073Y1328D02*
X3134Y1328D01*
X2473Y1327D02*
X2534Y1327D01*
X2573Y1327D02*
X2634Y1327D01*
X2673Y1327D02*
X2734Y1327D01*
X2773Y1327D02*
X2834Y1327D01*
X2873Y1327D02*
X2934Y1327D01*
X2973Y1327D02*
X3034Y1327D01*
X3073Y1327D02*
X3134Y1327D01*
X2473Y1326D02*
X2534Y1326D01*
X2573Y1326D02*
X2634Y1326D01*
X2673Y1326D02*
X2734Y1326D01*
X2773Y1326D02*
X2834Y1326D01*
X2873Y1326D02*
X2934Y1326D01*
X2973Y1326D02*
X3034Y1326D01*
X3073Y1326D02*
X3134Y1326D01*
X2473Y1325D02*
X2534Y1325D01*
X2573Y1325D02*
X2634Y1325D01*
X2673Y1325D02*
X2734Y1325D01*
X2773Y1325D02*
X2834Y1325D01*
X2873Y1325D02*
X2934Y1325D01*
X2973Y1325D02*
X3034Y1325D01*
X3073Y1325D02*
X3134Y1325D01*
X2473Y1324D02*
X2534Y1324D01*
X2573Y1324D02*
X2634Y1324D01*
X2673Y1324D02*
X2734Y1324D01*
X2773Y1324D02*
X2834Y1324D01*
X2873Y1324D02*
X2934Y1324D01*
X2973Y1324D02*
X3034Y1324D01*
X3073Y1324D02*
X3134Y1324D01*
X2473Y1323D02*
X2534Y1323D01*
X2573Y1323D02*
X2634Y1323D01*
X2673Y1323D02*
X2734Y1323D01*
X2773Y1323D02*
X2834Y1323D01*
X2873Y1323D02*
X2934Y1323D01*
X2973Y1323D02*
X3034Y1323D01*
X3073Y1323D02*
X3134Y1323D01*
X2473Y1322D02*
X2534Y1322D01*
X2573Y1322D02*
X2634Y1322D01*
X2673Y1322D02*
X2734Y1322D01*
X2773Y1322D02*
X2834Y1322D01*
X2873Y1322D02*
X2934Y1322D01*
X2973Y1322D02*
X3034Y1322D01*
X3073Y1322D02*
X3134Y1322D01*
X2473Y1321D02*
X2534Y1321D01*
X2573Y1321D02*
X2634Y1321D01*
X2673Y1321D02*
X2734Y1321D01*
X2773Y1321D02*
X2834Y1321D01*
X2873Y1321D02*
X2934Y1321D01*
X2973Y1321D02*
X3034Y1321D01*
X3073Y1321D02*
X3134Y1321D01*
X2473Y1320D02*
X2534Y1320D01*
X2573Y1320D02*
X2634Y1320D01*
X2673Y1320D02*
X2734Y1320D01*
X2773Y1320D02*
X2834Y1320D01*
X2873Y1320D02*
X2934Y1320D01*
X2973Y1320D02*
X3034Y1320D01*
X3073Y1320D02*
X3134Y1320D01*
X2473Y1319D02*
X2534Y1319D01*
X2573Y1319D02*
X2634Y1319D01*
X2673Y1319D02*
X2734Y1319D01*
X2773Y1319D02*
X2834Y1319D01*
X2873Y1319D02*
X2934Y1319D01*
X2973Y1319D02*
X3034Y1319D01*
X3073Y1319D02*
X3134Y1319D01*
X2473Y1318D02*
X2534Y1318D01*
X2573Y1318D02*
X2634Y1318D01*
X2673Y1318D02*
X2734Y1318D01*
X2773Y1318D02*
X2834Y1318D01*
X2873Y1318D02*
X2934Y1318D01*
X2973Y1318D02*
X3034Y1318D01*
X3073Y1318D02*
X3134Y1318D01*
X2473Y1317D02*
X2534Y1317D01*
X2573Y1317D02*
X2634Y1317D01*
X2673Y1317D02*
X2734Y1317D01*
X2773Y1317D02*
X2834Y1317D01*
X2873Y1317D02*
X2934Y1317D01*
X2973Y1317D02*
X3034Y1317D01*
X3073Y1317D02*
X3134Y1317D01*
X2473Y1316D02*
X2534Y1316D01*
X2573Y1316D02*
X2634Y1316D01*
X2673Y1316D02*
X2734Y1316D01*
X2773Y1316D02*
X2834Y1316D01*
X2873Y1316D02*
X2934Y1316D01*
X2973Y1316D02*
X3034Y1316D01*
X3073Y1316D02*
X3134Y1316D01*
X2473Y1315D02*
X2534Y1315D01*
X2573Y1315D02*
X2634Y1315D01*
X2673Y1315D02*
X2734Y1315D01*
X2773Y1315D02*
X2834Y1315D01*
X2873Y1315D02*
X2934Y1315D01*
X2973Y1315D02*
X3034Y1315D01*
X3073Y1315D02*
X3134Y1315D01*
X2473Y1314D02*
X2534Y1314D01*
X2573Y1314D02*
X2634Y1314D01*
X2673Y1314D02*
X2734Y1314D01*
X2773Y1314D02*
X2834Y1314D01*
X2873Y1314D02*
X2934Y1314D01*
X2973Y1314D02*
X3034Y1314D01*
X3073Y1314D02*
X3134Y1314D01*
X2474Y1313D02*
X2534Y1313D01*
X2574Y1313D02*
X2634Y1313D01*
X2673Y1313D02*
X2734Y1313D01*
X2773Y1313D02*
X2834Y1313D01*
X2873Y1313D02*
X2934Y1313D01*
X2973Y1313D02*
X3034Y1313D01*
X3073Y1313D02*
X3134Y1313D01*
X2474Y1312D02*
X2534Y1312D01*
X2574Y1312D02*
X2634Y1312D01*
X2674Y1312D02*
X2734Y1312D01*
X2774Y1312D02*
X2834Y1312D01*
X2874Y1312D02*
X2934Y1312D01*
X2974Y1312D02*
X3034Y1312D01*
X3074Y1312D02*
X3134Y1312D01*
X2474Y1311D02*
X2534Y1311D01*
X2574Y1311D02*
X2634Y1311D01*
X2674Y1311D02*
X2734Y1311D01*
X2774Y1311D02*
X2834Y1311D01*
X2874Y1311D02*
X2934Y1311D01*
X2974Y1311D02*
X3034Y1311D01*
X3074Y1311D02*
X3134Y1311D01*
X2474Y1310D02*
X2534Y1310D01*
X2574Y1310D02*
X2634Y1310D01*
X2674Y1310D02*
X2734Y1310D01*
X2774Y1310D02*
X2834Y1310D01*
X2874Y1310D02*
X2934Y1310D01*
X2974Y1310D02*
X3034Y1310D01*
X3074Y1310D02*
X3134Y1310D01*
X2474Y1309D02*
X2534Y1309D01*
X2574Y1309D02*
X2634Y1309D01*
X2674Y1309D02*
X2734Y1309D01*
X2774Y1309D02*
X2834Y1309D01*
X2874Y1309D02*
X2934Y1309D01*
X2974Y1309D02*
X3034Y1309D01*
X3074Y1309D02*
X3134Y1309D01*
X2474Y1308D02*
X2534Y1308D01*
X2574Y1308D02*
X2634Y1308D01*
X2674Y1308D02*
X2734Y1308D01*
X2774Y1308D02*
X2834Y1308D01*
X2874Y1308D02*
X2934Y1308D01*
X2974Y1308D02*
X3034Y1308D01*
X3074Y1308D02*
X3134Y1308D01*
X2474Y1307D02*
X2534Y1307D01*
X2574Y1307D02*
X2634Y1307D01*
X2674Y1307D02*
X2734Y1307D01*
X2774Y1307D02*
X2834Y1307D01*
X2874Y1307D02*
X2933Y1307D01*
X2974Y1307D02*
X3033Y1307D01*
X3074Y1307D02*
X3133Y1307D01*
X2475Y1306D02*
X2533Y1306D01*
X2575Y1306D02*
X2633Y1306D01*
X2675Y1306D02*
X2733Y1306D01*
X2775Y1306D02*
X2833Y1306D01*
X2875Y1306D02*
X2933Y1306D01*
X2975Y1306D02*
X3033Y1306D01*
X3075Y1306D02*
X3133Y1306D01*
X2475Y1305D02*
X2533Y1305D01*
X2575Y1305D02*
X2633Y1305D01*
X2675Y1305D02*
X2733Y1305D01*
X2775Y1305D02*
X2833Y1305D01*
X2875Y1305D02*
X2933Y1305D01*
X2975Y1305D02*
X3033Y1305D01*
X3075Y1305D02*
X3133Y1305D01*
X2475Y1304D02*
X2533Y1304D01*
X2575Y1304D02*
X2633Y1304D01*
X2675Y1304D02*
X2733Y1304D01*
X2775Y1304D02*
X2833Y1304D01*
X2875Y1304D02*
X2933Y1304D01*
X2975Y1304D02*
X3033Y1304D01*
X3075Y1304D02*
X3133Y1304D01*
X2476Y1303D02*
X2532Y1303D01*
X2576Y1303D02*
X2632Y1303D01*
X2676Y1303D02*
X2732Y1303D01*
X2776Y1303D02*
X2832Y1303D01*
X2876Y1303D02*
X2932Y1303D01*
X2976Y1303D02*
X3032Y1303D01*
X3076Y1303D02*
X3132Y1303D01*
X2476Y1302D02*
X2532Y1302D01*
X2576Y1302D02*
X2632Y1302D01*
X2676Y1302D02*
X2732Y1302D01*
X2776Y1302D02*
X2832Y1302D01*
X2876Y1302D02*
X2932Y1302D01*
X2976Y1302D02*
X3032Y1302D01*
X3076Y1302D02*
X3132Y1302D01*
X2476Y1301D02*
X2531Y1301D01*
X2576Y1301D02*
X2631Y1301D01*
X2676Y1301D02*
X2731Y1301D01*
X2776Y1301D02*
X2831Y1301D01*
X2876Y1301D02*
X2931Y1301D01*
X2976Y1301D02*
X3031Y1301D01*
X3076Y1301D02*
X3131Y1301D01*
X2477Y1300D02*
X2531Y1300D01*
X2577Y1300D02*
X2631Y1300D01*
X2677Y1300D02*
X2731Y1300D01*
X2777Y1300D02*
X2831Y1300D01*
X2877Y1300D02*
X2931Y1300D01*
X2977Y1300D02*
X3031Y1300D01*
X3077Y1300D02*
X3131Y1300D01*
X2477Y1299D02*
X2530Y1299D01*
X2577Y1299D02*
X2630Y1299D01*
X2677Y1299D02*
X2730Y1299D01*
X2777Y1299D02*
X2830Y1299D01*
X2877Y1299D02*
X2930Y1299D01*
X2977Y1299D02*
X3030Y1299D01*
X3077Y1299D02*
X3130Y1299D01*
X2478Y1298D02*
X2530Y1298D01*
X2578Y1298D02*
X2630Y1298D01*
X2678Y1298D02*
X2730Y1298D01*
X2778Y1298D02*
X2830Y1298D01*
X2878Y1298D02*
X2930Y1298D01*
X2978Y1298D02*
X3030Y1298D01*
X3078Y1298D02*
X3130Y1298D01*
X2479Y1297D02*
X2529Y1297D01*
X2579Y1297D02*
X2629Y1297D01*
X2679Y1297D02*
X2729Y1297D01*
X2779Y1297D02*
X2829Y1297D01*
X2879Y1297D02*
X2929Y1297D01*
X2979Y1297D02*
X3029Y1297D01*
X3079Y1297D02*
X3129Y1297D01*
X2479Y1296D02*
X2529Y1296D01*
X2579Y1296D02*
X2629Y1296D01*
X2679Y1296D02*
X2729Y1296D01*
X2779Y1296D02*
X2829Y1296D01*
X2879Y1296D02*
X2928Y1296D01*
X2979Y1296D02*
X3028Y1296D01*
X3079Y1296D02*
X3128Y1296D01*
X2480Y1295D02*
X2528Y1295D01*
X2580Y1295D02*
X2628Y1295D01*
X2680Y1295D02*
X2728Y1295D01*
X2780Y1295D02*
X2828Y1295D01*
X2880Y1295D02*
X2928Y1295D01*
X2980Y1295D02*
X3028Y1295D01*
X3080Y1295D02*
X3128Y1295D01*
X2481Y1294D02*
X2527Y1294D01*
X2581Y1294D02*
X2627Y1294D01*
X2681Y1294D02*
X2727Y1294D01*
X2781Y1294D02*
X2827Y1294D01*
X2881Y1294D02*
X2927Y1294D01*
X2981Y1294D02*
X3027Y1294D01*
X3081Y1294D02*
X3127Y1294D01*
X2482Y1293D02*
X2526Y1293D01*
X2582Y1293D02*
X2626Y1293D01*
X2682Y1293D02*
X2726Y1293D01*
X2782Y1293D02*
X2826Y1293D01*
X2882Y1293D02*
X2926Y1293D01*
X2982Y1293D02*
X3026Y1293D01*
X3082Y1293D02*
X3126Y1293D01*
X2483Y1292D02*
X2525Y1292D01*
X2583Y1292D02*
X2625Y1292D01*
X2683Y1292D02*
X2725Y1292D01*
X2783Y1292D02*
X2825Y1292D01*
X2883Y1292D02*
X2925Y1292D01*
X2983Y1292D02*
X3025Y1292D01*
X3083Y1292D02*
X3125Y1292D01*
X2484Y1291D02*
X2524Y1291D01*
X2584Y1291D02*
X2624Y1291D01*
X2684Y1291D02*
X2724Y1291D01*
X2784Y1291D02*
X2824Y1291D01*
X2884Y1291D02*
X2924Y1291D01*
X2984Y1291D02*
X3024Y1291D01*
X3084Y1291D02*
X3124Y1291D01*
X2485Y1290D02*
X2523Y1290D01*
X2585Y1290D02*
X2623Y1290D01*
X2685Y1290D02*
X2723Y1290D01*
X2785Y1290D02*
X2823Y1290D01*
X2885Y1290D02*
X2923Y1290D01*
X2985Y1290D02*
X3023Y1290D01*
X3085Y1290D02*
X3123Y1290D01*
X2486Y1289D02*
X2522Y1289D01*
X2586Y1289D02*
X2622Y1289D01*
X2686Y1289D02*
X2722Y1289D01*
X2786Y1289D02*
X2822Y1289D01*
X2886Y1289D02*
X2921Y1289D01*
X2986Y1289D02*
X3021Y1289D01*
X3086Y1289D02*
X3121Y1289D01*
X2488Y1288D02*
X2520Y1288D01*
X2588Y1288D02*
X2620Y1288D01*
X2688Y1288D02*
X2720Y1288D01*
X2788Y1288D02*
X2820Y1288D01*
X2888Y1288D02*
X2920Y1288D01*
X2988Y1288D02*
X3020Y1288D01*
X3088Y1288D02*
X3120Y1288D01*
X2490Y1287D02*
X2518Y1287D01*
X2590Y1287D02*
X2618Y1287D01*
X2690Y1287D02*
X2718Y1287D01*
X2790Y1287D02*
X2818Y1287D01*
X2890Y1287D02*
X2918Y1287D01*
X2990Y1287D02*
X3018Y1287D01*
X3090Y1287D02*
X3118Y1287D01*
X2492Y1286D02*
X2516Y1286D01*
X2592Y1286D02*
X2616Y1286D01*
X2692Y1286D02*
X2716Y1286D01*
X2792Y1286D02*
X2816Y1286D01*
X2892Y1286D02*
X2916Y1286D01*
X2992Y1286D02*
X3016Y1286D01*
X3092Y1286D02*
X3116Y1286D01*
X2494Y1285D02*
X2514Y1285D01*
X2594Y1285D02*
X2614Y1285D01*
X2694Y1285D02*
X2714Y1285D01*
X2794Y1285D02*
X2814Y1285D01*
X2894Y1285D02*
X2914Y1285D01*
X2994Y1285D02*
X3014Y1285D01*
X3094Y1285D02*
X3114Y1285D01*
X2497Y1284D02*
X2510Y1284D01*
X2597Y1284D02*
X2610Y1284D01*
X2697Y1284D02*
X2710Y1284D01*
X2797Y1284D02*
X2810Y1284D01*
X2897Y1284D02*
X2910Y1284D01*
X2997Y1284D02*
X3010Y1284D01*
X3097Y1284D02*
X3110Y1284D01*
D02*
G04 End of Mask1*
M02*